<?xml version="1.0" encoding="utf-8"?>
<svg version="1.1" xmlns:xlink="http://www.w3.org/1999/xlink" width="24px" height="24px" xmlns="http://www.w3.org/2000/svg">
  <defs>
    <pattern id="BGPattern" patternUnits="userSpaceOnUse" alignment="0 0" imageRepeat="None" />
    <mask fill="white" id="Clip116">
      <path d="M 13.45300006866455 24  C 19.396999835968018 23.280331199521388  24 18.203505354472032  24 12.044665988632964  C 24 5.391995692491774  18.627999782562256 0  12 0  C 5.372000217437744 0  0 5.391995692491774  0 12.044665988632964  C 0 17.690603170804668  3.876999855041504 22.433191145677533  9.102999687194824 23.73602249476518  C 9.102999687194824 23.73602249476518  9.102999687194824 15.724311815734369  9.102999687194824 15.724311815734369  L 6.627999782562256 15.724311815734369  L 6.627999782562256 12.044665988632964  L 9.102999687194824 12.044665988632964  C 9.102999687194824 12.044665988632964  9.102999687194824 10.458785043374215  9.102999687194824 10.458785043374215  C 9.102999687194824 6.361591384983548  10.950000286102295 4.460541070894406  14.963000297546387 4.460541070894406  C 15.722000300884247 4.460541070894406  17.033999979496002 4.611099581214479  17.572999954223633 4.761657912055041  C 17.572999954223633 4.761657912055041  17.572999954223633 8.093011546515108  17.572999954223633 8.093011546515108  C 17.111563980579376 8.057159101106791  16.648796319961548 8.041419386591384  16.18600082397461 8.045836673646425  C 14.217000842094421 8.045836673646424  13.458000183105469 8.793610050852529  13.458000183105469 10.73581238408615  C 13.458000183105469 10.73581238408615  13.458000183105469 12.044665988632964  13.458000183105469 12.044665988632964  L 17.37700080871582 12.044665988632964  L 16.70199966430664 15.724311815734369  L 13.45300006866455 15.724311815734369  C 13.45300006866455 15.724311815734369  13.45300006866455 24  13.45300006866455 24  Z " fill-rule="evenodd" />
    </mask>
  </defs>
  <g>
    <path d="M 13.45300006866455 24  C 19.396999835968018 23.280331199521388  24 18.203505354472032  24 12.044665988632964  C 24 5.391995692491774  18.627999782562256 0  12 0  C 5.372000217437744 0  0 5.391995692491774  0 12.044665988632964  C 0 17.690603170804668  3.876999855041504 22.433191145677533  9.102999687194824 23.73602249476518  C 9.102999687194824 23.73602249476518  9.102999687194824 15.724311815734369  9.102999687194824 15.724311815734369  L 6.627999782562256 15.724311815734369  L 6.627999782562256 12.044665988632964  L 9.102999687194824 12.044665988632964  C 9.102999687194824 12.044665988632964  9.102999687194824 10.458785043374215  9.102999687194824 10.458785043374215  C 9.102999687194824 6.361591384983548  10.950000286102295 4.460541070894406  14.963000297546387 4.460541070894406  C 15.722000300884247 4.460541070894406  17.033999979496002 4.611099581214479  17.572999954223633 4.761657912055041  C 17.572999954223633 4.761657912055041  17.572999954223633 8.093011546515108  17.572999954223633 8.093011546515108  C 17.111563980579376 8.057159101106791  16.648796319961548 8.041419386591384  16.18600082397461 8.045836673646425  C 14.217000842094421 8.045836673646424  13.458000183105469 8.793610050852529  13.458000183105469 10.73581238408615  C 13.458000183105469 10.73581238408615  13.458000183105469 12.044665988632964  13.458000183105469 12.044665988632964  L 17.37700080871582 12.044665988632964  L 16.70199966430664 15.724311815734369  L 13.45300006866455 15.724311815734369  C 13.45300006866455 15.724311815734369  13.45300006866455 24  13.45300006866455 24  Z " fill-rule="nonzero" fill="rgba(24, 119, 242, 1)" stroke="none" class="fill" />
    <path d="M 13.45300006866455 24  C 19.396999835968018 23.280331199521388  24 18.203505354472032  24 12.044665988632964  C 24 5.391995692491774  18.627999782562256 0  12 0  C 5.372000217437744 0  0 5.391995692491774  0 12.044665988632964  C 0 17.690603170804668  3.876999855041504 22.433191145677533  9.102999687194824 23.73602249476518  C 9.102999687194824 23.73602249476518  9.102999687194824 15.724311815734369  9.102999687194824 15.724311815734369  L 6.627999782562256 15.724311815734369  L 6.627999782562256 12.044665988632964  L 9.102999687194824 12.044665988632964  C 9.102999687194824 12.044665988632964  9.102999687194824 10.458785043374215  9.102999687194824 10.458785043374215  C 9.102999687194824 6.361591384983548  10.950000286102295 4.460541070894406  14.963000297546387 4.460541070894406  C 15.722000300884247 4.460541070894406  17.033999979496002 4.611099581214479  17.572999954223633 4.761657912055041  C 17.572999954223633 4.761657912055041  17.572999954223633 8.093011546515108  17.572999954223633 8.093011546515108  C 17.111563980579376 8.057159101106791  16.648796319961548 8.041419386591384  16.18600082397461 8.045836673646425  C 14.217000842094421 8.045836673646424  13.458000183105469 8.793610050852529  13.458000183105469 10.73581238408615  C 13.458000183105469 10.73581238408615  13.458000183105469 12.044665988632964  13.458000183105469 12.044665988632964  L 17.37700080871582 12.044665988632964  L 16.70199966430664 15.724311815734369  L 13.45300006866455 15.724311815734369  C 13.45300006866455 15.724311815734369  13.45300006866455 24  13.45300006866455 24  Z " stroke-width="0" stroke-dasharray="0" stroke="rgba(121, 121, 121, 1)" fill="none" class="stroke" mask="url(#Clip116)" />
  </g>
</svg>