<?xml version="1.0" encoding="utf-8"?>
<svg version="1.1" xmlns:xlink="http://www.w3.org/1999/xlink" width="17px" height="9px" xmlns="http://www.w3.org/2000/svg">
  <defs>
    <pattern id="BGPattern" patternUnits="userSpaceOnUse" alignment="0 0" imageRepeat="None" />
    <mask fill="white" id="Clip112">
      <path d="M 4.030079447085394 7.347364341997966  C 5.754860395779884 8.42820703077609  7.741228750663791 9.000383043150318  9.767372791892463 9  C 12.718398523556345 9  15.1923185955551 8.004831591755707  17 6.308213117296827  C 17 6.308213117296827  13.468271816624974 3.5198056613345194  13.468271816624974 3.5198056613345194  C 12.489348660260141 4.186472355729238  11.237658436980828 4.580676704392174  9.767372791892463 4.580676704392174  C 6.919941812914137 4.580676704392174  4.510649923517318 2.6260870121633153  3.651478523001853 0  C 3.651478523001853 0  0 0  0 0  C 0 0  0 2.879227661982588  0 2.879227661982588  C 0.910002913086456 4.719562098124543  2.305298498390905 6.266521653219842  4.030079447085394 7.347364341997966  Z " fill-rule="evenodd" />
    </mask>
  </defs>
  <g transform="matrix(1 0 0 1 -2 -14 )">
    <path d="M 4.030079447085394 7.347364341997966  C 5.754860395779884 8.42820703077609  7.741228750663791 9.000383043150318  9.767372791892463 9  C 12.718398523556345 9  15.1923185955551 8.004831591755707  17 6.308213117296827  C 17 6.308213117296827  13.468271816624974 3.5198056613345194  13.468271816624974 3.5198056613345194  C 12.489348660260141 4.186472355729238  11.237658436980828 4.580676704392174  9.767372791892463 4.580676704392174  C 6.919941812914137 4.580676704392174  4.510649923517318 2.6260870121633153  3.651478523001853 0  C 3.651478523001853 0  0 0  0 0  C 0 0  0 2.879227661982588  0 2.879227661982588  C 0.910002913086456 4.719562098124543  2.305298498390905 6.266521653219842  4.030079447085394 7.347364341997966  Z " fill-rule="nonzero" fill="rgba(52, 168, 83, 1)" stroke="none" transform="matrix(1 0 0 1 2 14 )" class="fill" />
    <path d="M 4.030079447085394 7.347364341997966  C 5.754860395779884 8.42820703077609  7.741228750663791 9.000383043150318  9.767372791892463 9  C 12.718398523556345 9  15.1923185955551 8.004831591755707  17 6.308213117296827  C 17 6.308213117296827  13.468271816624974 3.5198056613345194  13.468271816624974 3.5198056613345194  C 12.489348660260141 4.186472355729238  11.237658436980828 4.580676704392174  9.767372791892463 4.580676704392174  C 6.919941812914137 4.580676704392174  4.510649923517318 2.6260870121633153  3.651478523001853 0  C 3.651478523001853 0  0 0  0 0  C 0 0  0 2.879227661982588  0 2.879227661982588  C 0.910002913086456 4.719562098124543  2.305298498390905 6.266521653219842  4.030079447085394 7.347364341997966  Z " stroke-width="0" stroke-dasharray="0" stroke="rgba(121, 121, 121, 1)" fill="none" transform="matrix(1 0 0 1 2 14 )" class="stroke" mask="url(#Clip112)" />
  </g>
</svg>