<?xml version="1.0" encoding="utf-8"?>
<svg version="1.1" xmlns:xlink="http://www.w3.org/1999/xlink" width="11px" height="10px" xmlns="http://www.w3.org/2000/svg">
  <defs>
    <pattern id="BGPattern" patternUnits="userSpaceOnUse" alignment="0 0" imageRepeat="None" />
    <mask fill="white" id="Clip111">
      <path d="M 7.583423344977834 10  C 9.749546378456637 8.14715406116084  11 5.41878680097131  11 2.176769288669308  C 11 1.4224888864508876  10.927263505094038 0.6959740425833885  10.79075989868939 0  C 10.79075989868939 0  0 0  0 0  C 0 0  0 4.11661252067986  0 4.11661252067986  C 0 4.11661252067986  6.167572484425049 4.11661252067986  6.167572484425049 4.11661252067986  C 6.039334579793769 4.767741254440477  5.770540682110315 5.388024350954257  5.377381853237828 5.9401048415056  C 4.98422302436534 6.492185332056943  4.474832529318572 6.964639204848355  3.8798900855888077 7.329012951964825  C 3.8798900855888077 7.329012951964825  3.8798900855888077 10  3.8798900855888077 10  C 3.8798900855888077 10  7.583423344977834 10  7.583423344977834 10  Z " fill-rule="evenodd" />
    </mask>
  </defs>
  <g transform="matrix(1 0 0 1 -12 -10 )">
    <path d="M 7.583423344977834 10  C 9.749546378456637 8.14715406116084  11 5.41878680097131  11 2.176769288669308  C 11 1.4224888864508876  10.927263505094038 0.6959740425833885  10.79075989868939 0  C 10.79075989868939 0  0 0  0 0  C 0 0  0 4.11661252067986  0 4.11661252067986  C 0 4.11661252067986  6.167572484425049 4.11661252067986  6.167572484425049 4.11661252067986  C 6.039334579793769 4.767741254440477  5.770540682110315 5.388024350954257  5.377381853237828 5.9401048415056  C 4.98422302436534 6.492185332056943  4.474832529318572 6.964639204848355  3.8798900855888077 7.329012951964825  C 3.8798900855888077 7.329012951964825  3.8798900855888077 10  3.8798900855888077 10  C 3.8798900855888077 10  7.583423344977834 10  7.583423344977834 10  Z " fill-rule="nonzero" fill="rgba(66, 133, 244, 1)" stroke="none" transform="matrix(1 0 0 1 12 10 )" class="fill" />
    <path d="M 7.583423344977834 10  C 9.749546378456637 8.14715406116084  11 5.41878680097131  11 2.176769288669308  C 11 1.4224888864508876  10.927263505094038 0.6959740425833885  10.79075989868939 0  C 10.79075989868939 0  0 0  0 0  C 0 0  0 4.11661252067986  0 4.11661252067986  C 0 4.11661252067986  6.167572484425049 4.11661252067986  6.167572484425049 4.11661252067986  C 6.039334579793769 4.767741254440477  5.770540682110315 5.388024350954257  5.377381853237828 5.9401048415056  C 4.98422302436534 6.492185332056943  4.474832529318572 6.964639204848355  3.8798900855888077 7.329012951964825  C 3.8798900855888077 7.329012951964825  3.8798900855888077 10  3.8798900855888077 10  C 3.8798900855888077 10  7.583423344977834 10  7.583423344977834 10  Z " stroke-width="0" stroke-dasharray="0" stroke="rgba(121, 121, 121, 1)" fill="none" transform="matrix(1 0 0 1 12 10 )" class="stroke" mask="url(#Clip111)" />
  </g>
</svg>