<?xml version="1.0" encoding="utf-8"?>
<svg version="1.1" xmlns:xlink="http://www.w3.org/1999/xlink" width="5px" height="10px" xmlns="http://www.w3.org/2000/svg">
  <defs>
    <pattern id="BGPattern" patternUnits="userSpaceOnUse" alignment="0 0" imageRepeat="None" />
    <mask fill="white" id="Clip113">
      <path d="M 1.2073056663023625 10  C 1.2073056663023625 10  5 7.115198216066023  5 7.115198216066023  C 4.766185838113394 6.4334929699068235  4.6461805786710855 5.719229973141099  4.644619879897312 4.99999953839582  C 4.644619879897311 4.266214493060289  4.772951670021786 3.552758207299236  5 2.8848008607256177  C 5 2.8848008607256177  5 0  5 0  C 5 0  1.2073056663023625 0  1.2073056663023625 0  C 0.41279214978388884 1.5515450076538588  -0.00065432033886687 3.263815051453633  0 4.99999953839582  C 0 6.79670794977488  0.43830287381648625 8.49661196380174  1.2073056663023625 10  Z " fill-rule="evenodd" />
    </mask>
  </defs>
  <g transform="matrix(1 0 0 1 -1 -7 )">
    <path d="M 1.2073056663023625 10  C 1.2073056663023625 10  5 7.115198216066023  5 7.115198216066023  C 4.766185838113394 6.4334929699068235  4.6461805786710855 5.719229973141099  4.644619879897312 4.99999953839582  C 4.644619879897311 4.266214493060289  4.772951670021786 3.552758207299236  5 2.8848008607256177  C 5 2.8848008607256177  5 0  5 0  C 5 0  1.2073056663023625 0  1.2073056663023625 0  C 0.41279214978388884 1.5515450076538588  -0.00065432033886687 3.263815051453633  0 4.99999953839582  C 0 6.79670794977488  0.43830287381648625 8.49661196380174  1.2073056663023625 10  Z " fill-rule="nonzero" fill="rgba(251, 188, 5, 1)" stroke="none" transform="matrix(1 0 0 1 1 7 )" class="fill" />
    <path d="M 1.2073056663023625 10  C 1.2073056663023625 10  5 7.115198216066023  5 7.115198216066023  C 4.766185838113394 6.4334929699068235  4.6461805786710855 5.719229973141099  4.644619879897312 4.99999953839582  C 4.644619879897311 4.266214493060289  4.772951670021786 3.552758207299236  5 2.8848008607256177  C 5 2.8848008607256177  5 0  5 0  C 5 0  1.2073056663023625 0  1.2073056663023625 0  C 0.41279214978388884 1.5515450076538588  -0.00065432033886687 3.263815051453633  0 4.99999953839582  C 0 6.79670794977488  0.43830287381648625 8.49661196380174  1.2073056663023625 10  Z " stroke-width="0" stroke-dasharray="0" stroke="rgba(121, 121, 121, 1)" fill="none" transform="matrix(1 0 0 1 1 7 )" class="stroke" mask="url(#Clip113)" />
  </g>
</svg>