<?xml version="1.0" encoding="utf-8"?>
<svg version="1.1" xmlns:xlink="http://www.w3.org/1999/xlink" width="18px" height="10px" xmlns="http://www.w3.org/2000/svg">
  <defs>
    <pattern id="BGPattern" patternUnits="userSpaceOnUse" alignment="0 0" imageRepeat="None" />
    <mask fill="white" id="Clip114">
      <path d="M 9.721718364929664 4.419323756320076  C 11.318513107117612 4.419323756320076  12.75260122474257 4.9797105268142206  13.88019567012454 6.081159837972621  L 17 2.893720056903082  C 15.115630824147367 1.1014494263364623  12.653274630173277 0  9.721718364929664 0  C 7.705044879101845 -0.00038285095553064724  5.727961161029848 0.5717934299361604  4.011242143371138 1.652636118714285  C 2.2945231257124297 2.7334788074924097  0.9057493986136672 4.280438823299958  0 6.120773259441914  L 3.6344108669303057 9  C 4.48956634844799 6.373912987836685  6.888541553898437 4.419323756320076  9.720771111804526 4.419323756320076  Z " fill-rule="evenodd" />
    </mask>
  </defs>
  <g transform="matrix(1 0 0 1 -2 -1 )">
    <path d="M 9.721718364929664 4.419323756320076  C 11.318513107117612 4.419323756320076  12.75260122474257 4.9797105268142206  13.88019567012454 6.081159837972621  L 17 2.893720056903082  C 15.115630824147367 1.1014494263364623  12.653274630173277 0  9.721718364929664 0  C 7.705044879101845 -0.00038285095553064724  5.727961161029848 0.5717934299361604  4.011242143371138 1.652636118714285  C 2.2945231257124297 2.7334788074924097  0.9057493986136672 4.280438823299958  0 6.120773259441914  L 3.6344108669303057 9  C 4.48956634844799 6.373912987836685  6.888541553898437 4.419323756320076  9.720771111804526 4.419323756320076  Z " fill-rule="nonzero" fill="rgba(234, 67, 53, 1)" stroke="none" transform="matrix(1 0 0 1 2 1 )" class="fill" />
    <path d="M 9.721718364929664 4.419323756320076  C 11.318513107117612 4.419323756320076  12.75260122474257 4.9797105268142206  13.88019567012454 6.081159837972621  L 17 2.893720056903082  C 15.115630824147367 1.1014494263364623  12.653274630173277 0  9.721718364929664 0  C 7.705044879101845 -0.00038285095553064724  5.727961161029848 0.5717934299361604  4.011242143371138 1.652636118714285  C 2.2945231257124297 2.7334788074924097  0.9057493986136672 4.280438823299958  0 6.120773259441914  L 3.6344108669303057 9  C 4.48956634844799 6.373912987836685  6.888541553898437 4.419323756320076  9.720771111804526 4.419323756320076  Z " stroke-width="0" stroke-dasharray="0" stroke="rgba(121, 121, 121, 1)" fill="none" transform="matrix(1 0 0 1 2 1 )" class="stroke" mask="url(#Clip114)" />
  </g>
</svg>