<?xml version="1.0" encoding="utf-8"?>
<svg version="1.1" xmlns:xlink="http://www.w3.org/1999/xlink" width="17px" height="20px" xmlns="http://www.w3.org/2000/svg">
  <defs>
    <pattern id="BGPattern" patternUnits="userSpaceOnUse" alignment="0 0" imageRepeat="None" />
    <mask fill="white" id="Clip115">
      <path d="M 17 14.6591415952016  C 16.88898782629307 14.980478009298224  16.771248370275547 15.289481060513221  16.64476176597505 15.586150570030934  C 16.34959106612074 16.264971221646633  15.986122804992078 16.9125823422257  15.559869292546303 17.519167846293687  C 14.989334023494642 18.325842288500894  14.523420969396819 18.88384936035017  14.16212679175568 19.193185664344036  C 13.60370190610885 19.70185725808936  13.004908273737886 19.963191570073825  12.365747278164136 19.977191705356812  C 11.905551355335724 19.977191705356812  11.352172021651494 19.846523594749744  10.705610209484522 19.58518773116692  C 10.059721209762953 19.323851867584096  9.46429278252794 19.193185664344036  8.919323905176745 19.193185664344036  C 8.348788636125082 19.193185664344036  7.736538995458483 19.323851867584096  7.082576366698291 19.58518773116692  C 6.427268113047295 19.847856933693915  5.898110147703749 19.985525027191304  5.495102320284894 19.998191816079466  C 4.880162151673909 20.024858740250615  4.267913473456941 19.756524423023865  3.658355744256072 19.193185664344036  C 3.2681311427640036 18.856515748080305  2.7803505412816727 18.27884178524211  2.1950136390435695 17.46016726273475  C 1.568635839320053 16.586825515687664  1.0532701681886392 15.57248309333729  0.648916745955532 14.417138684368814  C 0.21697846460919848 13.169126637629546  0.0006728010492090695 11.960115120089256  0 10.790103893327068  C 0 9.450090952795623  0.29266836088939857 8.295079737000794  0.8780052631275016 7.325070365153015  C 1.3201279458601702 6.564709118425461  1.9527693978609386 5.930252392815749  2.7147523203811392 5.483052615004932  C 3.466545668348236 5.037290097837436  4.3243578359138874 4.797440842773925  5.200415642365493 4.788046225802308  C 5.687523611861727 4.789379571964298  6.328366367860025 4.937047501020203  7.122944391585201 5.231050332649573  C 7.916176850572675 5.526386503223116  8.424141870531898 5.674388180409854  8.646839015352882 5.675054853490849  C 8.81503928446937 5.675054853490849  9.378847165942508 5.500719601886729  10.338261471748538 5.152049575520241  C 11.243851684218917 4.8293797926768365  12.009835148937947 4.69471203031922  12.636212948661464 4.748045878661513  C 14.33570843256472 4.882713842186742  15.609657894730883 5.547386435130114  16.458060011791705 6.742064566471216  C 14.939548007893446 7.654740035890924  14.188028077392271 8.930419633138937  14.203502501406591 10.569102046900438  C 14.217631324027415 11.84578098524852  14.683882105836396 12.906124331336732  15.602255574310114 13.750132442796394  C 16.018046627655753 14.14146955379724  16.483961576576288 14.444472862888256  17 14.6591415952016  Z M 12.72906046459595 0  C 12.743862087443578 0.13333462458105874  12.750926406527064 0.26666932366864116  12.750253605477855 0.40000394824969987  C 12.750253605477855 1.4000135804530742  12.38223061162202 2.3330223570116098  11.646186248044103 3.1990306951618397  C 10.759098046980224 4.226040537843162  9.686316498334225 4.820046256153285  8.522707074151988 4.7260453539448495  C 8.506901230043184 4.60032319499423  8.49914873186396 4.473735463956057  8.499495676393183 4.347041993259555  C 8.499495676393185 3.3870327678021956  8.921341801135036 2.3600228059104342  9.670169360563184 1.5190146847232013  C 10.044246734054559 1.0936772667316381  10.519917583739627 0.740007077762113  11.097180917092212 0.4580043562355022  C 11.673098625553989 0.17933499697062433  12.21705885569155 0.026666924171146515  12.72906046459595 0  Z " fill-rule="evenodd" />
    </mask>
  </defs>
  <g transform="matrix(1 0 0 1 -4 -2 )">
    <path d="M 17 14.6591415952016  C 16.88898782629307 14.980478009298224  16.771248370275547 15.289481060513221  16.64476176597505 15.586150570030934  C 16.34959106612074 16.264971221646633  15.986122804992078 16.9125823422257  15.559869292546303 17.519167846293687  C 14.989334023494642 18.325842288500894  14.523420969396819 18.88384936035017  14.16212679175568 19.193185664344036  C 13.60370190610885 19.70185725808936  13.004908273737886 19.963191570073825  12.365747278164136 19.977191705356812  C 11.905551355335724 19.977191705356812  11.352172021651494 19.846523594749744  10.705610209484522 19.58518773116692  C 10.059721209762953 19.323851867584096  9.46429278252794 19.193185664344036  8.919323905176745 19.193185664344036  C 8.348788636125082 19.193185664344036  7.736538995458483 19.323851867584096  7.082576366698291 19.58518773116692  C 6.427268113047295 19.847856933693915  5.898110147703749 19.985525027191304  5.495102320284894 19.998191816079466  C 4.880162151673909 20.024858740250615  4.267913473456941 19.756524423023865  3.658355744256072 19.193185664344036  C 3.2681311427640036 18.856515748080305  2.7803505412816727 18.27884178524211  2.1950136390435695 17.46016726273475  C 1.568635839320053 16.586825515687664  1.0532701681886392 15.57248309333729  0.648916745955532 14.417138684368814  C 0.21697846460919848 13.169126637629546  0.0006728010492090695 11.960115120089256  0 10.790103893327068  C 0 9.450090952795623  0.29266836088939857 8.295079737000794  0.8780052631275016 7.325070365153015  C 1.3201279458601702 6.564709118425461  1.9527693978609386 5.930252392815749  2.7147523203811392 5.483052615004932  C 3.466545668348236 5.037290097837436  4.3243578359138874 4.797440842773925  5.200415642365493 4.788046225802308  C 5.687523611861727 4.789379571964298  6.328366367860025 4.937047501020203  7.122944391585201 5.231050332649573  C 7.916176850572675 5.526386503223116  8.424141870531898 5.674388180409854  8.646839015352882 5.675054853490849  C 8.81503928446937 5.675054853490849  9.378847165942508 5.500719601886729  10.338261471748538 5.152049575520241  C 11.243851684218917 4.8293797926768365  12.009835148937947 4.69471203031922  12.636212948661464 4.748045878661513  C 14.33570843256472 4.882713842186742  15.609657894730883 5.547386435130114  16.458060011791705 6.742064566471216  C 14.939548007893446 7.654740035890924  14.188028077392271 8.930419633138937  14.203502501406591 10.569102046900438  C 14.217631324027415 11.84578098524852  14.683882105836396 12.906124331336732  15.602255574310114 13.750132442796394  C 16.018046627655753 14.14146955379724  16.483961576576288 14.444472862888256  17 14.6591415952016  Z M 12.72906046459595 0  C 12.743862087443578 0.13333462458105874  12.750926406527064 0.26666932366864116  12.750253605477855 0.40000394824969987  C 12.750253605477855 1.4000135804530742  12.38223061162202 2.3330223570116098  11.646186248044103 3.1990306951618397  C 10.759098046980224 4.226040537843162  9.686316498334225 4.820046256153285  8.522707074151988 4.7260453539448495  C 8.506901230043184 4.60032319499423  8.49914873186396 4.473735463956057  8.499495676393183 4.347041993259555  C 8.499495676393185 3.3870327678021956  8.921341801135036 2.3600228059104342  9.670169360563184 1.5190146847232013  C 10.044246734054559 1.0936772667316381  10.519917583739627 0.740007077762113  11.097180917092212 0.4580043562355022  C 11.673098625553989 0.17933499697062433  12.21705885569155 0.026666924171146515  12.72906046459595 0  Z " fill-rule="nonzero" fill="rgba(55, 58, 54, 1)" stroke="none" transform="matrix(1 0 0 1 4 2 )" class="fill" />
    <path d="M 17 14.6591415952016  C 16.88898782629307 14.980478009298224  16.771248370275547 15.289481060513221  16.64476176597505 15.586150570030934  C 16.34959106612074 16.264971221646633  15.986122804992078 16.9125823422257  15.559869292546303 17.519167846293687  C 14.989334023494642 18.325842288500894  14.523420969396819 18.88384936035017  14.16212679175568 19.193185664344036  C 13.60370190610885 19.70185725808936  13.004908273737886 19.963191570073825  12.365747278164136 19.977191705356812  C 11.905551355335724 19.977191705356812  11.352172021651494 19.846523594749744  10.705610209484522 19.58518773116692  C 10.059721209762953 19.323851867584096  9.46429278252794 19.193185664344036  8.919323905176745 19.193185664344036  C 8.348788636125082 19.193185664344036  7.736538995458483 19.323851867584096  7.082576366698291 19.58518773116692  C 6.427268113047295 19.847856933693915  5.898110147703749 19.985525027191304  5.495102320284894 19.998191816079466  C 4.880162151673909 20.024858740250615  4.267913473456941 19.756524423023865  3.658355744256072 19.193185664344036  C 3.2681311427640036 18.856515748080305  2.7803505412816727 18.27884178524211  2.1950136390435695 17.46016726273475  C 1.568635839320053 16.586825515687664  1.0532701681886392 15.57248309333729  0.648916745955532 14.417138684368814  C 0.21697846460919848 13.169126637629546  0.0006728010492090695 11.960115120089256  0 10.790103893327068  C 0 9.450090952795623  0.29266836088939857 8.295079737000794  0.8780052631275016 7.325070365153015  C 1.3201279458601702 6.564709118425461  1.9527693978609386 5.930252392815749  2.7147523203811392 5.483052615004932  C 3.466545668348236 5.037290097837436  4.3243578359138874 4.797440842773925  5.200415642365493 4.788046225802308  C 5.687523611861727 4.789379571964298  6.328366367860025 4.937047501020203  7.122944391585201 5.231050332649573  C 7.916176850572675 5.526386503223116  8.424141870531898 5.674388180409854  8.646839015352882 5.675054853490849  C 8.81503928446937 5.675054853490849  9.378847165942508 5.500719601886729  10.338261471748538 5.152049575520241  C 11.243851684218917 4.8293797926768365  12.009835148937947 4.69471203031922  12.636212948661464 4.748045878661513  C 14.33570843256472 4.882713842186742  15.609657894730883 5.547386435130114  16.458060011791705 6.742064566471216  C 14.939548007893446 7.654740035890924  14.188028077392271 8.930419633138937  14.203502501406591 10.569102046900438  C 14.217631324027415 11.84578098524852  14.683882105836396 12.906124331336732  15.602255574310114 13.750132442796394  C 16.018046627655753 14.14146955379724  16.483961576576288 14.444472862888256  17 14.6591415952016  Z " stroke-width="0" stroke-dasharray="0" stroke="rgba(121, 121, 121, 1)" fill="none" transform="matrix(1 0 0 1 4 2 )" class="stroke" mask="url(#Clip115)" />
    <path d="M 12.72906046459595 0  C 12.743862087443578 0.13333462458105874  12.750926406527064 0.26666932366864116  12.750253605477855 0.40000394824969987  C 12.750253605477855 1.4000135804530742  12.38223061162202 2.3330223570116098  11.646186248044103 3.1990306951618397  C 10.759098046980224 4.226040537843162  9.686316498334225 4.820046256153285  8.522707074151988 4.7260453539448495  C 8.506901230043184 4.60032319499423  8.49914873186396 4.473735463956057  8.499495676393183 4.347041993259555  C 8.499495676393185 3.3870327678021956  8.921341801135036 2.3600228059104342  9.670169360563184 1.5190146847232013  C 10.044246734054559 1.0936772667316381  10.519917583739627 0.740007077762113  11.097180917092212 0.4580043562355022  C 11.673098625553989 0.17933499697062433  12.21705885569155 0.026666924171146515  12.72906046459595 0  Z " stroke-width="0" stroke-dasharray="0" stroke="rgba(121, 121, 121, 1)" fill="none" transform="matrix(1 0 0 1 4 2 )" class="stroke" mask="url(#Clip115)" />
  </g>
</svg>