<?xml version="1.0" encoding="utf-8"?>
<svg version="1.1" xmlns:xlink="http://www.w3.org/1999/xlink" width="25px" height="25px" xmlns="http://www.w3.org/2000/svg">
  <defs>
    <pattern id="BGPattern" patternUnits="userSpaceOnUse" alignment="0 0" imageRepeat="None" />
    <mask fill="white" id="Clip90">
      <path d="M 0 8.88888888888889  C 0 13.798086378309462  3.979690869649251 17.77777777777778  8.88888888888889 17.77777777777778  C 13.798086378309462 17.77777777777778  17.77777777777778 13.798086378309462  17.77777777777778 8.88888888888889  C 17.77777777777778 3.979690869649251  13.798086378309462 0  8.88888888888889 0  C 3.979690869649251 0  0 3.979690869649251  0 8.88888888888889  Z " fill-rule="evenodd" />
    </mask>
  </defs>
  <g transform="matrix(1 0 0 1 -11 -11 )">
    <path d="M 0 8.88888888888889  C 0 13.798086378309462  3.979690869649251 17.77777777777778  8.88888888888889 17.77777777777778  C 13.798086378309462 17.77777777777778  17.77777777777778 13.798086378309462  17.77777777777778 8.88888888888889  C 17.77777777777778 3.979690869649251  13.798086378309462 0  8.88888888888889 0  C 3.979690869649251 0  0 3.979690869649251  0 8.88888888888889  Z " fill-rule="nonzero" fill="rgba(255, 255, 255, 0)" stroke="none" transform="matrix(1 0 0 1 13 13 )" class="fill" />
    <path d="M 0 8.88888888888889  C 0 13.798086378309462  3.979690869649251 17.77777777777778  8.88888888888889 17.77777777777778  C 13.798086378309462 17.77777777777778  17.77777777777778 13.798086378309462  17.77777777777778 8.88888888888889  C 17.77777777777778 3.979690869649251  13.798086378309462 0  8.88888888888889 0  C 3.979690869649251 0  0 3.979690869649251  0 8.88888888888889  Z " stroke-width="8" stroke-dasharray="0" stroke="rgba(30, 30, 30, 1)" fill="none" transform="matrix(1 0 0 1 13 13 )" class="stroke" mask="url(#Clip90)" />
    <path d="M 20 20  L 15.166666242811415 15.166666242811415  " stroke-width="4" stroke-dasharray="0" stroke="rgba(30, 30, 30, 1)" fill="none" transform="matrix(1 0 0 1 13 13 )" class="stroke" />
  </g>
</svg>