<?xml version="1.0" encoding="utf-8"?>
<svg version="1.1" xmlns:xlink="http://www.w3.org/1999/xlink" width="19px" height="19px" xmlns="http://www.w3.org/2000/svg">
  <defs>
    <pattern id="BGPattern" patternUnits="userSpaceOnUse" alignment="0 0" imageRepeat="None" />
    <mask fill="white" id="Clip91">
      <path d="M 19 9.497409573423386  C 19 4.262609922164993  14.739115931015103 0  9.504316279756708 0  C 4.26865329020665 0  0 4.262609922164993  0 9.497409573423386  C 0 14.73220922468178  4.269516628498316 19  9.504316279756708 19  C 14.739115931015103 19  19 14.73220922468178  19 9.497409573423386  Z M 1.7268017406224339 9.497409573423386  C 1.7268017406224339 5.195946546222131  5.202853252555454 1.7268016376970294  9.504316279756708 1.7268016376970294  C 10.525164920083949 1.7250951702756108  11.536308415259064 1.9249358972456032  12.479755504710646 2.3148623330463267  C 13.423202594162227 2.7047887688470498  14.280391761932975 3.2771292812201134  15.00216156350233 3.9990595434948455  C 15.723931365071685 4.720989805769578  16.296082134461834 5.578305777638483  16.6857988597512 6.52183942735512  C 17.075515585040563 7.465373077071756  17.27513160735846 8.47656124187236  17.273198259377565 9.497409573423386  C 17.275243872439145 10.518533539207255  17.075741403377705 11.530022040337744  16.686128221045113 12.473896990695195  C 16.29651503871252 13.41777194105265  15.72445067519932 14.275474397814879  15.00272641812139 14.997840343326212  C 14.281002161043457 15.720206288837547  13.42380923649545 16.293033252402907  12.480280835974437 16.68348509666147  C 11.53675243545342 17.073936940920035  10.525441686496237 17.274336407694733  9.504316279756708 17.273198259377565  C 8.482752616645469 17.274447766348374  7.470974998054168 17.074186432100174  6.526912002982973 16.683880330214166  C 5.582849007911778 16.293574228328158  4.725042905267371 15.720889250358093  4.002607588033507 14.998614342366904  C 3.280172270799642 14.276339434375716  2.7072963662045146 13.418659672665143  2.316780656732552 12.47468334078441  C 1.9262649472605893 11.530707008903676  1.7257790713925247 10.518973442385436  1.7268017406224339 9.497409573423386  Z M 9.828146774140148 3.5058154803621795  C 9.721045210108453 3.461970200520952  9.60622222083965 3.4401038555698356  9.490502043686828 3.4415159217583176  C 9.37637939746623 3.4426342652777353  9.263610992253335 3.466367164145413  9.158718297458666 3.5113421628740134  C 9.053825602663997 3.556317161602614  8.958890053008316 3.621641516293373  8.87940262875383 3.7035376523230976  C 8.799915204499344 3.7854337883528224  8.737453443318481 3.8822766036465968  8.695628907590061 3.9884648140729486  C 8.653804371861641 4.094653024499301  8.633447337905551 4.20807960550881  8.6357353796955 4.322184793007694  C 8.6357353796955 4.322184793007694  8.6357353796955 9.497409573423386  8.6357353796955 9.497409573423386  C 8.6362124059261 9.611025183370817  8.65910921796292 9.723429573592725  8.703112819590965 9.828178886866302  C 8.74711642121901 9.932928200139878  8.811361403627217 10.027962320168735  8.892165378892898 10.107833797703867  C 8.892165378892898 10.107833797703867  12.345768860137767 13.563164778935299  12.345768860137767 13.563164778935299  C 12.425655139632612 13.645372142089256  12.521111691252258 13.710848385729063  12.62656994827814 13.755775263614712  C 12.732028205304026 13.800702141500361  12.845377238454196 13.8241796927927  12.960004617992036 13.824838209931768  C 13.074631997529876 13.825496727070835  13.188243342505864 13.803322947153351  13.294210816536916 13.75961067588231  C 13.400178290567974 13.71589840461127  13.496379115084968 13.65152190926766  13.57720462749151 13.570237812722048  C 13.65803013989805 13.488953716176438  13.721861458673347 13.392389957385198  13.764973501150424 13.286176871175183  C 13.808085543627502 13.179963784965166  13.829616707677294 13.066228537100859  13.828309677969594 12.95160672840053  C 13.827002648261892 12.8369849197002  13.802883121169224 12.723770506546078  13.75736031484166 12.618568115642564  C 13.711837508514098 12.51336572473905  13.645821971136122 12.418281229157607  13.563163955532065 12.338861330401208  C 13.563163955532065 12.338861330401208  10.364263796901264 9.139961171770409  10.364263796901264 9.139961171770409  C 10.364263796901264 9.139961171770409  10.364263796901264 4.322184793007694  10.364263796901264 4.322184793007694  C 10.366586987716799 4.206479321322018  10.345625267010167 4.091487437897519  10.302624654148973 3.9840439621054227  C 10.259624041287779 3.8766004863133263  10.195462312666013 3.778898314654467  10.113952507141507 3.696744163934557  C 10.032442701617 3.614590013214647  9.935248338171839 3.549660760203407  9.828146774140148 3.5058154803621795  Z " fill-rule="evenodd" />
    </mask>
  </defs>
  <g transform="matrix(1 0 0 1 -970 -1560 )">
    <path d="M 19 9.497409573423386  C 19 4.262609922164993  14.739115931015103 0  9.504316279756708 0  C 4.26865329020665 0  0 4.262609922164993  0 9.497409573423386  C 0 14.73220922468178  4.269516628498316 19  9.504316279756708 19  C 14.739115931015103 19  19 14.73220922468178  19 9.497409573423386  Z M 1.7268017406224339 9.497409573423386  C 1.7268017406224339 5.195946546222131  5.202853252555454 1.7268016376970294  9.504316279756708 1.7268016376970294  C 10.525164920083949 1.7250951702756108  11.536308415259064 1.9249358972456032  12.479755504710646 2.3148623330463267  C 13.423202594162227 2.7047887688470498  14.280391761932975 3.2771292812201134  15.00216156350233 3.9990595434948455  C 15.723931365071685 4.720989805769578  16.296082134461834 5.578305777638483  16.6857988597512 6.52183942735512  C 17.075515585040563 7.465373077071756  17.27513160735846 8.47656124187236  17.273198259377565 9.497409573423386  C 17.275243872439145 10.518533539207255  17.075741403377705 11.530022040337744  16.686128221045113 12.473896990695195  C 16.29651503871252 13.41777194105265  15.72445067519932 14.275474397814879  15.00272641812139 14.997840343326212  C 14.281002161043457 15.720206288837547  13.42380923649545 16.293033252402907  12.480280835974437 16.68348509666147  C 11.53675243545342 17.073936940920035  10.525441686496237 17.274336407694733  9.504316279756708 17.273198259377565  C 8.482752616645469 17.274447766348374  7.470974998054168 17.074186432100174  6.526912002982973 16.683880330214166  C 5.582849007911778 16.293574228328158  4.725042905267371 15.720889250358093  4.002607588033507 14.998614342366904  C 3.280172270799642 14.276339434375716  2.7072963662045146 13.418659672665143  2.316780656732552 12.47468334078441  C 1.9262649472605893 11.530707008903676  1.7257790713925247 10.518973442385436  1.7268017406224339 9.497409573423386  Z M 9.828146774140148 3.5058154803621795  C 9.721045210108453 3.461970200520952  9.60622222083965 3.4401038555698356  9.490502043686828 3.4415159217583176  C 9.37637939746623 3.4426342652777353  9.263610992253335 3.466367164145413  9.158718297458666 3.5113421628740134  C 9.053825602663997 3.556317161602614  8.958890053008316 3.621641516293373  8.87940262875383 3.7035376523230976  C 8.799915204499344 3.7854337883528224  8.737453443318481 3.8822766036465968  8.695628907590061 3.9884648140729486  C 8.653804371861641 4.094653024499301  8.633447337905551 4.20807960550881  8.6357353796955 4.322184793007694  C 8.6357353796955 4.322184793007694  8.6357353796955 9.497409573423386  8.6357353796955 9.497409573423386  C 8.6362124059261 9.611025183370817  8.65910921796292 9.723429573592725  8.703112819590965 9.828178886866302  C 8.74711642121901 9.932928200139878  8.811361403627217 10.027962320168735  8.892165378892898 10.107833797703867  C 8.892165378892898 10.107833797703867  12.345768860137767 13.563164778935299  12.345768860137767 13.563164778935299  C 12.425655139632612 13.645372142089256  12.521111691252258 13.710848385729063  12.62656994827814 13.755775263614712  C 12.732028205304026 13.800702141500361  12.845377238454196 13.8241796927927  12.960004617992036 13.824838209931768  C 13.074631997529876 13.825496727070835  13.188243342505864 13.803322947153351  13.294210816536916 13.75961067588231  C 13.400178290567974 13.71589840461127  13.496379115084968 13.65152190926766  13.57720462749151 13.570237812722048  C 13.65803013989805 13.488953716176438  13.721861458673347 13.392389957385198  13.764973501150424 13.286176871175183  C 13.808085543627502 13.179963784965166  13.829616707677294 13.066228537100859  13.828309677969594 12.95160672840053  C 13.827002648261892 12.8369849197002  13.802883121169224 12.723770506546078  13.75736031484166 12.618568115642564  C 13.711837508514098 12.51336572473905  13.645821971136122 12.418281229157607  13.563163955532065 12.338861330401208  C 13.563163955532065 12.338861330401208  10.364263796901264 9.139961171770409  10.364263796901264 9.139961171770409  C 10.364263796901264 9.139961171770409  10.364263796901264 4.322184793007694  10.364263796901264 4.322184793007694  C 10.366586987716799 4.206479321322018  10.345625267010167 4.091487437897519  10.302624654148973 3.9840439621054227  C 10.259624041287779 3.8766004863133263  10.195462312666013 3.778898314654467  10.113952507141507 3.696744163934557  C 10.032442701617 3.614590013214647  9.935248338171839 3.549660760203407  9.828146774140148 3.5058154803621795  Z " fill-rule="nonzero" fill="rgba(0, 0, 0, 1)" stroke="none" transform="matrix(1 0 0 1 970 1560 )" class="fill" />
    <path d="M 19 9.497409573423386  C 19 4.262609922164993  14.739115931015103 0  9.504316279756708 0  C 4.26865329020665 0  0 4.262609922164993  0 9.497409573423386  C 0 14.73220922468178  4.269516628498316 19  9.504316279756708 19  C 14.739115931015103 19  19 14.73220922468178  19 9.497409573423386  Z " stroke-width="0" stroke-dasharray="0" stroke="rgba(121, 121, 121, 1)" fill="none" transform="matrix(1 0 0 1 970 1560 )" class="stroke" mask="url(#Clip91)" />
    <path d="M 1.7268017406224339 9.497409573423386  C 1.7268017406224339 5.195946546222131  5.202853252555454 1.7268016376970294  9.504316279756708 1.7268016376970294  C 10.525164920083949 1.7250951702756108  11.536308415259064 1.9249358972456032  12.479755504710646 2.3148623330463267  C 13.423202594162227 2.7047887688470498  14.280391761932975 3.2771292812201134  15.00216156350233 3.9990595434948455  C 15.723931365071685 4.720989805769578  16.296082134461834 5.578305777638483  16.6857988597512 6.52183942735512  C 17.075515585040563 7.465373077071756  17.27513160735846 8.47656124187236  17.273198259377565 9.497409573423386  C 17.275243872439145 10.518533539207255  17.075741403377705 11.530022040337744  16.686128221045113 12.473896990695195  C 16.29651503871252 13.41777194105265  15.72445067519932 14.275474397814879  15.00272641812139 14.997840343326212  C 14.281002161043457 15.720206288837547  13.42380923649545 16.293033252402907  12.480280835974437 16.68348509666147  C 11.53675243545342 17.073936940920035  10.525441686496237 17.274336407694733  9.504316279756708 17.273198259377565  C 8.482752616645469 17.274447766348374  7.470974998054168 17.074186432100174  6.526912002982973 16.683880330214166  C 5.582849007911778 16.293574228328158  4.725042905267371 15.720889250358093  4.002607588033507 14.998614342366904  C 3.280172270799642 14.276339434375716  2.7072963662045146 13.418659672665143  2.316780656732552 12.47468334078441  C 1.9262649472605893 11.530707008903676  1.7257790713925247 10.518973442385436  1.7268017406224339 9.497409573423386  Z " stroke-width="0" stroke-dasharray="0" stroke="rgba(121, 121, 121, 1)" fill="none" transform="matrix(1 0 0 1 970 1560 )" class="stroke" mask="url(#Clip91)" />
    <path d="M 9.828146774140148 3.5058154803621795  C 9.721045210108453 3.461970200520952  9.60622222083965 3.4401038555698356  9.490502043686828 3.4415159217583176  C 9.37637939746623 3.4426342652777353  9.263610992253335 3.466367164145413  9.158718297458666 3.5113421628740134  C 9.053825602663997 3.556317161602614  8.958890053008316 3.621641516293373  8.87940262875383 3.7035376523230976  C 8.799915204499344 3.7854337883528224  8.737453443318481 3.8822766036465968  8.695628907590061 3.9884648140729486  C 8.653804371861641 4.094653024499301  8.633447337905551 4.20807960550881  8.6357353796955 4.322184793007694  C 8.6357353796955 4.322184793007694  8.6357353796955 9.497409573423386  8.6357353796955 9.497409573423386  C 8.6362124059261 9.611025183370817  8.65910921796292 9.723429573592725  8.703112819590965 9.828178886866302  C 8.74711642121901 9.932928200139878  8.811361403627217 10.027962320168735  8.892165378892898 10.107833797703867  C 8.892165378892898 10.107833797703867  12.345768860137767 13.563164778935299  12.345768860137767 13.563164778935299  C 12.425655139632612 13.645372142089256  12.521111691252258 13.710848385729063  12.62656994827814 13.755775263614712  C 12.732028205304026 13.800702141500361  12.845377238454196 13.8241796927927  12.960004617992036 13.824838209931768  C 13.074631997529876 13.825496727070835  13.188243342505864 13.803322947153351  13.294210816536916 13.75961067588231  C 13.400178290567974 13.71589840461127  13.496379115084968 13.65152190926766  13.57720462749151 13.570237812722048  C 13.65803013989805 13.488953716176438  13.721861458673347 13.392389957385198  13.764973501150424 13.286176871175183  C 13.808085543627502 13.179963784965166  13.829616707677294 13.066228537100859  13.828309677969594 12.95160672840053  C 13.827002648261892 12.8369849197002  13.802883121169224 12.723770506546078  13.75736031484166 12.618568115642564  C 13.711837508514098 12.51336572473905  13.645821971136122 12.418281229157607  13.563163955532065 12.338861330401208  C 13.563163955532065 12.338861330401208  10.364263796901264 9.139961171770409  10.364263796901264 9.139961171770409  C 10.364263796901264 9.139961171770409  10.364263796901264 4.322184793007694  10.364263796901264 4.322184793007694  C 10.366586987716799 4.206479321322018  10.345625267010167 4.091487437897519  10.302624654148973 3.9840439621054227  C 10.259624041287779 3.8766004863133263  10.195462312666013 3.778898314654467  10.113952507141507 3.696744163934557  C 10.032442701617 3.614590013214647  9.935248338171839 3.549660760203407  9.828146774140148 3.5058154803621795  Z " stroke-width="0" stroke-dasharray="0" stroke="rgba(121, 121, 121, 1)" fill="none" transform="matrix(1 0 0 1 970 1560 )" class="stroke" mask="url(#Clip91)" />
  </g>
</svg>