<?xml version="1.0" encoding="utf-8"?>
<svg version="1.1" xmlns:xlink="http://www.w3.org/1999/xlink" width="13px" height="16px" xmlns="http://www.w3.org/2000/svg">
  <defs>
    <pattern id="BGPattern" patternUnits="userSpaceOnUse" alignment="0 0" imageRepeat="None" />
    <mask fill="white" id="Clip98">
      <path d="M 10.747489661731828 11.493354038608297  C 10.218014533091281 10.40425647318717  9.94284087237402 9.20999745891668  9.942575689948914 8  C 9.94284087237402 6.790002541083321  10.218014533091281 5.595742298741954  10.747489661731828 4.506644733320828  C 11.276964790372373 3.417547167899701  12.047021861540351 2.461834678531469  13 1.7110697182999857  C 11.814841432030793 0.7832177565130484  10.39141155601538 0.2061305163792418  8.892425720785202 0.04577594212736466  C 7.393439885555026 -0.11457863212451248  5.879386620965754 0.14827042079746222  4.523341309046148 0.804276101853333  C 3.1672959971265424 1.4602817829092039  2.023978546753487 2.482972643800192  1.2240849787523393 3.755441965822174  C 0.42419141075119177 5.027911287844156  0 6.4988111762227465  0 8  C 0 9.501188823777253  0.42419141075119177 10.972089121512804  1.2240849787523393 12.244558443534785  C 2.023978546753487 13.517027765556769  3.1672959971265424 14.539719240483194  4.523341309046148 15.195724921539064  C 5.879386620965754 15.851730602594936  7.393439885555026 16.11457864171882  8.892425720785202 15.954224067466939  C 10.39141155601538 15.79386949321506  11.814841432030793 15.216782448165432  13 14.288930486378495  C 12.047021861540351 13.538165526147012  11.276964790372373 12.582451604029425  10.747489661731828 11.493354038608297  Z " fill-rule="evenodd" />
    </mask>
  </defs>
  <g transform="matrix(1 0 0 1 -877 -3898 )">
    <path d="M 10.747489661731828 11.493354038608297  C 10.218014533091281 10.40425647318717  9.94284087237402 9.20999745891668  9.942575689948914 8  C 9.94284087237402 6.790002541083321  10.218014533091281 5.595742298741954  10.747489661731828 4.506644733320828  C 11.276964790372373 3.417547167899701  12.047021861540351 2.461834678531469  13 1.7110697182999857  C 11.814841432030793 0.7832177565130484  10.39141155601538 0.2061305163792418  8.892425720785202 0.04577594212736466  C 7.393439885555026 -0.11457863212451248  5.879386620965754 0.14827042079746222  4.523341309046148 0.804276101853333  C 3.1672959971265424 1.4602817829092039  2.023978546753487 2.482972643800192  1.2240849787523393 3.755441965822174  C 0.42419141075119177 5.027911287844156  0 6.4988111762227465  0 8  C 0 9.501188823777253  0.42419141075119177 10.972089121512804  1.2240849787523393 12.244558443534785  C 2.023978546753487 13.517027765556769  3.1672959971265424 14.539719240483194  4.523341309046148 15.195724921539064  C 5.879386620965754 15.851730602594936  7.393439885555026 16.11457864171882  8.892425720785202 15.954224067466939  C 10.39141155601538 15.79386949321506  11.814841432030793 15.216782448165432  13 14.288930486378495  C 12.047021861540351 13.538165526147012  11.276964790372373 12.582451604029425  10.747489661731828 11.493354038608297  Z " fill-rule="nonzero" fill="rgba(235, 0, 27, 1)" stroke="none" transform="matrix(1 0 0 1 877 3898 )" class="fill" />
    <path d="M 10.747489661731828 11.493354038608297  C 10.218014533091281 10.40425647318717  9.94284087237402 9.20999745891668  9.942575689948914 8  C 9.94284087237402 6.790002541083321  10.218014533091281 5.595742298741954  10.747489661731828 4.506644733320828  C 11.276964790372373 3.417547167899701  12.047021861540351 2.461834678531469  13 1.7110697182999857  C 11.814841432030793 0.7832177565130484  10.39141155601538 0.2061305163792418  8.892425720785202 0.04577594212736466  C 7.393439885555026 -0.11457863212451248  5.879386620965754 0.14827042079746222  4.523341309046148 0.804276101853333  C 3.1672959971265424 1.4602817829092039  2.023978546753487 2.482972643800192  1.2240849787523393 3.755441965822174  C 0.42419141075119177 5.027911287844156  0 6.4988111762227465  0 8  C 0 9.501188823777253  0.42419141075119177 10.972089121512804  1.2240849787523393 12.244558443534785  C 2.023978546753487 13.517027765556769  3.1672959971265424 14.539719240483194  4.523341309046148 15.195724921539064  C 5.879386620965754 15.851730602594936  7.393439885555026 16.11457864171882  8.892425720785202 15.954224067466939  C 10.39141155601538 15.79386949321506  11.814841432030793 15.216782448165432  13 14.288930486378495  C 12.047021861540351 13.538165526147012  11.276964790372373 12.582451604029425  10.747489661731828 11.493354038608297  Z " stroke-width="0" stroke-dasharray="0" stroke="rgba(121, 121, 121, 1)" fill="none" transform="matrix(1 0 0 1 877 3898 )" class="stroke" mask="url(#Clip98)" />
  </g>
</svg>