<?xml version="1.0" encoding="utf-8"?>
<svg version="1.1" xmlns:xlink="http://www.w3.org/1999/xlink" width="8px" height="13px" xmlns="http://www.w3.org/2000/svg">
  <defs>
    <pattern id="BGPattern" patternUnits="userSpaceOnUse" alignment="0 0" imageRepeat="None" />
    <mask fill="white" id="Clip93">
      <path d="M 0.10333302570661236 12.60057652425944  C 0.1412831833721703 12.67952250404075  0.19681801193320025 12.750737801225485  0.2665548835835874 12.809884888734231  C 0.5610950785908968 13.0633720911659  1.0374502299267712 13.0633720911659  1.331263174558643 12.809884888734231  C 1.331263174558643 12.809884888734231  7.55878820329407 7.4385559085773805  7.55878820329407 7.4385559085773805  C 7.698188742561256 7.320156067306079  7.8091885334502225 7.177654034413414  7.885037481332159 7.019714791381394  C 7.960886429214095 6.861775548349374  8 6.6916993689926905  8 6.519827366955078  C 8.000000000000002 6.347955364917464  7.960886429214095 6.1778785657037485  7.885037481332159 6.019939322671728  C 7.8091885334502225 5.862000079639708  7.698188742561256 5.7194980467470415  7.55878820329407 5.60109820547574  C 7.55878820329407 5.60109820547574  1.2861730444086987 0.19012117424238448  1.2861730444086987 0.19012117424238448  C 1.1438143469415605 0.06919310077783473  0.955292178050936 0.0012235522547232114  0.7588931576130201 1.6358964306747854E-05  C 0.5624941371751042 -0.0011908343261097158  0.3729437198286677 0.06445484581103952  0.22873738723219353 0.18362150834532598  C 0.15729996041455307 0.24246966979929696  0.10014062543618985 0.31379809573541695  0.060799000515148326 0.3931898447343955  C 0.021457375594106813 0.4725815937333741  0.000771092570992077 0.5583462188101053  2.114889434349398E-05 0.6451728091081602  C -0.0007287947823050889 0.7319993994062151  0.018473568889861423 0.8180392555340597  0.056439134080919724 0.8979643382420606  C 0.09440469927197803 0.9778894209500617  0.15032512235856438 1.0499980386591004  0.2207375247322347 1.1098248090911855  C 0.2207375247322347 1.1098248090911855  5.961725745157458 6.060625498686904  5.961725745157458 6.060625498686904  C 6.031482903699167 6.119829583987005  6.08703133000426 6.191100174356247  6.1249897915322515 6.270099984846879  C 6.162948253060243 6.349099795337511  6.182523415320695 6.434176442060436  6.182523415320695 6.520152172041033  C 6.182523415320694 6.60612790202163  6.162948253060243 6.6912045487445555  6.1249897915322515 6.770204359235188  C 6.08703133000426 6.8492041697258195  6.031482903699167 6.920474760095063  5.961725745157458 6.979678845395163  C 5.961725745157458 6.979678845395163  0.2665548835835874 11.891481152197883  0.2665548835835874 11.891481152197883  C 0.19681801193320025 11.95062823970663  0.1412831833721703 12.021843536891364  0.10333302570661236 12.100789516672675  C 0.06538286804105442 12.179735496453986  0.04581175069629995 12.264759058233087  0.04581175069629986 12.350682400609024  C 0.04581175069629997 12.436605742984957  0.06538286804105442 12.521630544478127  0.10333302570661236 12.60057652425944  Z " fill-rule="evenodd" />
    </mask>
  </defs>
  <g transform="matrix(1 0 0 1 -161 -20 )">
    <path d="M 0.10333302570661236 12.60057652425944  C 0.1412831833721703 12.67952250404075  0.19681801193320025 12.750737801225485  0.2665548835835874 12.809884888734231  C 0.5610950785908968 13.0633720911659  1.0374502299267712 13.0633720911659  1.331263174558643 12.809884888734231  C 1.331263174558643 12.809884888734231  7.55878820329407 7.4385559085773805  7.55878820329407 7.4385559085773805  C 7.698188742561256 7.320156067306079  7.8091885334502225 7.177654034413414  7.885037481332159 7.019714791381394  C 7.960886429214095 6.861775548349374  8 6.6916993689926905  8 6.519827366955078  C 8.000000000000002 6.347955364917464  7.960886429214095 6.1778785657037485  7.885037481332159 6.019939322671728  C 7.8091885334502225 5.862000079639708  7.698188742561256 5.7194980467470415  7.55878820329407 5.60109820547574  C 7.55878820329407 5.60109820547574  1.2861730444086987 0.19012117424238448  1.2861730444086987 0.19012117424238448  C 1.1438143469415605 0.06919310077783473  0.955292178050936 0.0012235522547232114  0.7588931576130201 1.6358964306747854E-05  C 0.5624941371751042 -0.0011908343261097158  0.3729437198286677 0.06445484581103952  0.22873738723219353 0.18362150834532598  C 0.15729996041455307 0.24246966979929696  0.10014062543618985 0.31379809573541695  0.060799000515148326 0.3931898447343955  C 0.021457375594106813 0.4725815937333741  0.000771092570992077 0.5583462188101053  2.114889434349398E-05 0.6451728091081602  C -0.0007287947823050889 0.7319993994062151  0.018473568889861423 0.8180392555340597  0.056439134080919724 0.8979643382420606  C 0.09440469927197803 0.9778894209500617  0.15032512235856438 1.0499980386591004  0.2207375247322347 1.1098248090911855  C 0.2207375247322347 1.1098248090911855  5.961725745157458 6.060625498686904  5.961725745157458 6.060625498686904  C 6.031482903699167 6.119829583987005  6.08703133000426 6.191100174356247  6.1249897915322515 6.270099984846879  C 6.162948253060243 6.349099795337511  6.182523415320695 6.434176442060436  6.182523415320695 6.520152172041033  C 6.182523415320694 6.60612790202163  6.162948253060243 6.6912045487445555  6.1249897915322515 6.770204359235188  C 6.08703133000426 6.8492041697258195  6.031482903699167 6.920474760095063  5.961725745157458 6.979678845395163  C 5.961725745157458 6.979678845395163  0.2665548835835874 11.891481152197883  0.2665548835835874 11.891481152197883  C 0.19681801193320025 11.95062823970663  0.1412831833721703 12.021843536891364  0.10333302570661236 12.100789516672675  C 0.06538286804105442 12.179735496453986  0.04581175069629995 12.264759058233087  0.04581175069629986 12.350682400609024  C 0.04581175069629997 12.436605742984957  0.06538286804105442 12.521630544478127  0.10333302570661236 12.60057652425944  Z " fill-rule="nonzero" fill="rgba(0, 0, 0, 1)" stroke="none" transform="matrix(1 0 0 1 161 20 )" class="fill" />
    <path d="M 0.10333302570661236 12.60057652425944  C 0.1412831833721703 12.67952250404075  0.19681801193320025 12.750737801225485  0.2665548835835874 12.809884888734231  C 0.5610950785908968 13.0633720911659  1.0374502299267712 13.0633720911659  1.331263174558643 12.809884888734231  C 1.331263174558643 12.809884888734231  7.55878820329407 7.4385559085773805  7.55878820329407 7.4385559085773805  C 7.698188742561256 7.320156067306079  7.8091885334502225 7.177654034413414  7.885037481332159 7.019714791381394  C 7.960886429214095 6.861775548349374  8 6.6916993689926905  8 6.519827366955078  C 8.000000000000002 6.347955364917464  7.960886429214095 6.1778785657037485  7.885037481332159 6.019939322671728  C 7.8091885334502225 5.862000079639708  7.698188742561256 5.7194980467470415  7.55878820329407 5.60109820547574  C 7.55878820329407 5.60109820547574  1.2861730444086987 0.19012117424238448  1.2861730444086987 0.19012117424238448  C 1.1438143469415605 0.06919310077783473  0.955292178050936 0.0012235522547232114  0.7588931576130201 1.6358964306747854E-05  C 0.5624941371751042 -0.0011908343261097158  0.3729437198286677 0.06445484581103952  0.22873738723219353 0.18362150834532598  C 0.15729996041455307 0.24246966979929696  0.10014062543618985 0.31379809573541695  0.060799000515148326 0.3931898447343955  C 0.021457375594106813 0.4725815937333741  0.000771092570992077 0.5583462188101053  2.114889434349398E-05 0.6451728091081602  C -0.0007287947823050889 0.7319993994062151  0.018473568889861423 0.8180392555340597  0.056439134080919724 0.8979643382420606  C 0.09440469927197803 0.9778894209500617  0.15032512235856438 1.0499980386591004  0.2207375247322347 1.1098248090911855  C 0.2207375247322347 1.1098248090911855  5.961725745157458 6.060625498686904  5.961725745157458 6.060625498686904  C 6.031482903699167 6.119829583987005  6.08703133000426 6.191100174356247  6.1249897915322515 6.270099984846879  C 6.162948253060243 6.349099795337511  6.182523415320695 6.434176442060436  6.182523415320695 6.520152172041033  C 6.182523415320694 6.60612790202163  6.162948253060243 6.6912045487445555  6.1249897915322515 6.770204359235188  C 6.08703133000426 6.8492041697258195  6.031482903699167 6.920474760095063  5.961725745157458 6.979678845395163  C 5.961725745157458 6.979678845395163  0.2665548835835874 11.891481152197883  0.2665548835835874 11.891481152197883  C 0.19681801193320025 11.95062823970663  0.1412831833721703 12.021843536891364  0.10333302570661236 12.100789516672675  C 0.06538286804105442 12.179735496453986  0.04581175069629995 12.264759058233087  0.04581175069629986 12.350682400609024  C 0.04581175069629997 12.436605742984957  0.06538286804105442 12.521630544478127  0.10333302570661236 12.60057652425944  Z " stroke-width="0" stroke-dasharray="0" stroke="rgba(121, 121, 121, 1)" fill="none" transform="matrix(1 0 0 1 161 20 )" class="stroke" mask="url(#Clip93)" />
  </g>
</svg>