<?xml version="1.0" encoding="utf-8"?>
<svg version="1.1" xmlns:xlink="http://www.w3.org/1999/xlink" width="24px" height="24px" xmlns="http://www.w3.org/2000/svg">
  <defs>
    <pattern id="BGPattern" patternUnits="userSpaceOnUse" alignment="0 0" imageRepeat="None" />
    <mask fill="white" id="Clip92">
      <path d="M 24 11.996727882219016  C 24 5.384349375366307  18.61783064970329 0  12.005452142850583 0  C 5.3919831034189265 0  0 5.384349375366307  0 11.996727882219016  C 0 18.609106389071727  5.393073635997872 24  12.005452142850583 24  C 18.61783064970329 24  24 18.609106389071727  24 11.996727882219016  Z M 2.1812232513125482 11.996727882219016  C 2.1812232513125482 6.563300900491114  6.572025161122678 2.181223121301511  12.005452142850583 2.181223121301511  C 13.294945162211302 2.179067583506035  14.57217905085356 2.431497975468131  15.763901690160818 2.924036631216413  C 16.955624329468076 3.4165752869646955  18.0383895940206 4.139531723646459  18.950098817055576 5.051443633888226  C 19.86180804009055 5.9633555441299935  20.584524801425477 7.046280982280189  21.076798559685727 8.238112960869625  C 21.569072317945977 9.42994493945906  21.821218872452793 10.707235252891403  21.818776748687455 11.996727882219016  C 21.82136068097577 13.286568681103903  21.56935756216131 14.564238366742416  21.077214595004353 15.756501461930776  C 20.585071627847395 16.948764557119137  19.86246401077809 18.032178186713534  18.95081231762702 18.944640433675218  C 18.039160624475947 19.857102680636903  16.95639061452057 20.58067358198262  15.764565266494024 21.073875911572387  C 14.57273991846748 21.567078241162154  13.295294761889988 21.820214409719668  12.005452142850583 21.818776748687455  C 10.71505593681533 21.82035507328216  9.437021050173687 21.567393387916013  8.244520424820598 21.074375153954737  C 7.05201979946751 20.58135691999346  5.968475248758786 19.857965368873383  5.0559253743581145 18.945618116673987  C 4.143375499957443 18.03327086447459  3.4197427783635987 16.94988590231387  2.9264597769253293 15.757494746253993  C 2.4331767754870604 14.565103590194116  2.179931458601084 13.28712434827634  2.1812232513125482 11.996727882219016  Z M 12.414501188387554 4.428398501510122  C 12.279215002242257 4.373014990131729  12.134175436850086 4.345394343877688  11.988002581499153 4.34717800643156  C 11.843847659957346 4.3485906508771395  11.701403358635794 4.3785690494468374  11.568907323105684 4.435379574156649  C 11.436411287575574 4.49219009886646  11.316492698536821 4.574705073212682  11.21608753105747 4.678152823987071  C 11.115682363578118 4.781600574761461  11.036783296823346 4.903928341448334  10.983952304324289 5.0380608177763575  C 10.931121311825232 5.172193294104381  10.90540716367017 5.3154689753795505  10.908297321720633 5.459601843799193  C 10.908297321720633 5.459601843799193  10.908297321720633 11.996727882219016  10.908297321720633 11.996727882219016  C 10.908899881169813 12.140242336889454  10.937822170058423 12.282226829801338  10.993405666851745 12.41454175183112  C 11.048989163645066 12.546856673860901  11.130140720371223 12.666899772844719  11.23220889965419 12.767790060257518  C 11.23220889965419 12.767790060257518  15.594655402279283 17.1324186681288  15.594655402279283 17.1324186681288  C 15.695564386904351 17.23625954790222  15.816141083687068 17.318966381973556  15.949351513614497 17.37571612246069  C 16.08256194354193 17.432465862947826  16.225739669626357 17.462121717211836  16.370532149042575 17.462953528334868  C 16.515324628458792 17.4637853394579  16.658833695796883 17.435776354298973  16.79268734720453 17.38056085374608  C 16.92654099861218 17.325345353193185  17.048057829581015 17.244027674864412  17.150153213673487 17.14135302659627  C 17.25224859776596 17.03867837832813  17.33287763200844 16.916703104065515  17.38733494882159 16.78253920569497  C 17.44179226563474 16.648375307324425  17.468989525487114 16.504709731074772  17.467338540593175 16.359924288505933  C 17.465687555699237 16.215138845937094  17.43522078463481 16.072131166163466  17.377718292431574 15.9392439355485  C 17.320215800228336 15.806356704933538  17.236827753014047 15.68624997367277  17.132417628040503 15.585930101559423  C 17.132417628040503 15.585930101559423  13.091701638191072 11.54521411170999  13.091701638191072 11.54521411170999  C 13.091701638191072 11.54521411170999  13.091701638191072 5.459601843799193  13.091701638191072 5.459601843799193  C 13.094636195010697 5.313447563775181  13.068158232012845 5.1681946583968665  13.013841668398705 5.032476583712113  C 12.959525104784564 4.89675850902736  12.878478710736015 4.773345239563538  12.77551895638927 4.669571575496283  C 12.672559202042525 4.565797911429028  12.549787374532851 4.483782012888515  12.414501188387554 4.428398501510122  Z " fill-rule="evenodd" />
    </mask>
  </defs>
  <g transform="matrix(1 0 0 1 -929 -2535 )">
    <path d="M 24 11.996727882219016  C 24 5.384349375366307  18.61783064970329 0  12.005452142850583 0  C 5.3919831034189265 0  0 5.384349375366307  0 11.996727882219016  C 0 18.609106389071727  5.393073635997872 24  12.005452142850583 24  C 18.61783064970329 24  24 18.609106389071727  24 11.996727882219016  Z M 2.1812232513125482 11.996727882219016  C 2.1812232513125482 6.563300900491114  6.572025161122678 2.181223121301511  12.005452142850583 2.181223121301511  C 13.294945162211302 2.179067583506035  14.57217905085356 2.431497975468131  15.763901690160818 2.924036631216413  C 16.955624329468076 3.4165752869646955  18.0383895940206 4.139531723646459  18.950098817055576 5.051443633888226  C 19.86180804009055 5.9633555441299935  20.584524801425477 7.046280982280189  21.076798559685727 8.238112960869625  C 21.569072317945977 9.42994493945906  21.821218872452793 10.707235252891403  21.818776748687455 11.996727882219016  C 21.82136068097577 13.286568681103903  21.56935756216131 14.564238366742416  21.077214595004353 15.756501461930776  C 20.585071627847395 16.948764557119137  19.86246401077809 18.032178186713534  18.95081231762702 18.944640433675218  C 18.039160624475947 19.857102680636903  16.95639061452057 20.58067358198262  15.764565266494024 21.073875911572387  C 14.57273991846748 21.567078241162154  13.295294761889988 21.820214409719668  12.005452142850583 21.818776748687455  C 10.71505593681533 21.82035507328216  9.437021050173687 21.567393387916013  8.244520424820598 21.074375153954737  C 7.05201979946751 20.58135691999346  5.968475248758786 19.857965368873383  5.0559253743581145 18.945618116673987  C 4.143375499957443 18.03327086447459  3.4197427783635987 16.94988590231387  2.9264597769253293 15.757494746253993  C 2.4331767754870604 14.565103590194116  2.179931458601084 13.28712434827634  2.1812232513125482 11.996727882219016  Z M 12.414501188387554 4.428398501510122  C 12.279215002242257 4.373014990131729  12.134175436850086 4.345394343877688  11.988002581499153 4.34717800643156  C 11.843847659957346 4.3485906508771395  11.701403358635794 4.3785690494468374  11.568907323105684 4.435379574156649  C 11.436411287575574 4.49219009886646  11.316492698536821 4.574705073212682  11.21608753105747 4.678152823987071  C 11.115682363578118 4.781600574761461  11.036783296823346 4.903928341448334  10.983952304324289 5.0380608177763575  C 10.931121311825232 5.172193294104381  10.90540716367017 5.3154689753795505  10.908297321720633 5.459601843799193  C 10.908297321720633 5.459601843799193  10.908297321720633 11.996727882219016  10.908297321720633 11.996727882219016  C 10.908899881169813 12.140242336889454  10.937822170058423 12.282226829801338  10.993405666851745 12.41454175183112  C 11.048989163645066 12.546856673860901  11.130140720371223 12.666899772844719  11.23220889965419 12.767790060257518  C 11.23220889965419 12.767790060257518  15.594655402279283 17.1324186681288  15.594655402279283 17.1324186681288  C 15.695564386904351 17.23625954790222  15.816141083687068 17.318966381973556  15.949351513614497 17.37571612246069  C 16.08256194354193 17.432465862947826  16.225739669626357 17.462121717211836  16.370532149042575 17.462953528334868  C 16.515324628458792 17.4637853394579  16.658833695796883 17.435776354298973  16.79268734720453 17.38056085374608  C 16.92654099861218 17.325345353193185  17.048057829581015 17.244027674864412  17.150153213673487 17.14135302659627  C 17.25224859776596 17.03867837832813  17.33287763200844 16.916703104065515  17.38733494882159 16.78253920569497  C 17.44179226563474 16.648375307324425  17.468989525487114 16.504709731074772  17.467338540593175 16.359924288505933  C 17.465687555699237 16.215138845937094  17.43522078463481 16.072131166163466  17.377718292431574 15.9392439355485  C 17.320215800228336 15.806356704933538  17.236827753014047 15.68624997367277  17.132417628040503 15.585930101559423  C 17.132417628040503 15.585930101559423  13.091701638191072 11.54521411170999  13.091701638191072 11.54521411170999  C 13.091701638191072 11.54521411170999  13.091701638191072 5.459601843799193  13.091701638191072 5.459601843799193  C 13.094636195010697 5.313447563775181  13.068158232012845 5.1681946583968665  13.013841668398705 5.032476583712113  C 12.959525104784564 4.89675850902736  12.878478710736015 4.773345239563538  12.77551895638927 4.669571575496283  C 12.672559202042525 4.565797911429028  12.549787374532851 4.483782012888515  12.414501188387554 4.428398501510122  Z " fill-rule="nonzero" fill="rgba(0, 0, 0, 1)" stroke="none" transform="matrix(1 0 0 1 929 2535 )" class="fill" />
    <path d="M 24 11.996727882219016  C 24 5.384349375366307  18.61783064970329 0  12.005452142850583 0  C 5.3919831034189265 0  0 5.384349375366307  0 11.996727882219016  C 0 18.609106389071727  5.393073635997872 24  12.005452142850583 24  C 18.61783064970329 24  24 18.609106389071727  24 11.996727882219016  Z " stroke-width="0" stroke-dasharray="0" stroke="rgba(121, 121, 121, 1)" fill="none" transform="matrix(1 0 0 1 929 2535 )" class="stroke" mask="url(#Clip92)" />
    <path d="M 2.1812232513125482 11.996727882219016  C 2.1812232513125482 6.563300900491114  6.572025161122678 2.181223121301511  12.005452142850583 2.181223121301511  C 13.294945162211302 2.179067583506035  14.57217905085356 2.431497975468131  15.763901690160818 2.924036631216413  C 16.955624329468076 3.4165752869646955  18.0383895940206 4.139531723646459  18.950098817055576 5.051443633888226  C 19.86180804009055 5.9633555441299935  20.584524801425477 7.046280982280189  21.076798559685727 8.238112960869625  C 21.569072317945977 9.42994493945906  21.821218872452793 10.707235252891403  21.818776748687455 11.996727882219016  C 21.82136068097577 13.286568681103903  21.56935756216131 14.564238366742416  21.077214595004353 15.756501461930776  C 20.585071627847395 16.948764557119137  19.86246401077809 18.032178186713534  18.95081231762702 18.944640433675218  C 18.039160624475947 19.857102680636903  16.95639061452057 20.58067358198262  15.764565266494024 21.073875911572387  C 14.57273991846748 21.567078241162154  13.295294761889988 21.820214409719668  12.005452142850583 21.818776748687455  C 10.71505593681533 21.82035507328216  9.437021050173687 21.567393387916013  8.244520424820598 21.074375153954737  C 7.05201979946751 20.58135691999346  5.968475248758786 19.857965368873383  5.0559253743581145 18.945618116673987  C 4.143375499957443 18.03327086447459  3.4197427783635987 16.94988590231387  2.9264597769253293 15.757494746253993  C 2.4331767754870604 14.565103590194116  2.179931458601084 13.28712434827634  2.1812232513125482 11.996727882219016  Z " stroke-width="0" stroke-dasharray="0" stroke="rgba(121, 121, 121, 1)" fill="none" transform="matrix(1 0 0 1 929 2535 )" class="stroke" mask="url(#Clip92)" />
    <path d="M 12.414501188387554 4.428398501510122  C 12.279215002242257 4.373014990131729  12.134175436850086 4.345394343877688  11.988002581499153 4.34717800643156  C 11.843847659957346 4.3485906508771395  11.701403358635794 4.3785690494468374  11.568907323105684 4.435379574156649  C 11.436411287575574 4.49219009886646  11.316492698536821 4.574705073212682  11.21608753105747 4.678152823987071  C 11.115682363578118 4.781600574761461  11.036783296823346 4.903928341448334  10.983952304324289 5.0380608177763575  C 10.931121311825232 5.172193294104381  10.90540716367017 5.3154689753795505  10.908297321720633 5.459601843799193  C 10.908297321720633 5.459601843799193  10.908297321720633 11.996727882219016  10.908297321720633 11.996727882219016  C 10.908899881169813 12.140242336889454  10.937822170058423 12.282226829801338  10.993405666851745 12.41454175183112  C 11.048989163645066 12.546856673860901  11.130140720371223 12.666899772844719  11.23220889965419 12.767790060257518  C 11.23220889965419 12.767790060257518  15.594655402279283 17.1324186681288  15.594655402279283 17.1324186681288  C 15.695564386904351 17.23625954790222  15.816141083687068 17.318966381973556  15.949351513614497 17.37571612246069  C 16.08256194354193 17.432465862947826  16.225739669626357 17.462121717211836  16.370532149042575 17.462953528334868  C 16.515324628458792 17.4637853394579  16.658833695796883 17.435776354298973  16.79268734720453 17.38056085374608  C 16.92654099861218 17.325345353193185  17.048057829581015 17.244027674864412  17.150153213673487 17.14135302659627  C 17.25224859776596 17.03867837832813  17.33287763200844 16.916703104065515  17.38733494882159 16.78253920569497  C 17.44179226563474 16.648375307324425  17.468989525487114 16.504709731074772  17.467338540593175 16.359924288505933  C 17.465687555699237 16.215138845937094  17.43522078463481 16.072131166163466  17.377718292431574 15.9392439355485  C 17.320215800228336 15.806356704933538  17.236827753014047 15.68624997367277  17.132417628040503 15.585930101559423  C 17.132417628040503 15.585930101559423  13.091701638191072 11.54521411170999  13.091701638191072 11.54521411170999  C 13.091701638191072 11.54521411170999  13.091701638191072 5.459601843799193  13.091701638191072 5.459601843799193  C 13.094636195010697 5.313447563775181  13.068158232012845 5.1681946583968665  13.013841668398705 5.032476583712113  C 12.959525104784564 4.89675850902736  12.878478710736015 4.773345239563538  12.77551895638927 4.669571575496283  C 12.672559202042525 4.565797911429028  12.549787374532851 4.483782012888515  12.414501188387554 4.428398501510122  Z " stroke-width="0" stroke-dasharray="0" stroke="rgba(121, 121, 121, 1)" fill="none" transform="matrix(1 0 0 1 929 2535 )" class="stroke" mask="url(#Clip92)" />
  </g>
</svg>