<?xml version="1.0" encoding="utf-8"?>
<svg version="1.1" xmlns:xlink="http://www.w3.org/1999/xlink" width="13px" height="16px" xmlns="http://www.w3.org/2000/svg">
  <defs>
    <pattern id="BGPattern" patternUnits="userSpaceOnUse" alignment="0 0" imageRepeat="None" />
    <mask fill="white" id="Clip99">
      <path d="M 11.778281352895899 3.756589102689241  C 12.577710766099333 5.02894591452447  13.00109040327681 6.49948002117382  12.999997530735847 8  C 13.00109040327681 9.50051997882618  12.577710766099333 10.97105367600308  11.778281352895899 12.24341048783831  C 10.978851939692463 13.515767299673538  9.835650645405499 14.538573686665746  8.479430048247522 15.194849409852951  C 7.123209451089544 15.851125133040158  5.608728261532303 16.114371349233217  4.109202890507952 15.954479766789062  C 2.6096775194836015 15.794588184344907  1.1856528835718527 15.218013982869925  0 14.290703122544764  C 0.9542119441599339 13.539920902207024  1.7252485749654984 12.583982133898106  2.2553205203005486 11.494534515302856  C 2.7853924656355993 10.405086896707605  3.060748393442926 9.210392881649051  3.060748393442926 8  C 3.060748393442926 6.789607118350948  2.7853924656355993 5.594912693819945  2.2553205203005486 4.505465075224696  C 1.7252485749654984 3.416017456629446  0.9542119441599339 2.460077152798841  0 1.7092949324611024  C 1.1856528835718527 0.7819840721359425  2.6096775194836015 0.20541053605369083  4.109202890507952 0.045518953609535465  C 5.608728261532303 -0.11437262883461992  7.123209451089544 0.14887358735843892  8.479430048247522 0.8051493105456455  C 9.835650645405499 1.4614250337328523  10.978851939692463 2.4842322908540133  11.778281352895899 3.756589102689241  Z " fill-rule="evenodd" />
    </mask>
  </defs>
  <g transform="matrix(1 0 0 1 -890 -3898 )">
    <path d="M 11.778281352895899 3.756589102689241  C 12.577710766099333 5.02894591452447  13.00109040327681 6.49948002117382  12.999997530735847 8  C 13.00109040327681 9.50051997882618  12.577710766099333 10.97105367600308  11.778281352895899 12.24341048783831  C 10.978851939692463 13.515767299673538  9.835650645405499 14.538573686665746  8.479430048247522 15.194849409852951  C 7.123209451089544 15.851125133040158  5.608728261532303 16.114371349233217  4.109202890507952 15.954479766789062  C 2.6096775194836015 15.794588184344907  1.1856528835718527 15.218013982869925  0 14.290703122544764  C 0.9542119441599339 13.539920902207024  1.7252485749654984 12.583982133898106  2.2553205203005486 11.494534515302856  C 2.7853924656355993 10.405086896707605  3.060748393442926 9.210392881649051  3.060748393442926 8  C 3.060748393442926 6.789607118350948  2.7853924656355993 5.594912693819945  2.2553205203005486 4.505465075224696  C 1.7252485749654984 3.416017456629446  0.9542119441599339 2.460077152798841  0 1.7092949324611024  C 1.1856528835718527 0.7819840721359425  2.6096775194836015 0.20541053605369083  4.109202890507952 0.045518953609535465  C 5.608728261532303 -0.11437262883461992  7.123209451089544 0.14887358735843892  8.479430048247522 0.8051493105456455  C 9.835650645405499 1.4614250337328523  10.978851939692463 2.4842322908540133  11.778281352895899 3.756589102689241  Z " fill-rule="nonzero" fill="rgba(247, 158, 27, 1)" stroke="none" transform="matrix(1 0 0 1 890 3898 )" class="fill" />
    <path d="M 11.778281352895899 3.756589102689241  C 12.577710766099333 5.02894591452447  13.00109040327681 6.49948002117382  12.999997530735847 8  C 13.00109040327681 9.50051997882618  12.577710766099333 10.97105367600308  11.778281352895899 12.24341048783831  C 10.978851939692463 13.515767299673538  9.835650645405499 14.538573686665746  8.479430048247522 15.194849409852951  C 7.123209451089544 15.851125133040158  5.608728261532303 16.114371349233217  4.109202890507952 15.954479766789062  C 2.6096775194836015 15.794588184344907  1.1856528835718527 15.218013982869925  0 14.290703122544764  C 0.9542119441599339 13.539920902207024  1.7252485749654984 12.583982133898106  2.2553205203005486 11.494534515302856  C 2.7853924656355993 10.405086896707605  3.060748393442926 9.210392881649051  3.060748393442926 8  C 3.060748393442926 6.789607118350948  2.7853924656355993 5.594912693819945  2.2553205203005486 4.505465075224696  C 1.7252485749654984 3.416017456629446  0.9542119441599339 2.460077152798841  0 1.7092949324611024  C 1.1856528835718527 0.7819840721359425  2.6096775194836015 0.20541053605369083  4.109202890507952 0.045518953609535465  C 5.608728261532303 -0.11437262883461992  7.123209451089544 0.14887358735843892  8.479430048247522 0.8051493105456455  C 9.835650645405499 1.4614250337328523  10.978851939692463 2.4842322908540133  11.778281352895899 3.756589102689241  Z " stroke-width="0" stroke-dasharray="0" stroke="rgba(121, 121, 121, 1)" fill="none" transform="matrix(1 0 0 1 890 3898 )" class="stroke" mask="url(#Clip99)" />
  </g>
</svg>