<?xml version="1.0" encoding="utf-8"?>
<svg version="1.1" xmlns:xlink="http://www.w3.org/1999/xlink" width="5px" height="13px" xmlns="http://www.w3.org/2000/svg">
  <defs>
    <pattern id="BGPattern" patternUnits="userSpaceOnUse" alignment="0 0" imageRepeat="None" />
    <mask fill="white" id="Clip106">
      <path d="M 5 0.41081063723833555  C 4.999907939329087 0.13696688983747668  4.868999374577175 0  4.608191511359243 0  C 4.608191511359243 0  2.3795861765155397 0  2.3795861765155397 0  C 2.1581802761187867 0  2.0278232247731847 0.10763647070063898  1.9880530157959562 0.32290834283500364  C 1.9880530157959562 0.32290834283500364  0.030196168334367217 12.53052715582634  0.030196168334367217 12.53052715582634  C 0.030196168334367217 12.53052715582634  0 12.589187994100016  0 12.589187994100016  C 0 12.687495474533417  0.04023374660089421 12.779973472145892  0.12069477034280013 12.868055542395346  C 0.20060342622244193 12.955958221734768  0.3014060341098985 13  0.42172932905395083 13  C 0.42172932905395083 13  2.409782344849907 13  2.409782344849907 13  C 2.790729384049299 13  3.0016377627002377 12.814507724647386  3.0423285774649154 12.442535898415828  C 3.0423285774649154 12.442535898415828  5 0.43996176169916185  5 0.43996176169916185  C 5 0.43996176169916185  5 0.41081063723833555  5 0.41081063723833555  Z " fill-rule="evenodd" />
    </mask>
  </defs>
  <g transform="matrix(1 0 0 1 -1128 -3900 )">
    <path d="M 5 0.41081063723833555  C 4.999907939329087 0.13696688983747668  4.868999374577175 0  4.608191511359243 0  C 4.608191511359243 0  2.3795861765155397 0  2.3795861765155397 0  C 2.1581802761187867 0  2.0278232247731847 0.10763647070063898  1.9880530157959562 0.32290834283500364  C 1.9880530157959562 0.32290834283500364  0.030196168334367217 12.53052715582634  0.030196168334367217 12.53052715582634  C 0.030196168334367217 12.53052715582634  0 12.589187994100016  0 12.589187994100016  C 0 12.687495474533417  0.04023374660089421 12.779973472145892  0.12069477034280013 12.868055542395346  C 0.20060342622244193 12.955958221734768  0.3014060341098985 13  0.42172932905395083 13  C 0.42172932905395083 13  2.409782344849907 13  2.409782344849907 13  C 2.790729384049299 13  3.0016377627002377 12.814507724647386  3.0423285774649154 12.442535898415828  C 3.0423285774649154 12.442535898415828  5 0.43996176169916185  5 0.43996176169916185  C 5 0.43996176169916185  5 0.41081063723833555  5 0.41081063723833555  Z " fill-rule="nonzero" fill="rgba(0, 156, 222, 1)" stroke="none" transform="matrix(1 0 0 1 1128 3900 )" class="fill" />
    <path d="M 5 0.41081063723833555  C 4.999907939329087 0.13696688983747668  4.868999374577175 0  4.608191511359243 0  C 4.608191511359243 0  2.3795861765155397 0  2.3795861765155397 0  C 2.1581802761187867 0  2.0278232247731847 0.10763647070063898  1.9880530157959562 0.32290834283500364  C 1.9880530157959562 0.32290834283500364  0.030196168334367217 12.53052715582634  0.030196168334367217 12.53052715582634  C 0.030196168334367217 12.53052715582634  0 12.589187994100016  0 12.589187994100016  C 0 12.687495474533417  0.04023374660089421 12.779973472145892  0.12069477034280013 12.868055542395346  C 0.20060342622244193 12.955958221734768  0.3014060341098985 13  0.42172932905395083 13  C 0.42172932905395083 13  2.409782344849907 13  2.409782344849907 13  C 2.790729384049299 13  3.0016377627002377 12.814507724647386  3.0423285774649154 12.442535898415828  C 3.0423285774649154 12.442535898415828  5 0.43996176169916185  5 0.43996176169916185  C 5 0.43996176169916185  5 0.41081063723833555  5 0.41081063723833555  Z " stroke-width="0" stroke-dasharray="0" stroke="rgba(121, 121, 121, 1)" fill="none" transform="matrix(1 0 0 1 1128 3900 )" class="stroke" mask="url(#Clip106)" />
  </g>
</svg>