<?xml version="1.0" encoding="utf-8"?>
<svg version="1.1" xmlns:xlink="http://www.w3.org/1999/xlink" width="50px" height="13px" xmlns="http://www.w3.org/2000/svg">
  <defs>
    <pattern id="BGPattern" patternUnits="userSpaceOnUse" alignment="0 0" imageRepeat="None" />
    <mask fill="white" id="Clip94">
      <path d="M 24.22577123534022 0.2244099009610134  L 21.675469551884362 12.783315114360569  L 17.595572750831696 12.783315114360569  L 20.145455482789473 0.2244099009610134  L 24.22577123534022 0.2244099009610134  Z M 18.55424251394437 0.2244099009610134  L 14.163314201854543 0.2244099009610134  L 10.273726118805179 8.862521264641513  L 9.813464723772165 7.0024021639191  L 9.813883675270246 7.0030736815084325  C 9.813883675270246 7.0030736815084325  8.441063566263544 1.3551955420380164  8.441063566263544 1.3551955420380164  C 8.441063566263544 1.3551955420380164  8.275067427205418 0.2244099009610134  6.505701130363123 0.2244099009610134  C 6.505701130363123 0.2244099009610134  0.07545284499408607 0.2244099009610134  0.07545284499408607 0.2244099009610134  C 0.07545284499408607 0.2244099009610134  0 0.437061836498085  0 0.437061836498085  C 0 0.437061836498085  1.9663816367993696 0.7649421535703157  4.267689411490196 1.8725473022135732  C 4.267689411490196 1.8725473022135732  7.81229092401384 12.783650873155237  7.81229092401384 12.783650873155237  L 12.063213480797438 12.783650873155237  L 18.55424251394437 0.2244099009610134  Z M 45.77590712913454 10.917821309879244  L 46.253774081396074 12.783315114360569  L 50 12.783315114360569  L 46.73373579114801 0.22407414216634608  C 46.73373579114801 0.22407414216634608  43.45405873815135 0.22407414216634608  43.45405873815135 0.22407414216634608  C 41.9395550690317 0.22407414216634608  41.57067666999184 1.1600120344784655  41.57067666999184 1.1600120344784655  C 41.57067666999184 1.1600120344784655  35.48583150806933 12.783315114360569  35.48583150806933 12.783315114360569  L 39.73885122092061 12.783315114360569  L 40.58937073357065 10.917821309879244  L 45.77590712913454 10.917821309879244  Z M 45.11401812991821 8.340800795568931  L 41.764337799505554 8.340800795568931  L 43.90803266261011 3.640952991107124  L 45.11401812991821 8.340800795568931  Z M 30.085095765276638 3.711166306378224  C 30.085514947058044 2.2911337547306645  34.05893747311994 2.473549777818567  35.80482949377611 3.244539754639775  C 35.80482949377611 3.244539754639775  36.387072934914514 0.5475867114831381  36.387072934914514 0.5475867114831381  C 36.387072934914514 0.5475867114831381  34.59046079899615 0  32.71755671579891 0  C 30.692908839735892 0  25.88489272411091 0.7091760778857877  25.88489272411091 4.157634515215462  C 25.88489272411091 7.402175230996825  31.52791995122509 7.442489033374483  31.52791995122509 9.146729550628354  C 31.52791995122509 10.850970067882226  26.46629796243099 10.545596322800437  24.795858686828193 9.470913637534482  C 24.795858686828193 9.470913637534482  24.189303266388936 12.290823601733681  24.189303266388936 12.290823601733681  C 24.189303266388936 12.290823601733681  26.01106728341871 12.999999999999998  28.794434123810596 12.999999999999998  C 31.57863946684297 12.999999999999998  35.77884170848293 11.844689549788463  35.77884170848293 8.700260060268999  C 35.77884170848293 5.434890765519208  30.085095765276638 5.130862778850587  30.085095765276638 3.711166306378224  Z " fill-rule="evenodd" />
    </mask>
  </defs>
  <g transform="matrix(1 0 0 1 -786 -3901 )">
    <path d="M 24.22577123534022 0.2244099009610134  L 21.675469551884362 12.783315114360569  L 17.595572750831696 12.783315114360569  L 20.145455482789473 0.2244099009610134  L 24.22577123534022 0.2244099009610134  Z M 18.55424251394437 0.2244099009610134  L 14.163314201854543 0.2244099009610134  L 10.273726118805179 8.862521264641513  L 9.813464723772165 7.0024021639191  L 9.813883675270246 7.0030736815084325  C 9.813883675270246 7.0030736815084325  8.441063566263544 1.3551955420380164  8.441063566263544 1.3551955420380164  C 8.441063566263544 1.3551955420380164  8.275067427205418 0.2244099009610134  6.505701130363123 0.2244099009610134  C 6.505701130363123 0.2244099009610134  0.07545284499408607 0.2244099009610134  0.07545284499408607 0.2244099009610134  C 0.07545284499408607 0.2244099009610134  0 0.437061836498085  0 0.437061836498085  C 0 0.437061836498085  1.9663816367993696 0.7649421535703157  4.267689411490196 1.8725473022135732  C 4.267689411490196 1.8725473022135732  7.81229092401384 12.783650873155237  7.81229092401384 12.783650873155237  L 12.063213480797438 12.783650873155237  L 18.55424251394437 0.2244099009610134  Z M 45.77590712913454 10.917821309879244  L 46.253774081396074 12.783315114360569  L 50 12.783315114360569  L 46.73373579114801 0.22407414216634608  C 46.73373579114801 0.22407414216634608  43.45405873815135 0.22407414216634608  43.45405873815135 0.22407414216634608  C 41.9395550690317 0.22407414216634608  41.57067666999184 1.1600120344784655  41.57067666999184 1.1600120344784655  C 41.57067666999184 1.1600120344784655  35.48583150806933 12.783315114360569  35.48583150806933 12.783315114360569  L 39.73885122092061 12.783315114360569  L 40.58937073357065 10.917821309879244  L 45.77590712913454 10.917821309879244  Z M 45.11401812991821 8.340800795568931  L 41.764337799505554 8.340800795568931  L 43.90803266261011 3.640952991107124  L 45.11401812991821 8.340800795568931  Z M 30.085095765276638 3.711166306378224  C 30.085514947058044 2.2911337547306645  34.05893747311994 2.473549777818567  35.80482949377611 3.244539754639775  C 35.80482949377611 3.244539754639775  36.387072934914514 0.5475867114831381  36.387072934914514 0.5475867114831381  C 36.387072934914514 0.5475867114831381  34.59046079899615 0  32.71755671579891 0  C 30.692908839735892 0  25.88489272411091 0.7091760778857877  25.88489272411091 4.157634515215462  C 25.88489272411091 7.402175230996825  31.52791995122509 7.442489033374483  31.52791995122509 9.146729550628354  C 31.52791995122509 10.850970067882226  26.46629796243099 10.545596322800437  24.795858686828193 9.470913637534482  C 24.795858686828193 9.470913637534482  24.189303266388936 12.290823601733681  24.189303266388936 12.290823601733681  C 24.189303266388936 12.290823601733681  26.01106728341871 12.999999999999998  28.794434123810596 12.999999999999998  C 31.57863946684297 12.999999999999998  35.77884170848293 11.844689549788463  35.77884170848293 8.700260060268999  C 35.77884170848293 5.434890765519208  30.085095765276638 5.130862778850587  30.085095765276638 3.711166306378224  Z " fill-rule="nonzero" fill="rgba(37, 102, 175, 1)" stroke="none" transform="matrix(1 0 0 1 786 3901 )" class="fill" />
    <path d="M 24.22577123534022 0.2244099009610134  L 21.675469551884362 12.783315114360569  L 17.595572750831696 12.783315114360569  L 20.145455482789473 0.2244099009610134  L 24.22577123534022 0.2244099009610134  Z " stroke-width="0" stroke-dasharray="0" stroke="rgba(121, 121, 121, 1)" fill="none" transform="matrix(1 0 0 1 786 3901 )" class="stroke" mask="url(#Clip94)" />
    <path d="M 18.55424251394437 0.2244099009610134  L 14.163314201854543 0.2244099009610134  L 10.273726118805179 8.862521264641513  L 9.813464723772165 7.0024021639191  L 9.813883675270246 7.0030736815084325  C 9.813883675270246 7.0030736815084325  8.441063566263544 1.3551955420380164  8.441063566263544 1.3551955420380164  C 8.441063566263544 1.3551955420380164  8.275067427205418 0.2244099009610134  6.505701130363123 0.2244099009610134  C 6.505701130363123 0.2244099009610134  0.07545284499408607 0.2244099009610134  0.07545284499408607 0.2244099009610134  C 0.07545284499408607 0.2244099009610134  0 0.437061836498085  0 0.437061836498085  C 0 0.437061836498085  1.9663816367993696 0.7649421535703157  4.267689411490196 1.8725473022135732  C 4.267689411490196 1.8725473022135732  7.81229092401384 12.783650873155237  7.81229092401384 12.783650873155237  L 12.063213480797438 12.783650873155237  L 18.55424251394437 0.2244099009610134  Z " stroke-width="0" stroke-dasharray="0" stroke="rgba(121, 121, 121, 1)" fill="none" transform="matrix(1 0 0 1 786 3901 )" class="stroke" mask="url(#Clip94)" />
    <path d="M 45.77590712913454 10.917821309879244  L 46.253774081396074 12.783315114360569  L 50 12.783315114360569  L 46.73373579114801 0.22407414216634608  C 46.73373579114801 0.22407414216634608  43.45405873815135 0.22407414216634608  43.45405873815135 0.22407414216634608  C 41.9395550690317 0.22407414216634608  41.57067666999184 1.1600120344784655  41.57067666999184 1.1600120344784655  C 41.57067666999184 1.1600120344784655  35.48583150806933 12.783315114360569  35.48583150806933 12.783315114360569  L 39.73885122092061 12.783315114360569  L 40.58937073357065 10.917821309879244  L 45.77590712913454 10.917821309879244  Z " stroke-width="0" stroke-dasharray="0" stroke="rgba(121, 121, 121, 1)" fill="none" transform="matrix(1 0 0 1 786 3901 )" class="stroke" mask="url(#Clip94)" />
    <path d="M 45.11401812991821 8.340800795568931  L 41.764337799505554 8.340800795568931  L 43.90803266261011 3.640952991107124  L 45.11401812991821 8.340800795568931  Z " stroke-width="0" stroke-dasharray="0" stroke="rgba(121, 121, 121, 1)" fill="none" transform="matrix(1 0 0 1 786 3901 )" class="stroke" mask="url(#Clip94)" />
    <path d="M 30.085095765276638 3.711166306378224  C 30.085514947058044 2.2911337547306645  34.05893747311994 2.473549777818567  35.80482949377611 3.244539754639775  C 35.80482949377611 3.244539754639775  36.387072934914514 0.5475867114831381  36.387072934914514 0.5475867114831381  C 36.387072934914514 0.5475867114831381  34.59046079899615 0  32.71755671579891 0  C 30.692908839735892 0  25.88489272411091 0.7091760778857877  25.88489272411091 4.157634515215462  C 25.88489272411091 7.402175230996825  31.52791995122509 7.442489033374483  31.52791995122509 9.146729550628354  C 31.52791995122509 10.850970067882226  26.46629796243099 10.545596322800437  24.795858686828193 9.470913637534482  C 24.795858686828193 9.470913637534482  24.189303266388936 12.290823601733681  24.189303266388936 12.290823601733681  C 24.189303266388936 12.290823601733681  26.01106728341871 12.999999999999998  28.794434123810596 12.999999999999998  C 31.57863946684297 12.999999999999998  35.77884170848293 11.844689549788463  35.77884170848293 8.700260060268999  C 35.77884170848293 5.434890765519208  30.085095765276638 5.130862778850587  30.085095765276638 3.711166306378224  Z " stroke-width="0" stroke-dasharray="0" stroke="rgba(121, 121, 121, 1)" fill="none" transform="matrix(1 0 0 1 786 3901 )" class="stroke" mask="url(#Clip94)" />
  </g>
</svg>