<?xml version="1.0" encoding="utf-8"?>
<svg version="1.1" xmlns:xlink="http://www.w3.org/1999/xlink" width="13px" height="7px" xmlns="http://www.w3.org/2000/svg">
  <defs>
    <pattern id="BGPattern" patternUnits="userSpaceOnUse" alignment="0 0" imageRepeat="None" />
    <mask fill="white" id="Clip103">
      <path d="M 0 2.2058814663978406  C 1.3785480325663244 5.049165304673422  4.178125331879511 7  7.415422527147056 7  C 9.566957000514387 7  11.521913266967818 6.132132776758143  13 4.720807014488482  C 13 4.720807014488482  10.421989968179897 2.4214219209463397  10.421989968179897 2.4214219209463397  C 9.585698622179873 3.089112925846166  8.546165081466528 3.4881473096167888  7.415422527147056 3.4881473096167888  C 5.248894677010126 3.4881473096167888  3.409303386970562 2.032045845027497  2.7162810264949995 0  C 2.7162810264949995 0  0 2.2058814663978406  0 2.2058814663978406  Z " fill-rule="evenodd" />
    </mask>
  </defs>
  <g transform="matrix(1 0 0 1 -1018 -3910 )">
    <path d="M 0 2.2058814663978406  C 1.3785480325663244 5.049165304673422  4.178125331879511 7  7.415422527147056 7  C 9.566957000514387 7  11.521913266967818 6.132132776758143  13 4.720807014488482  C 13 4.720807014488482  10.421989968179897 2.4214219209463397  10.421989968179897 2.4214219209463397  C 9.585698622179873 3.089112925846166  8.546165081466528 3.4881473096167888  7.415422527147056 3.4881473096167888  C 5.248894677010126 3.4881473096167888  3.409303386970562 2.032045845027497  2.7162810264949995 0  C 2.7162810264949995 0  0 2.2058814663978406  0 2.2058814663978406  Z " fill-rule="nonzero" fill="rgba(76, 175, 80, 1)" stroke="none" transform="matrix(1 0 0 1 1018 3910 )" class="fill" />
    <path d="M 0 2.2058814663978406  C 1.3785480325663244 5.049165304673422  4.178125331879511 7  7.415422527147056 7  C 9.566957000514387 7  11.521913266967818 6.132132776758143  13 4.720807014488482  C 13 4.720807014488482  10.421989968179897 2.4214219209463397  10.421989968179897 2.4214219209463397  C 9.585698622179873 3.089112925846166  8.546165081466528 3.4881473096167888  7.415422527147056 3.4881473096167888  C 5.248894677010126 3.4881473096167888  3.409303386970562 2.032045845027497  2.7162810264949995 0  C 2.7162810264949995 0  0 2.2058814663978406  0 2.2058814663978406  Z " stroke-width="0" stroke-dasharray="0" stroke="rgba(121, 121, 121, 1)" fill="none" transform="matrix(1 0 0 1 1018 3910 )" class="stroke" mask="url(#Clip103)" />
  </g>
</svg>