<?xml version="1.0" encoding="utf-8"?>
<svg version="1.1" xmlns:xlink="http://www.w3.org/1999/xlink" width="11px" height="11px" xmlns="http://www.w3.org/2000/svg">
  <defs>
    <pattern id="BGPattern" patternUnits="userSpaceOnUse" alignment="0 0" imageRepeat="None" />
    <mask fill="white" id="Clip107">
      <path d="M 10.940428195081912 0.5789070349937884  C 10.980081328512924 0.5424198554674111  11 0.47837825839269044  11 0.38593845192825155  C 11 0.29425703475708487  10.959890052715464 0.20678869276390754  10.880675151347084 0.12420800738374874  C 10.8007293151378 0.04154305708463139  10.710915210516806 0  10.611599639144643 0  C 10.611599639144643 0  8.309891761136871 0  8.309891761136871 0  C 8.090246282560567 0  7.910984188798503 0.09235521507354061  7.771832750285102 0.2756337694289798  C 7.771832750285102 0.2756337694289798  4.603329319041405 4.576571325974832  4.603329319041405 4.576571325974832  C 4.603329319041405 4.576571325974832  3.2881043205559544 0.4412161584027313  3.2881043205559544 0.4412161584027313  C 3.188057814342885 0.14738060394244115  2.9690527274414076 0  2.63053922223453 0  C 2.63053922223453 0  0.3883083473022412 0  0.3883083473022412 0  C 0.28844457207645946 0  0.19881579068063665 0.041458792165672845  0.11960088931225825 0.12420800738374874  C 0.03965505310297329 0.20678869276390754  0 0.2943413046986886  0 0.38593845192825155  C 0 0.4230154934213064  0.19433950776804773 0.964929626274868  0.5828305751658208 2.012524599637826  C 0.9713216425635939 3.0603723928708857  1.3897801126392908 4.190716129413849  1.8382077280738418 5.403809513122377  C 2.286635343508393 6.616650076960805  2.520624315547212 7.260274709361619  2.5406336159729443 7.333333333333333  C 0.9064493864622459 9.391951833102588  0.0896323538917297 10.494741227436887  0.0896323538917297 10.641532604777273  C 0.0896323538917297 10.880679528685782  0.21900672066484989 11  0.47821395356382684 11  C 0.47821395356382684 11  2.779924619861087 11  2.779924619861087 11  C 2.999021894583773 11  3.1782812000563485 10.908319506995554  3.317980842423368 10.72445109318476  C 3.317980842423368 10.72445109318476  10.940428195081912 0.5789070349937884  10.940428195081912 0.5789070349937884  Z " fill-rule="evenodd" />
    </mask>
  </defs>
  <g transform="matrix(1 0 0 1 -1096 -3904 )">
    <path d="M 10.940428195081912 0.5789070349937884  C 10.980081328512924 0.5424198554674111  11 0.47837825839269044  11 0.38593845192825155  C 11 0.29425703475708487  10.959890052715464 0.20678869276390754  10.880675151347084 0.12420800738374874  C 10.8007293151378 0.04154305708463139  10.710915210516806 0  10.611599639144643 0  C 10.611599639144643 0  8.309891761136871 0  8.309891761136871 0  C 8.090246282560567 0  7.910984188798503 0.09235521507354061  7.771832750285102 0.2756337694289798  C 7.771832750285102 0.2756337694289798  4.603329319041405 4.576571325974832  4.603329319041405 4.576571325974832  C 4.603329319041405 4.576571325974832  3.2881043205559544 0.4412161584027313  3.2881043205559544 0.4412161584027313  C 3.188057814342885 0.14738060394244115  2.9690527274414076 0  2.63053922223453 0  C 2.63053922223453 0  0.3883083473022412 0  0.3883083473022412 0  C 0.28844457207645946 0  0.19881579068063665 0.041458792165672845  0.11960088931225825 0.12420800738374874  C 0.03965505310297329 0.20678869276390754  0 0.2943413046986886  0 0.38593845192825155  C 0 0.4230154934213064  0.19433950776804773 0.964929626274868  0.5828305751658208 2.012524599637826  C 0.9713216425635939 3.0603723928708857  1.3897801126392908 4.190716129413849  1.8382077280738418 5.403809513122377  C 2.286635343508393 6.616650076960805  2.520624315547212 7.260274709361619  2.5406336159729443 7.333333333333333  C 0.9064493864622459 9.391951833102588  0.0896323538917297 10.494741227436887  0.0896323538917297 10.641532604777273  C 0.0896323538917297 10.880679528685782  0.21900672066484989 11  0.47821395356382684 11  C 0.47821395356382684 11  2.779924619861087 11  2.779924619861087 11  C 2.999021894583773 11  3.1782812000563485 10.908319506995554  3.317980842423368 10.72445109318476  C 3.317980842423368 10.72445109318476  10.940428195081912 0.5789070349937884  10.940428195081912 0.5789070349937884  Z " fill-rule="nonzero" fill="rgba(0, 48, 135, 1)" stroke="none" transform="matrix(1 0 0 1 1096 3904 )" class="fill" />
    <path d="M 10.940428195081912 0.5789070349937884  C 10.980081328512924 0.5424198554674111  11 0.47837825839269044  11 0.38593845192825155  C 11 0.29425703475708487  10.959890052715464 0.20678869276390754  10.880675151347084 0.12420800738374874  C 10.8007293151378 0.04154305708463139  10.710915210516806 0  10.611599639144643 0  C 10.611599639144643 0  8.309891761136871 0  8.309891761136871 0  C 8.090246282560567 0  7.910984188798503 0.09235521507354061  7.771832750285102 0.2756337694289798  C 7.771832750285102 0.2756337694289798  4.603329319041405 4.576571325974832  4.603329319041405 4.576571325974832  C 4.603329319041405 4.576571325974832  3.2881043205559544 0.4412161584027313  3.2881043205559544 0.4412161584027313  C 3.188057814342885 0.14738060394244115  2.9690527274414076 0  2.63053922223453 0  C 2.63053922223453 0  0.3883083473022412 0  0.3883083473022412 0  C 0.28844457207645946 0  0.19881579068063665 0.041458792165672845  0.11960088931225825 0.12420800738374874  C 0.03965505310297329 0.20678869276390754  0 0.2943413046986886  0 0.38593845192825155  C 0 0.4230154934213064  0.19433950776804773 0.964929626274868  0.5828305751658208 2.012524599637826  C 0.9713216425635939 3.0603723928708857  1.3897801126392908 4.190716129413849  1.8382077280738418 5.403809513122377  C 2.286635343508393 6.616650076960805  2.520624315547212 7.260274709361619  2.5406336159729443 7.333333333333333  C 0.9064493864622459 9.391951833102588  0.0896323538917297 10.494741227436887  0.0896323538917297 10.641532604777273  C 0.0896323538917297 10.880679528685782  0.21900672066484989 11  0.47821395356382684 11  C 0.47821395356382684 11  2.779924619861087 11  2.779924619861087 11  C 2.999021894583773 11  3.1782812000563485 10.908319506995554  3.317980842423368 10.72445109318476  C 3.317980842423368 10.72445109318476  10.940428195081912 0.5789070349937884  10.940428195081912 0.5789070349937884  Z " stroke-width="0" stroke-dasharray="0" stroke="rgba(121, 121, 121, 1)" fill="none" transform="matrix(1 0 0 1 1096 3904 )" class="stroke" mask="url(#Clip107)" />
  </g>
</svg>