<?xml version="1.0" encoding="utf-8"?>
<svg version="1.1" xmlns:xlink="http://www.w3.org/1999/xlink" width="11px" height="9px" xmlns="http://www.w3.org/2000/svg">
  <defs>
    <pattern id="BGPattern" patternUnits="userSpaceOnUse" alignment="0 0" imageRepeat="None" />
    <mask fill="white" id="Clip109">
      <path d="M 10.906098882700677 0.3483868609097441  C 10.827657129389921 0.2517510209248311  10.729716140034125 0.2032111129699861  10.612367999881341 0.2032111129699861  C 10.612367999881341 0.2032111129699861  8.378171696891139 0.2032111129699861  8.378171696891139 0.2032111129699861  C 8.1034009277829 0.2032111129699861  7.937173762299169 0.5226688115108762  7.878319988348572 1.161405983518064  C 7.349175123704491 0.3875206358947293  6.41820644084112 0  5.085595175351922 0  C 3.6745421458406446 0  2.474014695343785 0.522668980765458  1.4844626137573715 1.5678268554213821  C 0.49464094958134075 2.612984730077306  0 3.8422724639194366  0 5.254983757578092  C 0 6.397132462547345  0.3381166793270615 7.306699687796758  1.0142612196867986 7.983860484877516  C 1.6904057600465356 8.661731177987816  2.596574944084554 9  3.733396326821534 9  C 4.28185962037013 9  4.850539037422357 8.883664746185078  5.438357961431508 8.651614493126909  C 6.026266774867392 8.419386755482945  6.496648590470845 8.109868616883151  6.849411847848664 7.722615360913957  C 6.770790390663702 7.9548430985579195  6.731793632385384 8.15814112375564  6.731793632385384 8.332156625331438  C 6.731793632385384 8.642207704295545  6.859116007014288 8.796612862264983  7.113939378302632 8.796612862264983  C 7.113939378302632 8.796612862264983  9.142282210203934 8.796612862264983  9.142282210203934 8.796612862264983  C 9.514363853640974 8.796612862264983  9.730190830835998 8.613102686416243  9.789044604786595 8.245105608841076  C 9.789044604786595 8.245105608841076  10.994243649065446 0.6677553622860471  10.994243649065446 0.6677553622860471  C 11.013562064580803 0.5515971276068214  10.984271074844465 0.4452889171949415  10.906098882700677 0.3483868609097441  Z M 7.525644949431023 4.151881238347762  C 7.525644949431023 4.867998050789012  7.275764639707224 5.463341352301981  6.776001749459042 5.937025560601264  C 6.276148969784127 6.4117746341016835  5.663440143379362 6.6483524683787305  4.938774978572679 6.6483524683787305  C 4.370094747459866 6.6483524683787305  3.9144492922206724 6.493769846980317  3.571749601756888 6.183896231445184  C 3.2286006355406043 5.874732533096417  3.057250972401212 5.4488791406817  3.057250972401212 4.9065115923591405  C 3.057250972401212 4.190838480803973  3.302101373149605 3.5855536306085702  3.792249993658897 3.0920808113146916  C 4.281859491834248 2.5985192603063254  4.889445820583353 2.351739606113746  5.61482984373215 2.351739606113746  C 6.163293137280747 2.351739606113746  6.618938571097294 2.5114672071316506  6.981855220547942 2.8306583085494474  C 7.3441429010832096 3.1501156262675285  7.525644949431023 3.590523706774636  7.525644949431023 4.151881238347762  Z " fill-rule="evenodd" />
    </mask>
  </defs>
  <g transform="matrix(1 0 0 1 -1085 -3904 )">
    <path d="M 10.906098882700677 0.3483868609097441  C 10.827657129389921 0.2517510209248311  10.729716140034125 0.2032111129699861  10.612367999881341 0.2032111129699861  C 10.612367999881341 0.2032111129699861  8.378171696891139 0.2032111129699861  8.378171696891139 0.2032111129699861  C 8.1034009277829 0.2032111129699861  7.937173762299169 0.5226688115108762  7.878319988348572 1.161405983518064  C 7.349175123704491 0.3875206358947293  6.41820644084112 0  5.085595175351922 0  C 3.6745421458406446 0  2.474014695343785 0.522668980765458  1.4844626137573715 1.5678268554213821  C 0.49464094958134075 2.612984730077306  0 3.8422724639194366  0 5.254983757578092  C 0 6.397132462547345  0.3381166793270615 7.306699687796758  1.0142612196867986 7.983860484877516  C 1.6904057600465356 8.661731177987816  2.596574944084554 9  3.733396326821534 9  C 4.28185962037013 9  4.850539037422357 8.883664746185078  5.438357961431508 8.651614493126909  C 6.026266774867392 8.419386755482945  6.496648590470845 8.109868616883151  6.849411847848664 7.722615360913957  C 6.770790390663702 7.9548430985579195  6.731793632385384 8.15814112375564  6.731793632385384 8.332156625331438  C 6.731793632385384 8.642207704295545  6.859116007014288 8.796612862264983  7.113939378302632 8.796612862264983  C 7.113939378302632 8.796612862264983  9.142282210203934 8.796612862264983  9.142282210203934 8.796612862264983  C 9.514363853640974 8.796612862264983  9.730190830835998 8.613102686416243  9.789044604786595 8.245105608841076  C 9.789044604786595 8.245105608841076  10.994243649065446 0.6677553622860471  10.994243649065446 0.6677553622860471  C 11.013562064580803 0.5515971276068214  10.984271074844465 0.4452889171949415  10.906098882700677 0.3483868609097441  Z M 7.525644949431023 4.151881238347762  C 7.525644949431023 4.867998050789012  7.275764639707224 5.463341352301981  6.776001749459042 5.937025560601264  C 6.276148969784127 6.4117746341016835  5.663440143379362 6.6483524683787305  4.938774978572679 6.6483524683787305  C 4.370094747459866 6.6483524683787305  3.9144492922206724 6.493769846980317  3.571749601756888 6.183896231445184  C 3.2286006355406043 5.874732533096417  3.057250972401212 5.4488791406817  3.057250972401212 4.9065115923591405  C 3.057250972401212 4.190838480803973  3.302101373149605 3.5855536306085702  3.792249993658897 3.0920808113146916  C 4.281859491834248 2.5985192603063254  4.889445820583353 2.351739606113746  5.61482984373215 2.351739606113746  C 6.163293137280747 2.351739606113746  6.618938571097294 2.5114672071316506  6.981855220547942 2.8306583085494474  C 7.3441429010832096 3.1501156262675285  7.525644949431023 3.590523706774636  7.525644949431023 4.151881238347762  Z " fill-rule="nonzero" fill="rgba(0, 48, 135, 1)" stroke="none" transform="matrix(1 0 0 1 1085 3904 )" class="fill" />
    <path d="M 10.906098882700677 0.3483868609097441  C 10.827657129389921 0.2517510209248311  10.729716140034125 0.2032111129699861  10.612367999881341 0.2032111129699861  C 10.612367999881341 0.2032111129699861  8.378171696891139 0.2032111129699861  8.378171696891139 0.2032111129699861  C 8.1034009277829 0.2032111129699861  7.937173762299169 0.5226688115108762  7.878319988348572 1.161405983518064  C 7.349175123704491 0.3875206358947293  6.41820644084112 0  5.085595175351922 0  C 3.6745421458406446 0  2.474014695343785 0.522668980765458  1.4844626137573715 1.5678268554213821  C 0.49464094958134075 2.612984730077306  0 3.8422724639194366  0 5.254983757578092  C 0 6.397132462547345  0.3381166793270615 7.306699687796758  1.0142612196867986 7.983860484877516  C 1.6904057600465356 8.661731177987816  2.596574944084554 9  3.733396326821534 9  C 4.28185962037013 9  4.850539037422357 8.883664746185078  5.438357961431508 8.651614493126909  C 6.026266774867392 8.419386755482945  6.496648590470845 8.109868616883151  6.849411847848664 7.722615360913957  C 6.770790390663702 7.9548430985579195  6.731793632385384 8.15814112375564  6.731793632385384 8.332156625331438  C 6.731793632385384 8.642207704295545  6.859116007014288 8.796612862264983  7.113939378302632 8.796612862264983  C 7.113939378302632 8.796612862264983  9.142282210203934 8.796612862264983  9.142282210203934 8.796612862264983  C 9.514363853640974 8.796612862264983  9.730190830835998 8.613102686416243  9.789044604786595 8.245105608841076  C 9.789044604786595 8.245105608841076  10.994243649065446 0.6677553622860471  10.994243649065446 0.6677553622860471  C 11.013562064580803 0.5515971276068214  10.984271074844465 0.4452889171949415  10.906098882700677 0.3483868609097441  Z " stroke-width="0" stroke-dasharray="0" stroke="rgba(121, 121, 121, 1)" fill="none" transform="matrix(1 0 0 1 1085 3904 )" class="stroke" mask="url(#Clip109)" />
    <path d="M 7.525644949431023 4.151881238347762  C 7.525644949431023 4.867998050789012  7.275764639707224 5.463341352301981  6.776001749459042 5.937025560601264  C 6.276148969784127 6.4117746341016835  5.663440143379362 6.6483524683787305  4.938774978572679 6.6483524683787305  C 4.370094747459866 6.6483524683787305  3.9144492922206724 6.493769846980317  3.571749601756888 6.183896231445184  C 3.2286006355406043 5.874732533096417  3.057250972401212 5.4488791406817  3.057250972401212 4.9065115923591405  C 3.057250972401212 4.190838480803973  3.302101373149605 3.5855536306085702  3.792249993658897 3.0920808113146916  C 4.281859491834248 2.5985192603063254  4.889445820583353 2.351739606113746  5.61482984373215 2.351739606113746  C 6.163293137280747 2.351739606113746  6.618938571097294 2.5114672071316506  6.981855220547942 2.8306583085494474  C 7.3441429010832096 3.1501156262675285  7.525644949431023 3.590523706774636  7.525644949431023 4.151881238347762  Z " stroke-width="0" stroke-dasharray="0" stroke="rgba(121, 121, 121, 1)" fill="none" transform="matrix(1 0 0 1 1085 3904 )" class="stroke" mask="url(#Clip109)" />
  </g>
</svg>