<?xml version="1.0" encoding="utf-8"?>
<svg version="1.1" xmlns:xlink="http://www.w3.org/1999/xlink" width="23px" height="3px" xmlns="http://www.w3.org/2000/svg">
  <defs>
    <pattern id="BGPattern" patternUnits="userSpaceOnUse" alignment="0 0" imageRepeat="None" />
    <mask fill="white" id="Clip96">
      <path d="M 2.8502505481377085 2.9542236209148345  L 3.309763903563727 2.9542236209148345  C 3.309763903563727 2.9542236209148345  3.309763903563727 1.6314763234214351  3.309763903563727 1.6314763234214351  C 3.309763903563727 1.1242015429087222  3.002715726097901 0.7936467540681091  2.4987337727426047 0.7936467540681091  C 2.234037381397217 0.7936467540681091  1.950812146732675 0.88200730830126  1.753348637779279 1.1662515350843945  C 1.599824725750271 0.9235261379253024  1.3827736898957361 0.7936467540681091  1.0519032007140015 0.7936467540681091  C 0.928884807145753 0.7883010361878886  0.80646718161126 0.8137037370539862  0.695604312779943 0.8675809669028224  C 0.5847414439486257 0.9214581967516585  0.48889171123073305 1.0021302066807034  0.4166318614850707 1.1023774044240753  C 0.4166318614850707 1.1023774044240753  0.4166318614850707 0.8362311322695858  0.4166318614850707 0.8362311322695858  L 0 0.8362311322695858  L 0 2.952626808259025  L 0.4166318614850707 2.952626808259025  C 0.4166318614850707 2.952626808259025  0.4166318614850707 1.7416612699560972  0.4166318614850707 1.7416612699560972  C 0.4166318614850707 1.3690564889398116  0.6358005926679706 1.1907381617107176  0.9428484167259865 1.1907381617107176  C 1.2498962407840022 1.1907381617107176  1.4251252740688543 1.3892836117151575  1.4251252740688543 1.7416612699560972  C 1.4251252740688543 1.7416612699560972  1.4251252740688543 2.9542236209148345  1.4251252740688543 2.9542236209148345  L 1.841757135553925 2.9542236209148345  C 1.841757135553925 2.9542236209148345  1.841757135553925 1.7416612699560972  1.841757135553925 1.7416612699560972  C 1.841757135553925 1.3690564889398116  2.0609258667368247 1.1907381617107176  2.3679736907948405 1.1907381617107176  C 2.675021514852857 1.1907381617107176  2.8502505481377085 1.3892836117151575  2.8502505481377085 1.7416612699560972  C 2.8502505481377085 1.7416612699560972  2.8502505481377085 2.9542236209148345  2.8502505481377085 2.9542236209148345  Z M 10.150047596349241 0.8623129471237878  L 10.150577506117072 0.8596521341734152  L 9.382957971215449 0.8596521341734152  L 9.382957971215449 0.22090108100264022  L 8.967384313687477 0.22090108100264022  L 8.967384313687477 0.8596521341734152  L 8.529047154242658 0.8596521341734152  L 8.529047154242658 1.2322569151897005  L 8.967384313687477 1.2322569151897005  C 8.967384313687477 1.2322569151897005  8.967384313687477 2.2265789980961705  8.967384313687477 2.2265789980961705  C 8.967384313687477 2.7114974876868363  9.142613346972329 2.9984031873441905  9.668829750752755 2.9984031873441905  C 9.868187639163654 2.994223797613675  10.063526536092974 2.9412394034843437  10.237926992145336 2.8440386743801724  C 10.237926992145336 2.8440386743801724  10.106108706240473 2.471433893363887  10.106108706240473 2.471433893363887  C 9.987825674406588 2.5457715607950275  9.85064773187082 2.5840442476221335  9.711180527136591 2.581618839898549  C 9.492011922170768 2.5816188398985522  9.382428061447618 2.4490777293502726  9.382428061447618 2.228708623113227  C 9.382428061447618 2.228708623113227  9.382428061447618 1.2152231639091098  9.382428061447618 1.2152231639091098  L 10.150047596349241 1.2152231639091098  L 10.150047596349241 0.8623129471237878  Z M 14.360309140255119 0.8378279449253956  C 14.259778142441224 0.8123449728896517  14.156866236210684 0.7975362540058224  14.053261972525892 0.7936467540681091  C 13.939781651857608 0.7911045919750713  13.827586530245018 0.818217736729236  13.727648575979888 0.8723324185999164  C 13.627710621714757 0.9264471004705968  13.543448897588457 1.0057119370138898  13.483104103808369 1.1023774044240753  C 13.483104103808369 1.1023774044240753  13.483104103808369 0.8362311322695858  13.483104103808369 0.8362311322695858  L 13.066472242323297 0.8362311322695858  L 13.066472242323297 2.952626808259025  L 13.483104103808369 2.952626808259025  C 13.483104103808369 2.952626808259025  13.483104103808369 1.7640166471374332  13.483104103808369 1.7640166471374332  C 13.483104103808369 1.411106684168975  13.658334575967874 1.1907381617107176  13.943677278770046 1.1907381617107176  C 14.039963722567563 1.1946655890265359  14.135504059369422 1.2094850641931614  14.228490854350254 1.2349177281400732  C 14.228490854350254 1.2349177281400732  14.360309140255119 0.8378279449253956  14.360309140255119 0.8378279449253956  Z M 7.9398327286152535 1.346699487330545  C 7.9398327286152535 1.346699487330545  8.155295978909255 1.0140166471374332  8.155295978909255 1.0140166471374332  C 7.93612737394343 0.859651804211492  7.629079878049808 0.7936467540681091  7.300326957979363 0.7936467540681091  C 6.774110554198938 0.7936467540681091  6.445356321470912 1.0363733949298355  6.445356321470912 1.4552876212093975  C 6.445356321470912 1.8081975841778553  6.686759452592112 2.0062091050268465  7.14680175853619 2.072745673065469  C 7.14680175853619 2.072745673065469  7.36597114604788 2.0945698623134885  7.36597114604788 2.0945698623134885  C 7.6073742519256635 2.1387501426027744  7.760897709573202 2.227110579445626  7.760897709573202 2.3372951325641482  C 7.760897709573202 2.49165997549009  7.585668752018595 2.6034414047186383  7.256386452292035 2.6034414047186383  C 7.004958050361235 2.6086427468074573  6.7586984396004715 2.5312776152748206  6.554941015226757 2.3830731360772446  C 6.554941015226757 2.3830731360772446  6.335773243293628 2.7136263512533  6.335773243293628 2.7136263512533  C 6.642821067351644 2.9339954574903455  7.015513584346476 2.97977262340779  7.235740973867946 2.97977262340779  C 7.849836621983979 2.97977262340779  8.178589390593933 2.693399431531445  8.178589390593933 2.2963091914464124  C 8.178589390593933 1.9237044104301266  7.913892292432926 1.7453860832010326  7.4549087458010765 1.67884951516241  C 7.4549087458010765 1.67884951516241  7.235740973867946 1.6570253259143903  7.235740973867946 1.6570253259143903  C 7.038277464914551 1.635201331788085  6.865166025984403 1.5686656092768911  6.865166025984403 1.4366570572729969  C 6.865166025984403 1.2822922143470559  7.04039478159169 1.1705107851185075  7.281797887469474 1.1705107851185075  C 7.546494278814861 1.1705107851185075  7.808013925220383 1.280695211328598  7.9398327286152535 1.346699487330545  Z M 14.51383110854117 1.8986865958704877  C 14.51383110854117 1.8986865958704877  14.51383110854117 1.8960257829201148  14.51383110854117 1.8960257829201148  C 14.51383110854117 2.5347768360908898  14.930464383657482 2.9984031873441905  15.610204724710329 2.9984031873441905  C 15.917252548768346 2.9984031873441905  16.13642206249711 2.9323990382506757  16.355590667462934 2.7556779170935304  C 16.355590667462934 2.7556779170935304  16.136421279951243 2.4251247019174746  16.136421279951243 2.4251247019174746  C 15.981243457236088 2.551484572300309  15.78817225200711 2.621445372945429  15.58850104232914 2.6236687813108484  C 15.217926094445597 2.623668781310852  14.93046620118336 2.3372953863810126  14.93046620118336 1.9183811601014509  C 14.93046620118336 1.499466933821889  15.214220335879133 1.2152231639091098  15.58850104232914 1.2152231639091098  C 15.78817225200711 1.2174465722745298  15.981243457236088 1.2874089973475797  16.136421279951243 1.4137688677304143  C 16.136421279951243 1.4137688677304143  16.355590667462934 1.0832140281264282  16.355590667462934 1.0832140281264282  C 16.13642206249711 0.9070251990059583  15.917252548768346 0.8404887578757682  15.610204724710329 0.8404887578757682  C 14.95216947966991 0.7963084775864819  14.51383110854117 1.259403237972194  14.51383110854117 1.8986865958704877  Z M 11.575701972396645 0.7936467540681091  C 10.961606324280615 0.7936467540681091  10.544974159874563 1.2343861340997746  10.544974159874563 1.8960257829201148  C 10.544974159874563 2.557665431740455  10.983311824187684 2.9984031873441905  11.619112568316146 2.9984031873441905  C 11.928424852917377 3.0049721054050083  12.230480766414313 2.9037976087676327  12.474081589246035 2.7120295385974904  C 12.474081589246035 2.7120295385974904  12.254913817312904 2.403300512669455  12.254913817312904 2.403300512669455  C 12.078738913267735 2.540565066223866  11.863618014168061 2.6177605568758073  11.640817866275892 2.6236687813108484  C 11.356004543129837 2.6236687813108452  11.048956734848954 2.447479622228455  11.005546527046961 2.072745673065469  C 11.005546527046961 2.072745673065469  12.56249089480996 2.072745673065469  12.56249089480996 2.072745673065469  C 12.56249089480996 2.072745673065469  12.56249089480996 1.8965569708534311  12.56249089480996 1.8965569708534311  C 12.56249089480996 1.2349173220330907  12.167563119600718 0.7941795664293558  11.575701972396645 0.7941795664293558  Z M 10.962135931127463 1.7198370807080772  C 11.027780636685987 1.4111073948561947  11.226831943821628 1.1907381617107176  11.553996674436897 1.1907381617107176  C 11.861044498494913 1.1907381617107176  12.080213423736565 1.3892834086616663  12.101918527637562 1.7198370807080772  C 12.101918527637562 1.7198370807080772  10.962135931127463 1.7198370807080772  10.962135931127463 1.7198370807080772  Z M 5.875200876121229 2.957417246226454  L 5.875200876121229 1.8960257829201148  L 5.875200876121229 0.8378279449253956  L 5.458569014636158 0.8378279449253956  C 5.458569014636158 0.8378279449253956  5.458569014636158 1.1039742170798852  5.458569014636158 1.1039742170798852  C 5.30504510260715 0.9054290970373684  5.087994268699935 0.7952435667239188  4.77882887553063 0.7952435667239188  C 4.1869677283265565 0.7952435667239188  3.748101063008547 1.258339237677631  3.748101063008547 1.8976225955759245  C 3.748101063008547 2.5369059534742178  4.186438373913856 3  4.77882887553063 3  C 5.0858766995886455 3  5.30504510260715 2.8898160941144804  5.458569014636158 2.691270974071964  C 5.458569014636158 2.691270974071964  5.458569014636158 2.957417246226454  5.458569014636158 2.957417246226454  L 5.875200876121229 2.957417246226454  Z M 4.845002973366976 2.6013134041295123  C 4.428370859447756 2.6231373982558175  4.186967324431917 2.29258371827763  4.186967324431917 1.8960257829201148  C 4.186967324431917 1.4989355428350817  4.428370859447756 1.1907381617107176  4.845002973366976 1.1907381617107176  C 5.239929991273769 1.1907381617107176  5.480274312595907 1.4994678475626  5.480274312595907 1.8960257829201148  C 5.480274312595907 2.3149400091996766  5.215577921250519 2.6013134041295123  4.845002973366976 2.6013134041295123  Z M 20.39062413733373 0.7936467540681091  C 20.277143816665447 0.7911045919750713  20.164948695052857 0.818217736729236  20.065010740787724 0.8723324185999164  C 19.96507278652259 0.9264471004705968  19.880811870185575 1.0057119370138898  19.820467076405485 1.1023774044240753  C 19.820467076405485 1.1023774044240753  19.820467076405485 0.8362311322695858  19.820467076405485 0.8362311322695858  L 19.403835214920417 0.8362311322695858  L 19.403835214920417 2.952626808259025  L 19.819937166637654 2.952626808259025  C 19.819937166637654 2.952626808259025  19.819937166637654 1.7640166471374332  19.819937166637654 1.7640166471374332  C 19.819937166637654 1.411106684168975  19.995166831007886 1.1907381617107176  20.280509533810058 1.1907381617107176  C 20.37679597760757 1.1946655890265359  20.47233631440943 1.2094850641931614  20.565323109390263 1.2349177281400732  C 20.565323109390263 1.2349177281400732  20.697141395295123 0.8378279449253956  20.697141395295123 0.8378279449253956  C 20.59661039748123 0.8123449728896517  20.493698491250694 0.7975362540058224  20.3900942275659 0.7936467540681091  Z M 18.768033965923653 2.957417246226454  L 18.768033965923653 1.8960257829201148  L 18.768033965923653 0.8378279449253956  L 18.351402104438584 0.8378279449253956  C 18.351402104438584 0.8378279449253956  18.351402104438584 1.1039742170798852  18.351402104438584 1.1039742170798852  C 18.197878192409576 0.9054290970373684  17.9808257429238 0.7952435667239188  17.671660349754493 0.7952435667239188  C 17.07979920255042 0.7952435667239188  16.640934152810974 1.258339237677631  16.640934152810974 1.8976225955759245  C 16.640934152810974 2.5369059534742178  17.07926984813772 3  17.671660349754493 3  C 17.97870817381251 3  18.197878192409576 2.8898160941144804  18.351402104438584 2.691270974071964  C 18.351402104438584 2.691270974071964  18.351402104438584 2.957417246226454  18.351402104438584 2.957417246226454  L 18.768033965923653 2.957417246226454  Z M 17.737834447590842 2.6013134041295123  C 17.32120233367162 2.6231373982558175  17.07979960644506 2.29258371827763  17.07979960644506 1.8960257829201148  C 17.07979960644506 1.4989355428350817  17.32120233367162 1.1907381617107176  17.737834447590842 1.1907381617107176  C 18.132761465497637 1.1907381617107176  18.37310578681977 1.4994678475626  18.37310578681977 1.8960257829201148  C 18.37310578681977 2.3149400091996766  18.108409395474386 2.6013134041295123  17.737834447590842 2.6013134041295123  Z M 23 2.955820433570644  L 23 1.8960257829201148  L 23 0  L 22.583368138514928 0  C 22.583368138514928 0  22.583368138514928 1.1023774044240753  22.583368138514928 1.1023774044240753  C 22.42984422648592 0.9038322843815585  22.212791777000145 0.7936467540681091  21.903626383830844 0.7936467540681091  C 21.311765236626766 0.7936467540681091  20.872900186887314 1.2567424250218213  20.872900186887314 1.8960257829201148  C 20.872900186887314 2.5353091408184083  21.311235882214067 2.9984031873441905  21.903626383830844 2.9984031873441905  C 22.210674207888857 2.9984031873441905  22.42984422648592 2.888219281458671  22.583368138514928 2.6896741614161543  C 22.583368138514928 2.6896741614161543  22.583368138514928 2.955820433570644  22.583368138514928 2.955820433570644  L 23 2.955820433570644  Z M 21.311765640521408 1.8960257829201148  C 21.311765640521408 1.4989355428350817  21.553168367747965 1.1907381617107176  21.969800481667185 1.1907381617107176  C 22.364727499573977 1.1907381617107176  22.605071820896118 1.4994678475626  22.605071820896118 1.8960257829201148  C 22.605071820896118 2.3149400091996766  22.34037542955073 2.6013134041295123  21.969800481667185 2.6013134041295123  C 21.552638962848434 2.6236696902924934  21.311235730753577 2.2931160230051484  21.311235730753577 1.8960257829201148  Z " fill-rule="evenodd" />
    </mask>
  </defs>
  <g transform="matrix(1 0 0 1 -878 -3915 )">
    <path d="M 2.8502505481377085 2.9542236209148345  L 3.309763903563727 2.9542236209148345  C 3.309763903563727 2.9542236209148345  3.309763903563727 1.6314763234214351  3.309763903563727 1.6314763234214351  C 3.309763903563727 1.1242015429087222  3.002715726097901 0.7936467540681091  2.4987337727426047 0.7936467540681091  C 2.234037381397217 0.7936467540681091  1.950812146732675 0.88200730830126  1.753348637779279 1.1662515350843945  C 1.599824725750271 0.9235261379253024  1.3827736898957361 0.7936467540681091  1.0519032007140015 0.7936467540681091  C 0.928884807145753 0.7883010361878886  0.80646718161126 0.8137037370539862  0.695604312779943 0.8675809669028224  C 0.5847414439486257 0.9214581967516585  0.48889171123073305 1.0021302066807034  0.4166318614850707 1.1023774044240753  C 0.4166318614850707 1.1023774044240753  0.4166318614850707 0.8362311322695858  0.4166318614850707 0.8362311322695858  L 0 0.8362311322695858  L 0 2.952626808259025  L 0.4166318614850707 2.952626808259025  C 0.4166318614850707 2.952626808259025  0.4166318614850707 1.7416612699560972  0.4166318614850707 1.7416612699560972  C 0.4166318614850707 1.3690564889398116  0.6358005926679706 1.1907381617107176  0.9428484167259865 1.1907381617107176  C 1.2498962407840022 1.1907381617107176  1.4251252740688543 1.3892836117151575  1.4251252740688543 1.7416612699560972  C 1.4251252740688543 1.7416612699560972  1.4251252740688543 2.9542236209148345  1.4251252740688543 2.9542236209148345  L 1.841757135553925 2.9542236209148345  C 1.841757135553925 2.9542236209148345  1.841757135553925 1.7416612699560972  1.841757135553925 1.7416612699560972  C 1.841757135553925 1.3690564889398116  2.0609258667368247 1.1907381617107176  2.3679736907948405 1.1907381617107176  C 2.675021514852857 1.1907381617107176  2.8502505481377085 1.3892836117151575  2.8502505481377085 1.7416612699560972  C 2.8502505481377085 1.7416612699560972  2.8502505481377085 2.9542236209148345  2.8502505481377085 2.9542236209148345  Z M 10.150047596349241 0.8623129471237878  L 10.150577506117072 0.8596521341734152  L 9.382957971215449 0.8596521341734152  L 9.382957971215449 0.22090108100264022  L 8.967384313687477 0.22090108100264022  L 8.967384313687477 0.8596521341734152  L 8.529047154242658 0.8596521341734152  L 8.529047154242658 1.2322569151897005  L 8.967384313687477 1.2322569151897005  C 8.967384313687477 1.2322569151897005  8.967384313687477 2.2265789980961705  8.967384313687477 2.2265789980961705  C 8.967384313687477 2.7114974876868363  9.142613346972329 2.9984031873441905  9.668829750752755 2.9984031873441905  C 9.868187639163654 2.994223797613675  10.063526536092974 2.9412394034843437  10.237926992145336 2.8440386743801724  C 10.237926992145336 2.8440386743801724  10.106108706240473 2.471433893363887  10.106108706240473 2.471433893363887  C 9.987825674406588 2.5457715607950275  9.85064773187082 2.5840442476221335  9.711180527136591 2.581618839898549  C 9.492011922170768 2.5816188398985522  9.382428061447618 2.4490777293502726  9.382428061447618 2.228708623113227  C 9.382428061447618 2.228708623113227  9.382428061447618 1.2152231639091098  9.382428061447618 1.2152231639091098  L 10.150047596349241 1.2152231639091098  L 10.150047596349241 0.8623129471237878  Z M 14.360309140255119 0.8378279449253956  C 14.259778142441224 0.8123449728896517  14.156866236210684 0.7975362540058224  14.053261972525892 0.7936467540681091  C 13.939781651857608 0.7911045919750713  13.827586530245018 0.818217736729236  13.727648575979888 0.8723324185999164  C 13.627710621714757 0.9264471004705968  13.543448897588457 1.0057119370138898  13.483104103808369 1.1023774044240753  C 13.483104103808369 1.1023774044240753  13.483104103808369 0.8362311322695858  13.483104103808369 0.8362311322695858  L 13.066472242323297 0.8362311322695858  L 13.066472242323297 2.952626808259025  L 13.483104103808369 2.952626808259025  C 13.483104103808369 2.952626808259025  13.483104103808369 1.7640166471374332  13.483104103808369 1.7640166471374332  C 13.483104103808369 1.411106684168975  13.658334575967874 1.1907381617107176  13.943677278770046 1.1907381617107176  C 14.039963722567563 1.1946655890265359  14.135504059369422 1.2094850641931614  14.228490854350254 1.2349177281400732  C 14.228490854350254 1.2349177281400732  14.360309140255119 0.8378279449253956  14.360309140255119 0.8378279449253956  Z M 7.9398327286152535 1.346699487330545  C 7.9398327286152535 1.346699487330545  8.155295978909255 1.0140166471374332  8.155295978909255 1.0140166471374332  C 7.93612737394343 0.859651804211492  7.629079878049808 0.7936467540681091  7.300326957979363 0.7936467540681091  C 6.774110554198938 0.7936467540681091  6.445356321470912 1.0363733949298355  6.445356321470912 1.4552876212093975  C 6.445356321470912 1.8081975841778553  6.686759452592112 2.0062091050268465  7.14680175853619 2.072745673065469  C 7.14680175853619 2.072745673065469  7.36597114604788 2.0945698623134885  7.36597114604788 2.0945698623134885  C 7.6073742519256635 2.1387501426027744  7.760897709573202 2.227110579445626  7.760897709573202 2.3372951325641482  C 7.760897709573202 2.49165997549009  7.585668752018595 2.6034414047186383  7.256386452292035 2.6034414047186383  C 7.004958050361235 2.6086427468074573  6.7586984396004715 2.5312776152748206  6.554941015226757 2.3830731360772446  C 6.554941015226757 2.3830731360772446  6.335773243293628 2.7136263512533  6.335773243293628 2.7136263512533  C 6.642821067351644 2.9339954574903455  7.015513584346476 2.97977262340779  7.235740973867946 2.97977262340779  C 7.849836621983979 2.97977262340779  8.178589390593933 2.693399431531445  8.178589390593933 2.2963091914464124  C 8.178589390593933 1.9237044104301266  7.913892292432926 1.7453860832010326  7.4549087458010765 1.67884951516241  C 7.4549087458010765 1.67884951516241  7.235740973867946 1.6570253259143903  7.235740973867946 1.6570253259143903  C 7.038277464914551 1.635201331788085  6.865166025984403 1.5686656092768911  6.865166025984403 1.4366570572729969  C 6.865166025984403 1.2822922143470559  7.04039478159169 1.1705107851185075  7.281797887469474 1.1705107851185075  C 7.546494278814861 1.1705107851185075  7.808013925220383 1.280695211328598  7.9398327286152535 1.346699487330545  Z M 14.51383110854117 1.8986865958704877  C 14.51383110854117 1.8986865958704877  14.51383110854117 1.8960257829201148  14.51383110854117 1.8960257829201148  C 14.51383110854117 2.5347768360908898  14.930464383657482 2.9984031873441905  15.610204724710329 2.9984031873441905  C 15.917252548768346 2.9984031873441905  16.13642206249711 2.9323990382506757  16.355590667462934 2.7556779170935304  C 16.355590667462934 2.7556779170935304  16.136421279951243 2.4251247019174746  16.136421279951243 2.4251247019174746  C 15.981243457236088 2.551484572300309  15.78817225200711 2.621445372945429  15.58850104232914 2.6236687813108484  C 15.217926094445597 2.623668781310852  14.93046620118336 2.3372953863810126  14.93046620118336 1.9183811601014509  C 14.93046620118336 1.499466933821889  15.214220335879133 1.2152231639091098  15.58850104232914 1.2152231639091098  C 15.78817225200711 1.2174465722745298  15.981243457236088 1.2874089973475797  16.136421279951243 1.4137688677304143  C 16.136421279951243 1.4137688677304143  16.355590667462934 1.0832140281264282  16.355590667462934 1.0832140281264282  C 16.13642206249711 0.9070251990059583  15.917252548768346 0.8404887578757682  15.610204724710329 0.8404887578757682  C 14.95216947966991 0.7963084775864819  14.51383110854117 1.259403237972194  14.51383110854117 1.8986865958704877  Z M 11.575701972396645 0.7936467540681091  C 10.961606324280615 0.7936467540681091  10.544974159874563 1.2343861340997746  10.544974159874563 1.8960257829201148  C 10.544974159874563 2.557665431740455  10.983311824187684 2.9984031873441905  11.619112568316146 2.9984031873441905  C 11.928424852917377 3.0049721054050083  12.230480766414313 2.9037976087676327  12.474081589246035 2.7120295385974904  C 12.474081589246035 2.7120295385974904  12.254913817312904 2.403300512669455  12.254913817312904 2.403300512669455  C 12.078738913267735 2.540565066223866  11.863618014168061 2.6177605568758073  11.640817866275892 2.6236687813108484  C 11.356004543129837 2.6236687813108452  11.048956734848954 2.447479622228455  11.005546527046961 2.072745673065469  C 11.005546527046961 2.072745673065469  12.56249089480996 2.072745673065469  12.56249089480996 2.072745673065469  C 12.56249089480996 2.072745673065469  12.56249089480996 1.8965569708534311  12.56249089480996 1.8965569708534311  C 12.56249089480996 1.2349173220330907  12.167563119600718 0.7941795664293558  11.575701972396645 0.7941795664293558  Z M 10.962135931127463 1.7198370807080772  C 11.027780636685987 1.4111073948561947  11.226831943821628 1.1907381617107176  11.553996674436897 1.1907381617107176  C 11.861044498494913 1.1907381617107176  12.080213423736565 1.3892834086616663  12.101918527637562 1.7198370807080772  C 12.101918527637562 1.7198370807080772  10.962135931127463 1.7198370807080772  10.962135931127463 1.7198370807080772  Z M 5.875200876121229 2.957417246226454  L 5.875200876121229 1.8960257829201148  L 5.875200876121229 0.8378279449253956  L 5.458569014636158 0.8378279449253956  C 5.458569014636158 0.8378279449253956  5.458569014636158 1.1039742170798852  5.458569014636158 1.1039742170798852  C 5.30504510260715 0.9054290970373684  5.087994268699935 0.7952435667239188  4.77882887553063 0.7952435667239188  C 4.1869677283265565 0.7952435667239188  3.748101063008547 1.258339237677631  3.748101063008547 1.8976225955759245  C 3.748101063008547 2.5369059534742178  4.186438373913856 3  4.77882887553063 3  C 5.0858766995886455 3  5.30504510260715 2.8898160941144804  5.458569014636158 2.691270974071964  C 5.458569014636158 2.691270974071964  5.458569014636158 2.957417246226454  5.458569014636158 2.957417246226454  L 5.875200876121229 2.957417246226454  Z M 4.845002973366976 2.6013134041295123  C 4.428370859447756 2.6231373982558175  4.186967324431917 2.29258371827763  4.186967324431917 1.8960257829201148  C 4.186967324431917 1.4989355428350817  4.428370859447756 1.1907381617107176  4.845002973366976 1.1907381617107176  C 5.239929991273769 1.1907381617107176  5.480274312595907 1.4994678475626  5.480274312595907 1.8960257829201148  C 5.480274312595907 2.3149400091996766  5.215577921250519 2.6013134041295123  4.845002973366976 2.6013134041295123  Z M 20.39062413733373 0.7936467540681091  C 20.277143816665447 0.7911045919750713  20.164948695052857 0.818217736729236  20.065010740787724 0.8723324185999164  C 19.96507278652259 0.9264471004705968  19.880811870185575 1.0057119370138898  19.820467076405485 1.1023774044240753  C 19.820467076405485 1.1023774044240753  19.820467076405485 0.8362311322695858  19.820467076405485 0.8362311322695858  L 19.403835214920417 0.8362311322695858  L 19.403835214920417 2.952626808259025  L 19.819937166637654 2.952626808259025  C 19.819937166637654 2.952626808259025  19.819937166637654 1.7640166471374332  19.819937166637654 1.7640166471374332  C 19.819937166637654 1.411106684168975  19.995166831007886 1.1907381617107176  20.280509533810058 1.1907381617107176  C 20.37679597760757 1.1946655890265359  20.47233631440943 1.2094850641931614  20.565323109390263 1.2349177281400732  C 20.565323109390263 1.2349177281400732  20.697141395295123 0.8378279449253956  20.697141395295123 0.8378279449253956  C 20.59661039748123 0.8123449728896517  20.493698491250694 0.7975362540058224  20.3900942275659 0.7936467540681091  Z M 18.768033965923653 2.957417246226454  L 18.768033965923653 1.8960257829201148  L 18.768033965923653 0.8378279449253956  L 18.351402104438584 0.8378279449253956  C 18.351402104438584 0.8378279449253956  18.351402104438584 1.1039742170798852  18.351402104438584 1.1039742170798852  C 18.197878192409576 0.9054290970373684  17.9808257429238 0.7952435667239188  17.671660349754493 0.7952435667239188  C 17.07979920255042 0.7952435667239188  16.640934152810974 1.258339237677631  16.640934152810974 1.8976225955759245  C 16.640934152810974 2.5369059534742178  17.07926984813772 3  17.671660349754493 3  C 17.97870817381251 3  18.197878192409576 2.8898160941144804  18.351402104438584 2.691270974071964  C 18.351402104438584 2.691270974071964  18.351402104438584 2.957417246226454  18.351402104438584 2.957417246226454  L 18.768033965923653 2.957417246226454  Z M 17.737834447590842 2.6013134041295123  C 17.32120233367162 2.6231373982558175  17.07979960644506 2.29258371827763  17.07979960644506 1.8960257829201148  C 17.07979960644506 1.4989355428350817  17.32120233367162 1.1907381617107176  17.737834447590842 1.1907381617107176  C 18.132761465497637 1.1907381617107176  18.37310578681977 1.4994678475626  18.37310578681977 1.8960257829201148  C 18.37310578681977 2.3149400091996766  18.108409395474386 2.6013134041295123  17.737834447590842 2.6013134041295123  Z M 23 2.955820433570644  L 23 1.8960257829201148  L 23 0  L 22.583368138514928 0  C 22.583368138514928 0  22.583368138514928 1.1023774044240753  22.583368138514928 1.1023774044240753  C 22.42984422648592 0.9038322843815585  22.212791777000145 0.7936467540681091  21.903626383830844 0.7936467540681091  C 21.311765236626766 0.7936467540681091  20.872900186887314 1.2567424250218213  20.872900186887314 1.8960257829201148  C 20.872900186887314 2.5353091408184083  21.311235882214067 2.9984031873441905  21.903626383830844 2.9984031873441905  C 22.210674207888857 2.9984031873441905  22.42984422648592 2.888219281458671  22.583368138514928 2.6896741614161543  C 22.583368138514928 2.6896741614161543  22.583368138514928 2.955820433570644  22.583368138514928 2.955820433570644  L 23 2.955820433570644  Z M 21.311765640521408 1.8960257829201148  C 21.311765640521408 1.4989355428350817  21.553168367747965 1.1907381617107176  21.969800481667185 1.1907381617107176  C 22.364727499573977 1.1907381617107176  22.605071820896118 1.4994678475626  22.605071820896118 1.8960257829201148  C 22.605071820896118 2.3149400091996766  22.34037542955073 2.6013134041295123  21.969800481667185 2.6013134041295123  C 21.552638962848434 2.6236696902924934  21.311235730753577 2.2931160230051484  21.311235730753577 1.8960257829201148  Z " fill-rule="nonzero" fill="rgba(0, 0, 0, 1)" stroke="none" transform="matrix(1 0 0 1 878 3915 )" class="fill" />
    <path d="M 2.8502505481377085 2.9542236209148345  L 3.309763903563727 2.9542236209148345  C 3.309763903563727 2.9542236209148345  3.309763903563727 1.6314763234214351  3.309763903563727 1.6314763234214351  C 3.309763903563727 1.1242015429087222  3.002715726097901 0.7936467540681091  2.4987337727426047 0.7936467540681091  C 2.234037381397217 0.7936467540681091  1.950812146732675 0.88200730830126  1.753348637779279 1.1662515350843945  C 1.599824725750271 0.9235261379253024  1.3827736898957361 0.7936467540681091  1.0519032007140015 0.7936467540681091  C 0.928884807145753 0.7883010361878886  0.80646718161126 0.8137037370539862  0.695604312779943 0.8675809669028224  C 0.5847414439486257 0.9214581967516585  0.48889171123073305 1.0021302066807034  0.4166318614850707 1.1023774044240753  C 0.4166318614850707 1.1023774044240753  0.4166318614850707 0.8362311322695858  0.4166318614850707 0.8362311322695858  L 0 0.8362311322695858  L 0 2.952626808259025  L 0.4166318614850707 2.952626808259025  C 0.4166318614850707 2.952626808259025  0.4166318614850707 1.7416612699560972  0.4166318614850707 1.7416612699560972  C 0.4166318614850707 1.3690564889398116  0.6358005926679706 1.1907381617107176  0.9428484167259865 1.1907381617107176  C 1.2498962407840022 1.1907381617107176  1.4251252740688543 1.3892836117151575  1.4251252740688543 1.7416612699560972  C 1.4251252740688543 1.7416612699560972  1.4251252740688543 2.9542236209148345  1.4251252740688543 2.9542236209148345  L 1.841757135553925 2.9542236209148345  C 1.841757135553925 2.9542236209148345  1.841757135553925 1.7416612699560972  1.841757135553925 1.7416612699560972  C 1.841757135553925 1.3690564889398116  2.0609258667368247 1.1907381617107176  2.3679736907948405 1.1907381617107176  C 2.675021514852857 1.1907381617107176  2.8502505481377085 1.3892836117151575  2.8502505481377085 1.7416612699560972  C 2.8502505481377085 1.7416612699560972  2.8502505481377085 2.9542236209148345  2.8502505481377085 2.9542236209148345  Z " stroke-width="0" stroke-dasharray="0" stroke="rgba(121, 121, 121, 1)" fill="none" transform="matrix(1 0 0 1 878 3915 )" class="stroke" mask="url(#Clip96)" />
    <path d="M 10.150047596349241 0.8623129471237878  L 10.150577506117072 0.8596521341734152  L 9.382957971215449 0.8596521341734152  L 9.382957971215449 0.22090108100264022  L 8.967384313687477 0.22090108100264022  L 8.967384313687477 0.8596521341734152  L 8.529047154242658 0.8596521341734152  L 8.529047154242658 1.2322569151897005  L 8.967384313687477 1.2322569151897005  C 8.967384313687477 1.2322569151897005  8.967384313687477 2.2265789980961705  8.967384313687477 2.2265789980961705  C 8.967384313687477 2.7114974876868363  9.142613346972329 2.9984031873441905  9.668829750752755 2.9984031873441905  C 9.868187639163654 2.994223797613675  10.063526536092974 2.9412394034843437  10.237926992145336 2.8440386743801724  C 10.237926992145336 2.8440386743801724  10.106108706240473 2.471433893363887  10.106108706240473 2.471433893363887  C 9.987825674406588 2.5457715607950275  9.85064773187082 2.5840442476221335  9.711180527136591 2.581618839898549  C 9.492011922170768 2.5816188398985522  9.382428061447618 2.4490777293502726  9.382428061447618 2.228708623113227  C 9.382428061447618 2.228708623113227  9.382428061447618 1.2152231639091098  9.382428061447618 1.2152231639091098  L 10.150047596349241 1.2152231639091098  L 10.150047596349241 0.8623129471237878  Z " stroke-width="0" stroke-dasharray="0" stroke="rgba(121, 121, 121, 1)" fill="none" transform="matrix(1 0 0 1 878 3915 )" class="stroke" mask="url(#Clip96)" />
    <path d="M 14.360309140255119 0.8378279449253956  C 14.259778142441224 0.8123449728896517  14.156866236210684 0.7975362540058224  14.053261972525892 0.7936467540681091  C 13.939781651857608 0.7911045919750713  13.827586530245018 0.818217736729236  13.727648575979888 0.8723324185999164  C 13.627710621714757 0.9264471004705968  13.543448897588457 1.0057119370138898  13.483104103808369 1.1023774044240753  C 13.483104103808369 1.1023774044240753  13.483104103808369 0.8362311322695858  13.483104103808369 0.8362311322695858  L 13.066472242323297 0.8362311322695858  L 13.066472242323297 2.952626808259025  L 13.483104103808369 2.952626808259025  C 13.483104103808369 2.952626808259025  13.483104103808369 1.7640166471374332  13.483104103808369 1.7640166471374332  C 13.483104103808369 1.411106684168975  13.658334575967874 1.1907381617107176  13.943677278770046 1.1907381617107176  C 14.039963722567563 1.1946655890265359  14.135504059369422 1.2094850641931614  14.228490854350254 1.2349177281400732  C 14.228490854350254 1.2349177281400732  14.360309140255119 0.8378279449253956  14.360309140255119 0.8378279449253956  Z " stroke-width="0" stroke-dasharray="0" stroke="rgba(121, 121, 121, 1)" fill="none" transform="matrix(1 0 0 1 878 3915 )" class="stroke" mask="url(#Clip96)" />
    <path d="M 7.9398327286152535 1.346699487330545  C 7.9398327286152535 1.346699487330545  8.155295978909255 1.0140166471374332  8.155295978909255 1.0140166471374332  C 7.93612737394343 0.859651804211492  7.629079878049808 0.7936467540681091  7.300326957979363 0.7936467540681091  C 6.774110554198938 0.7936467540681091  6.445356321470912 1.0363733949298355  6.445356321470912 1.4552876212093975  C 6.445356321470912 1.8081975841778553  6.686759452592112 2.0062091050268465  7.14680175853619 2.072745673065469  C 7.14680175853619 2.072745673065469  7.36597114604788 2.0945698623134885  7.36597114604788 2.0945698623134885  C 7.6073742519256635 2.1387501426027744  7.760897709573202 2.227110579445626  7.760897709573202 2.3372951325641482  C 7.760897709573202 2.49165997549009  7.585668752018595 2.6034414047186383  7.256386452292035 2.6034414047186383  C 7.004958050361235 2.6086427468074573  6.7586984396004715 2.5312776152748206  6.554941015226757 2.3830731360772446  C 6.554941015226757 2.3830731360772446  6.335773243293628 2.7136263512533  6.335773243293628 2.7136263512533  C 6.642821067351644 2.9339954574903455  7.015513584346476 2.97977262340779  7.235740973867946 2.97977262340779  C 7.849836621983979 2.97977262340779  8.178589390593933 2.693399431531445  8.178589390593933 2.2963091914464124  C 8.178589390593933 1.9237044104301266  7.913892292432926 1.7453860832010326  7.4549087458010765 1.67884951516241  C 7.4549087458010765 1.67884951516241  7.235740973867946 1.6570253259143903  7.235740973867946 1.6570253259143903  C 7.038277464914551 1.635201331788085  6.865166025984403 1.5686656092768911  6.865166025984403 1.4366570572729969  C 6.865166025984403 1.2822922143470559  7.04039478159169 1.1705107851185075  7.281797887469474 1.1705107851185075  C 7.546494278814861 1.1705107851185075  7.808013925220383 1.280695211328598  7.9398327286152535 1.346699487330545  Z " stroke-width="0" stroke-dasharray="0" stroke="rgba(121, 121, 121, 1)" fill="none" transform="matrix(1 0 0 1 878 3915 )" class="stroke" mask="url(#Clip96)" />
    <path d="M 14.51383110854117 1.8986865958704877  C 14.51383110854117 1.8986865958704877  14.51383110854117 1.8960257829201148  14.51383110854117 1.8960257829201148  C 14.51383110854117 2.5347768360908898  14.930464383657482 2.9984031873441905  15.610204724710329 2.9984031873441905  C 15.917252548768346 2.9984031873441905  16.13642206249711 2.9323990382506757  16.355590667462934 2.7556779170935304  C 16.355590667462934 2.7556779170935304  16.136421279951243 2.4251247019174746  16.136421279951243 2.4251247019174746  C 15.981243457236088 2.551484572300309  15.78817225200711 2.621445372945429  15.58850104232914 2.6236687813108484  C 15.217926094445597 2.623668781310852  14.93046620118336 2.3372953863810126  14.93046620118336 1.9183811601014509  C 14.93046620118336 1.499466933821889  15.214220335879133 1.2152231639091098  15.58850104232914 1.2152231639091098  C 15.78817225200711 1.2174465722745298  15.981243457236088 1.2874089973475797  16.136421279951243 1.4137688677304143  C 16.136421279951243 1.4137688677304143  16.355590667462934 1.0832140281264282  16.355590667462934 1.0832140281264282  C 16.13642206249711 0.9070251990059583  15.917252548768346 0.8404887578757682  15.610204724710329 0.8404887578757682  C 14.95216947966991 0.7963084775864819  14.51383110854117 1.259403237972194  14.51383110854117 1.8986865958704877  Z " stroke-width="0" stroke-dasharray="0" stroke="rgba(121, 121, 121, 1)" fill="none" transform="matrix(1 0 0 1 878 3915 )" class="stroke" mask="url(#Clip96)" />
    <path d="M 11.575701972396645 0.7936467540681091  C 10.961606324280615 0.7936467540681091  10.544974159874563 1.2343861340997746  10.544974159874563 1.8960257829201148  C 10.544974159874563 2.557665431740455  10.983311824187684 2.9984031873441905  11.619112568316146 2.9984031873441905  C 11.928424852917377 3.0049721054050083  12.230480766414313 2.9037976087676327  12.474081589246035 2.7120295385974904  C 12.474081589246035 2.7120295385974904  12.254913817312904 2.403300512669455  12.254913817312904 2.403300512669455  C 12.078738913267735 2.540565066223866  11.863618014168061 2.6177605568758073  11.640817866275892 2.6236687813108484  C 11.356004543129837 2.6236687813108452  11.048956734848954 2.447479622228455  11.005546527046961 2.072745673065469  C 11.005546527046961 2.072745673065469  12.56249089480996 2.072745673065469  12.56249089480996 2.072745673065469  C 12.56249089480996 2.072745673065469  12.56249089480996 1.8965569708534311  12.56249089480996 1.8965569708534311  C 12.56249089480996 1.2349173220330907  12.167563119600718 0.7941795664293558  11.575701972396645 0.7941795664293558  Z " stroke-width="0" stroke-dasharray="0" stroke="rgba(121, 121, 121, 1)" fill="none" transform="matrix(1 0 0 1 878 3915 )" class="stroke" mask="url(#Clip96)" />
    <path d="M 10.962135931127463 1.7198370807080772  C 11.027780636685987 1.4111073948561947  11.226831943821628 1.1907381617107176  11.553996674436897 1.1907381617107176  C 11.861044498494913 1.1907381617107176  12.080213423736565 1.3892834086616663  12.101918527637562 1.7198370807080772  C 12.101918527637562 1.7198370807080772  10.962135931127463 1.7198370807080772  10.962135931127463 1.7198370807080772  Z " stroke-width="0" stroke-dasharray="0" stroke="rgba(121, 121, 121, 1)" fill="none" transform="matrix(1 0 0 1 878 3915 )" class="stroke" mask="url(#Clip96)" />
    <path d="M 5.875200876121229 2.957417246226454  L 5.875200876121229 1.8960257829201148  L 5.875200876121229 0.8378279449253956  L 5.458569014636158 0.8378279449253956  C 5.458569014636158 0.8378279449253956  5.458569014636158 1.1039742170798852  5.458569014636158 1.1039742170798852  C 5.30504510260715 0.9054290970373684  5.087994268699935 0.7952435667239188  4.77882887553063 0.7952435667239188  C 4.1869677283265565 0.7952435667239188  3.748101063008547 1.258339237677631  3.748101063008547 1.8976225955759245  C 3.748101063008547 2.5369059534742178  4.186438373913856 3  4.77882887553063 3  C 5.0858766995886455 3  5.30504510260715 2.8898160941144804  5.458569014636158 2.691270974071964  C 5.458569014636158 2.691270974071964  5.458569014636158 2.957417246226454  5.458569014636158 2.957417246226454  L 5.875200876121229 2.957417246226454  Z " stroke-width="0" stroke-dasharray="0" stroke="rgba(121, 121, 121, 1)" fill="none" transform="matrix(1 0 0 1 878 3915 )" class="stroke" mask="url(#Clip96)" />
    <path d="M 4.845002973366976 2.6013134041295123  C 4.428370859447756 2.6231373982558175  4.186967324431917 2.29258371827763  4.186967324431917 1.8960257829201148  C 4.186967324431917 1.4989355428350817  4.428370859447756 1.1907381617107176  4.845002973366976 1.1907381617107176  C 5.239929991273769 1.1907381617107176  5.480274312595907 1.4994678475626  5.480274312595907 1.8960257829201148  C 5.480274312595907 2.3149400091996766  5.215577921250519 2.6013134041295123  4.845002973366976 2.6013134041295123  Z " stroke-width="0" stroke-dasharray="0" stroke="rgba(121, 121, 121, 1)" fill="none" transform="matrix(1 0 0 1 878 3915 )" class="stroke" mask="url(#Clip96)" />
    <path d="M 20.39062413733373 0.7936467540681091  C 20.277143816665447 0.7911045919750713  20.164948695052857 0.818217736729236  20.065010740787724 0.8723324185999164  C 19.96507278652259 0.9264471004705968  19.880811870185575 1.0057119370138898  19.820467076405485 1.1023774044240753  C 19.820467076405485 1.1023774044240753  19.820467076405485 0.8362311322695858  19.820467076405485 0.8362311322695858  L 19.403835214920417 0.8362311322695858  L 19.403835214920417 2.952626808259025  L 19.819937166637654 2.952626808259025  C 19.819937166637654 2.952626808259025  19.819937166637654 1.7640166471374332  19.819937166637654 1.7640166471374332  C 19.819937166637654 1.411106684168975  19.995166831007886 1.1907381617107176  20.280509533810058 1.1907381617107176  C 20.37679597760757 1.1946655890265359  20.47233631440943 1.2094850641931614  20.565323109390263 1.2349177281400732  C 20.565323109390263 1.2349177281400732  20.697141395295123 0.8378279449253956  20.697141395295123 0.8378279449253956  C 20.59661039748123 0.8123449728896517  20.493698491250694 0.7975362540058224  20.3900942275659 0.7936467540681091  Z " stroke-width="0" stroke-dasharray="0" stroke="rgba(121, 121, 121, 1)" fill="none" transform="matrix(1 0 0 1 878 3915 )" class="stroke" mask="url(#Clip96)" />
    <path d="M 18.768033965923653 2.957417246226454  L 18.768033965923653 1.8960257829201148  L 18.768033965923653 0.8378279449253956  L 18.351402104438584 0.8378279449253956  C 18.351402104438584 0.8378279449253956  18.351402104438584 1.1039742170798852  18.351402104438584 1.1039742170798852  C 18.197878192409576 0.9054290970373684  17.9808257429238 0.7952435667239188  17.671660349754493 0.7952435667239188  C 17.07979920255042 0.7952435667239188  16.640934152810974 1.258339237677631  16.640934152810974 1.8976225955759245  C 16.640934152810974 2.5369059534742178  17.07926984813772 3  17.671660349754493 3  C 17.97870817381251 3  18.197878192409576 2.8898160941144804  18.351402104438584 2.691270974071964  C 18.351402104438584 2.691270974071964  18.351402104438584 2.957417246226454  18.351402104438584 2.957417246226454  L 18.768033965923653 2.957417246226454  Z " stroke-width="0" stroke-dasharray="0" stroke="rgba(121, 121, 121, 1)" fill="none" transform="matrix(1 0 0 1 878 3915 )" class="stroke" mask="url(#Clip96)" />
    <path d="M 17.737834447590842 2.6013134041295123  C 17.32120233367162 2.6231373982558175  17.07979960644506 2.29258371827763  17.07979960644506 1.8960257829201148  C 17.07979960644506 1.4989355428350817  17.32120233367162 1.1907381617107176  17.737834447590842 1.1907381617107176  C 18.132761465497637 1.1907381617107176  18.37310578681977 1.4994678475626  18.37310578681977 1.8960257829201148  C 18.37310578681977 2.3149400091996766  18.108409395474386 2.6013134041295123  17.737834447590842 2.6013134041295123  Z " stroke-width="0" stroke-dasharray="0" stroke="rgba(121, 121, 121, 1)" fill="none" transform="matrix(1 0 0 1 878 3915 )" class="stroke" mask="url(#Clip96)" />
    <path d="M 23 2.955820433570644  L 23 1.8960257829201148  L 23 0  L 22.583368138514928 0  C 22.583368138514928 0  22.583368138514928 1.1023774044240753  22.583368138514928 1.1023774044240753  C 22.42984422648592 0.9038322843815585  22.212791777000145 0.7936467540681091  21.903626383830844 0.7936467540681091  C 21.311765236626766 0.7936467540681091  20.872900186887314 1.2567424250218213  20.872900186887314 1.8960257829201148  C 20.872900186887314 2.5353091408184083  21.311235882214067 2.9984031873441905  21.903626383830844 2.9984031873441905  C 22.210674207888857 2.9984031873441905  22.42984422648592 2.888219281458671  22.583368138514928 2.6896741614161543  C 22.583368138514928 2.6896741614161543  22.583368138514928 2.955820433570644  22.583368138514928 2.955820433570644  L 23 2.955820433570644  Z " stroke-width="0" stroke-dasharray="0" stroke="rgba(121, 121, 121, 1)" fill="none" transform="matrix(1 0 0 1 878 3915 )" class="stroke" mask="url(#Clip96)" />
    <path d="M 21.311765640521408 1.8960257829201148  C 21.311765640521408 1.4989355428350817  21.553168367747965 1.1907381617107176  21.969800481667185 1.1907381617107176  C 22.364727499573977 1.1907381617107176  22.605071820896118 1.4994678475626  22.605071820896118 1.8960257829201148  C 22.605071820896118 2.3149400091996766  22.34037542955073 2.6013134041295123  21.969800481667185 2.6013134041295123  C 21.552638962848434 2.6236696902924934  21.311235730753577 2.2931160230051484  21.311235730753577 1.8960257829201148  Z " stroke-width="0" stroke-dasharray="0" stroke="rgba(121, 121, 121, 1)" fill="none" transform="matrix(1 0 0 1 878 3915 )" class="stroke" mask="url(#Clip96)" />
  </g>
</svg>