<?xml version="1.0" encoding="utf-8"?>
<svg version="1.1" xmlns:xlink="http://www.w3.org/1999/xlink" width="10px" height="7px" xmlns="http://www.w3.org/2000/svg">
  <defs>
    <pattern id="BGPattern" patternUnits="userSpaceOnUse" alignment="0 0" imageRepeat="None" />
    <mask fill="white" id="Clip95">
      <path d="M 6.169912561933634 2.735751362925441  C 9.058174946358875 4.63405671683044  10 7  10 7  C 10 7  8.601144914254448 1.1677066119725699  8.601144914254448 1.1677066119725699  C 8.601144914254448 1.1677066119725699  8.432000725724464 0  6.629079114476028 0  C 6.629079114476028 0  0.07688377760602334 0  0.07688377760602334 0  C 0.07688377760602334 0  0 0.2195954242532575  0 0.2195954242532575  C 0 0.2195954242532575  3.1492394761194857 0.749677216794425  6.169912561933634 2.735751362925441  Z " fill-rule="evenodd" />
    </mask>
  </defs>
  <g transform="matrix(1 0 0 1 -786 -3901 )">
    <path d="M 6.169912561933634 2.735751362925441  C 9.058174946358875 4.63405671683044  10 7  10 7  C 10 7  8.601144914254448 1.1677066119725699  8.601144914254448 1.1677066119725699  C 8.601144914254448 1.1677066119725699  8.432000725724464 0  6.629079114476028 0  C 6.629079114476028 0  0.07688377760602334 0  0.07688377760602334 0  C 0.07688377760602334 0  0 0.2195954242532575  0 0.2195954242532575  C 0 0.2195954242532575  3.1492394761194857 0.749677216794425  6.169912561933634 2.735751362925441  Z " fill-rule="nonzero" fill="rgba(230, 165, 64, 1)" stroke="none" transform="matrix(1 0 0 1 786 3901 )" class="fill" />
    <path d="M 6.169912561933634 2.735751362925441  C 9.058174946358875 4.63405671683044  10 7  10 7  C 10 7  8.601144914254448 1.1677066119725699  8.601144914254448 1.1677066119725699  C 8.601144914254448 1.1677066119725699  8.432000725724464 0  6.629079114476028 0  C 6.629079114476028 0  0.07688377760602334 0  0.07688377760602334 0  C 0.07688377760602334 0  0 0.2195954242532575  0 0.2195954242532575  C 0 0.2195954242532575  3.1492394761194857 0.749677216794425  6.169912561933634 2.735751362925441  Z " stroke-width="0" stroke-dasharray="0" stroke="rgba(121, 121, 121, 1)" fill="none" transform="matrix(1 0 0 1 786 3901 )" class="stroke" mask="url(#Clip95)" />
  </g>
</svg>