<?xml version="1.0" encoding="utf-8"?>
<svg version="1.1" xmlns:xlink="http://www.w3.org/1999/xlink" width="35px" height="15px" xmlns="http://www.w3.org/2000/svg">
  <defs>
    <pattern id="BGPattern" patternUnits="userSpaceOnUse" alignment="0 0" imageRepeat="None" />
    <mask fill="white" id="Clip100">
      <path d="M 6.998789983249659 0  C 7.067704593386726 0.7124039497660749  6.797515585487571 1.4123891746705386  6.393872888763465 1.933990827327827  C 5.982573014040802 2.439786371337747  5.327337311964025 2.8405846094002016  4.673195478486938 2.781876198642748  C 4.586778742553135 2.0999554728310517  4.9127559944435175 1.3694868557369255  5.289051650172954 0.9167547053120788  C 5.699257656295929 0.40079812029775647  6.416844390158889 0.03048321343967347  6.998789983249659 0  Z M 6.991132837851347 2.9173570145445726  C 6.991132837851347 2.9173570145445726  6.9922266412505465 2.91622755014542  6.9922266412505465 2.91622755014542  C 6.0416425704288965 2.8563901334299606  5.225606162982682 3.479603100395926  4.774926497067304 3.479603100395926  C 4.314401883353747 3.479603100395926  3.624162320886433 2.9455815473329836  2.872664943227736 2.9636456742051864  C 1.8980155024109724 2.976064760772657  0.9868109945803266 3.5507305556620303  0.4912821292732996 4.4753880124742835  C -0.5402492611331585 6.314541784153216  0.22328076892285093 9.037708310273883  1.2143384995369049 10.53703071238733  C 1.69892851584582 11.277659899427062  2.278686534738433 12.089416024409404  3.0433105311948645 12.066835867396357  C 3.7663669992592035 12.036352653956683  4.057339763204342 11.573459115542162  4.929164251640564 11.573459115542162  C 5.811927556474651 11.573459115542162  6.06242646502592 12.066837177528628  6.8325198696812866 12.048773050656424  C 7.623397038532699 12.036353964088953  8.124395409839392 11.308143594440237  8.608985426148307 10.567514407400502  C 9.16139617584454 9.726403534480642  9.388923232547759 8.902228150489664  9.400955941995498 8.861583868707356  C 9.388923232547759 8.843519741835152  7.868426549072611 8.238370662006108  7.857487722487167 6.415022931680432  C 7.845455013039427 4.8852172383184955  9.05310135071158 4.157007516375619  9.104513835051913 4.115234224429422  C 8.426306566379225 3.057353871101948  7.355395775982983 2.9455822118623534  6.991132837851347 2.9173570145445726  Z M 16.484941056671754 0.8467559069157676  C 16.484941056671754 0.8467559069157676  13 0.845627519222429  13 0.845627519222429  L 13 11.971999619276824  L 14.136374594110192 11.971999619276824  L 14.136374594110192 8.168372671139158  C 14.136374594110192 8.168372671139158  16.428059107082063 8.168372671139158  16.428059107082063 8.168372671139158  C 18.518468928889646 8.168372671139158  19.988648408622232 6.669050403613942  19.988648408622232 4.504742243088302  C 19.988648408622232 2.3359181092012262  18.54800383748467 0.8467559069157676  16.484941056671754 0.8467559069157676  Z M 14.136374594110192 6.720983962682238  L 14.136374594110192 2.3043054881418077  C 14.136374594110192 2.3043054881418077  16.045199750750825 2.3043054881418077  16.045199750750825 2.3043054881418077  C 17.480373870481635 2.3043054881418077  18.30188151174047 3.1036431364095822  18.30188151174047 4.509257947273285  C 18.30188151174047 5.9148727581369895  17.48037360967968 6.720983962682238  16.034260673551 6.720983962682238  C 16.034260673551 6.720983962682238  14.136374594110192 6.720983962682238  14.136374594110192 6.720983962682238  Z M 23.0077648640572 12.055545530228086  C 23.0077648640572 12.055545530228086  23.006669495846275 12.054417142534747  23.006669495846275 12.054417142534747  C 24.049139702650596 12.054417142534747  25.01175711047469 11.50797676156608  25.4514979599922 10.636382664691844  C 25.4514979599922 10.636382664691844  25.48650175518225 10.636382664691844  25.48650175518225 10.636382664691844  L 25.48650175518225 11.971999619276824  L 27.01793709409156 11.971999619276824  C 27.01793709409156 11.971999619276824  27.01793709409156 6.43195843743284  27.01793709409156 6.43195843743284  C 27.01793709409156 4.833283275485519  25.788413791928683 3.79346715207436  23.89052732128494 3.79346715207436  C 22.135939528014628 3.79346715207436  20.83640667130693 4.845702673288264  20.791557480065343 6.286316748761896  C 20.791557480065343 6.286316748761896  22.278145314795704 6.286316748761896  22.278145314795704 6.286316748761896  C 22.403941825622102 5.598750921660177  23.007763625247918 5.151663704290069  23.84567773069036 5.151663704290069  C 24.859706962699835 5.151663704290069  25.424151310200468 5.645039917791358  25.424151310200468 6.55163321198141  C 25.424151310200468 6.55163321198141  25.424151310200468 7.162426886291683  25.424151310200468 7.162426886291683  C 25.424151310200468 7.162426886291683  23.36218220238577 7.292262533609372  23.36218220238577 7.292262533609372  C 21.43585475694718 7.4153243891201885  20.39885441474521 8.23272603177488  20.39885441474521 9.662050039256693  C 20.39885441474521 11.102664114730326  21.470859725746028 12.055545530228086  23.0077648640572 12.055545530228086  Z M 23.450786015364006 10.736865158101327  C 23.450786015364006 10.736865158101327  23.457349878967026 10.736865158101327  23.457349878967026 10.736865158101327  C 22.57349264033276 10.736865158101327  22.010143139439144 10.295422705550676  22.010143139439144 9.620276007075248  C 22.010143139439144 8.920291118641352  22.55161539873996 8.508204074351704  23.582052855346237 8.442721619434453  C 23.582052855346237 8.442721619434453  25.423058028405173 8.325304696978376  25.423058028405173 8.325304696978376  C 25.423058028405173 8.325304696978376  25.423058028405173 8.95416118802858  25.423058028405173 8.95416118802858  C 25.423058028405173 9.996235432708687  24.574203476552654 10.736865158101327  23.450786015364006 10.736865158101327  Z M 29.058030133922248 14.99435375471005  C 29.058030133922248 14.99435375471005  29.063498629314342 15  29.063498629314342 15  C 30.67478787561219 15  31.43394233346871 14.353077462092418  32.09464744374442 12.40666790990298  C 32.09464744374442 12.40666790990298  35 3.9041094415471487  35 3.9041094415471487  L 33.319796966721256 3.9041094415471487  L 31.371591758085945 10.471547618176002  L 31.33658587648026 10.471547618176002  L 29.38838275426059 3.9041094415471487  L 27.656766266784242 3.9041094415471487  L 30.460387282855542 12.001354926596658  C 30.460387282855542 12.001354926596658  30.311619588486106 12.494729525039224  30.311619588486106 12.494729525039224  C 30.05455715863438 13.324550329967263  29.645443961603156 13.646318075263459  28.91582421674019 13.646318075263459  C 28.784558297714863 13.646318075263459  28.534060375320983 13.629383387555116  28.43123540664032 13.618093309048591  C 28.43123540664032 13.618093309048591  28.43123540664032 14.953710263633571  28.43123540664032 14.953710263633571  C 28.527497082222244 14.981935460951354  28.93879692434466 14.99435375471005  29.058030133922248 14.99435375471005  Z " fill-rule="evenodd" />
    </mask>
  </defs>
  <g transform="matrix(1 0 0 1 -942 -3901 )">
    <path d="M 6.998789983249659 0  C 7.067704593386726 0.7124039497660749  6.797515585487571 1.4123891746705386  6.393872888763465 1.933990827327827  C 5.982573014040802 2.439786371337747  5.327337311964025 2.8405846094002016  4.673195478486938 2.781876198642748  C 4.586778742553135 2.0999554728310517  4.9127559944435175 1.3694868557369255  5.289051650172954 0.9167547053120788  C 5.699257656295929 0.40079812029775647  6.416844390158889 0.03048321343967347  6.998789983249659 0  Z M 6.991132837851347 2.9173570145445726  C 6.991132837851347 2.9173570145445726  6.9922266412505465 2.91622755014542  6.9922266412505465 2.91622755014542  C 6.0416425704288965 2.8563901334299606  5.225606162982682 3.479603100395926  4.774926497067304 3.479603100395926  C 4.314401883353747 3.479603100395926  3.624162320886433 2.9455815473329836  2.872664943227736 2.9636456742051864  C 1.8980155024109724 2.976064760772657  0.9868109945803266 3.5507305556620303  0.4912821292732996 4.4753880124742835  C -0.5402492611331585 6.314541784153216  0.22328076892285093 9.037708310273883  1.2143384995369049 10.53703071238733  C 1.69892851584582 11.277659899427062  2.278686534738433 12.089416024409404  3.0433105311948645 12.066835867396357  C 3.7663669992592035 12.036352653956683  4.057339763204342 11.573459115542162  4.929164251640564 11.573459115542162  C 5.811927556474651 11.573459115542162  6.06242646502592 12.066837177528628  6.8325198696812866 12.048773050656424  C 7.623397038532699 12.036353964088953  8.124395409839392 11.308143594440237  8.608985426148307 10.567514407400502  C 9.16139617584454 9.726403534480642  9.388923232547759 8.902228150489664  9.400955941995498 8.861583868707356  C 9.388923232547759 8.843519741835152  7.868426549072611 8.238370662006108  7.857487722487167 6.415022931680432  C 7.845455013039427 4.8852172383184955  9.05310135071158 4.157007516375619  9.104513835051913 4.115234224429422  C 8.426306566379225 3.057353871101948  7.355395775982983 2.9455822118623534  6.991132837851347 2.9173570145445726  Z M 16.484941056671754 0.8467559069157676  C 16.484941056671754 0.8467559069157676  13 0.845627519222429  13 0.845627519222429  L 13 11.971999619276824  L 14.136374594110192 11.971999619276824  L 14.136374594110192 8.168372671139158  C 14.136374594110192 8.168372671139158  16.428059107082063 8.168372671139158  16.428059107082063 8.168372671139158  C 18.518468928889646 8.168372671139158  19.988648408622232 6.669050403613942  19.988648408622232 4.504742243088302  C 19.988648408622232 2.3359181092012262  18.54800383748467 0.8467559069157676  16.484941056671754 0.8467559069157676  Z M 14.136374594110192 6.720983962682238  L 14.136374594110192 2.3043054881418077  C 14.136374594110192 2.3043054881418077  16.045199750750825 2.3043054881418077  16.045199750750825 2.3043054881418077  C 17.480373870481635 2.3043054881418077  18.30188151174047 3.1036431364095822  18.30188151174047 4.509257947273285  C 18.30188151174047 5.9148727581369895  17.48037360967968 6.720983962682238  16.034260673551 6.720983962682238  C 16.034260673551 6.720983962682238  14.136374594110192 6.720983962682238  14.136374594110192 6.720983962682238  Z M 23.0077648640572 12.055545530228086  C 23.0077648640572 12.055545530228086  23.006669495846275 12.054417142534747  23.006669495846275 12.054417142534747  C 24.049139702650596 12.054417142534747  25.01175711047469 11.50797676156608  25.4514979599922 10.636382664691844  C 25.4514979599922 10.636382664691844  25.48650175518225 10.636382664691844  25.48650175518225 10.636382664691844  L 25.48650175518225 11.971999619276824  L 27.01793709409156 11.971999619276824  C 27.01793709409156 11.971999619276824  27.01793709409156 6.43195843743284  27.01793709409156 6.43195843743284  C 27.01793709409156 4.833283275485519  25.788413791928683 3.79346715207436  23.89052732128494 3.79346715207436  C 22.135939528014628 3.79346715207436  20.83640667130693 4.845702673288264  20.791557480065343 6.286316748761896  C 20.791557480065343 6.286316748761896  22.278145314795704 6.286316748761896  22.278145314795704 6.286316748761896  C 22.403941825622102 5.598750921660177  23.007763625247918 5.151663704290069  23.84567773069036 5.151663704290069  C 24.859706962699835 5.151663704290069  25.424151310200468 5.645039917791358  25.424151310200468 6.55163321198141  C 25.424151310200468 6.55163321198141  25.424151310200468 7.162426886291683  25.424151310200468 7.162426886291683  C 25.424151310200468 7.162426886291683  23.36218220238577 7.292262533609372  23.36218220238577 7.292262533609372  C 21.43585475694718 7.4153243891201885  20.39885441474521 8.23272603177488  20.39885441474521 9.662050039256693  C 20.39885441474521 11.102664114730326  21.470859725746028 12.055545530228086  23.0077648640572 12.055545530228086  Z M 23.450786015364006 10.736865158101327  C 23.450786015364006 10.736865158101327  23.457349878967026 10.736865158101327  23.457349878967026 10.736865158101327  C 22.57349264033276 10.736865158101327  22.010143139439144 10.295422705550676  22.010143139439144 9.620276007075248  C 22.010143139439144 8.920291118641352  22.55161539873996 8.508204074351704  23.582052855346237 8.442721619434453  C 23.582052855346237 8.442721619434453  25.423058028405173 8.325304696978376  25.423058028405173 8.325304696978376  C 25.423058028405173 8.325304696978376  25.423058028405173 8.95416118802858  25.423058028405173 8.95416118802858  C 25.423058028405173 9.996235432708687  24.574203476552654 10.736865158101327  23.450786015364006 10.736865158101327  Z M 29.058030133922248 14.99435375471005  C 29.058030133922248 14.99435375471005  29.063498629314342 15  29.063498629314342 15  C 30.67478787561219 15  31.43394233346871 14.353077462092418  32.09464744374442 12.40666790990298  C 32.09464744374442 12.40666790990298  35 3.9041094415471487  35 3.9041094415471487  L 33.319796966721256 3.9041094415471487  L 31.371591758085945 10.471547618176002  L 31.33658587648026 10.471547618176002  L 29.38838275426059 3.9041094415471487  L 27.656766266784242 3.9041094415471487  L 30.460387282855542 12.001354926596658  C 30.460387282855542 12.001354926596658  30.311619588486106 12.494729525039224  30.311619588486106 12.494729525039224  C 30.05455715863438 13.324550329967263  29.645443961603156 13.646318075263459  28.91582421674019 13.646318075263459  C 28.784558297714863 13.646318075263459  28.534060375320983 13.629383387555116  28.43123540664032 13.618093309048591  C 28.43123540664032 13.618093309048591  28.43123540664032 14.953710263633571  28.43123540664032 14.953710263633571  C 28.527497082222244 14.981935460951354  28.93879692434466 14.99435375471005  29.058030133922248 14.99435375471005  Z " fill-rule="nonzero" fill="rgba(0, 0, 0, 1)" stroke="none" transform="matrix(1 0 0 1 942 3901 )" class="fill" />
    <path d="M 6.998789983249659 0  C 7.067704593386726 0.7124039497660749  6.797515585487571 1.4123891746705386  6.393872888763465 1.933990827327827  C 5.982573014040802 2.439786371337747  5.327337311964025 2.8405846094002016  4.673195478486938 2.781876198642748  C 4.586778742553135 2.0999554728310517  4.9127559944435175 1.3694868557369255  5.289051650172954 0.9167547053120788  C 5.699257656295929 0.40079812029775647  6.416844390158889 0.03048321343967347  6.998789983249659 0  Z " stroke-width="0" stroke-dasharray="0" stroke="rgba(121, 121, 121, 1)" fill="none" transform="matrix(1 0 0 1 942 3901 )" class="stroke" mask="url(#Clip100)" />
    <path d="M 6.991132837851347 2.9173570145445726  C 6.991132837851347 2.9173570145445726  6.9922266412505465 2.91622755014542  6.9922266412505465 2.91622755014542  C 6.0416425704288965 2.8563901334299606  5.225606162982682 3.479603100395926  4.774926497067304 3.479603100395926  C 4.314401883353747 3.479603100395926  3.624162320886433 2.9455815473329836  2.872664943227736 2.9636456742051864  C 1.8980155024109724 2.976064760772657  0.9868109945803266 3.5507305556620303  0.4912821292732996 4.4753880124742835  C -0.5402492611331585 6.314541784153216  0.22328076892285093 9.037708310273883  1.2143384995369049 10.53703071238733  C 1.69892851584582 11.277659899427062  2.278686534738433 12.089416024409404  3.0433105311948645 12.066835867396357  C 3.7663669992592035 12.036352653956683  4.057339763204342 11.573459115542162  4.929164251640564 11.573459115542162  C 5.811927556474651 11.573459115542162  6.06242646502592 12.066837177528628  6.8325198696812866 12.048773050656424  C 7.623397038532699 12.036353964088953  8.124395409839392 11.308143594440237  8.608985426148307 10.567514407400502  C 9.16139617584454 9.726403534480642  9.388923232547759 8.902228150489664  9.400955941995498 8.861583868707356  C 9.388923232547759 8.843519741835152  7.868426549072611 8.238370662006108  7.857487722487167 6.415022931680432  C 7.845455013039427 4.8852172383184955  9.05310135071158 4.157007516375619  9.104513835051913 4.115234224429422  C 8.426306566379225 3.057353871101948  7.355395775982983 2.9455822118623534  6.991132837851347 2.9173570145445726  Z " stroke-width="0" stroke-dasharray="0" stroke="rgba(121, 121, 121, 1)" fill="none" transform="matrix(1 0 0 1 942 3901 )" class="stroke" mask="url(#Clip100)" />
    <path d="M 16.484941056671754 0.8467559069157676  C 16.484941056671754 0.8467559069157676  13 0.845627519222429  13 0.845627519222429  L 13 11.971999619276824  L 14.136374594110192 11.971999619276824  L 14.136374594110192 8.168372671139158  C 14.136374594110192 8.168372671139158  16.428059107082063 8.168372671139158  16.428059107082063 8.168372671139158  C 18.518468928889646 8.168372671139158  19.988648408622232 6.669050403613942  19.988648408622232 4.504742243088302  C 19.988648408622232 2.3359181092012262  18.54800383748467 0.8467559069157676  16.484941056671754 0.8467559069157676  Z " stroke-width="0" stroke-dasharray="0" stroke="rgba(121, 121, 121, 1)" fill="none" transform="matrix(1 0 0 1 942 3901 )" class="stroke" mask="url(#Clip100)" />
    <path d="M 14.136374594110192 6.720983962682238  L 14.136374594110192 2.3043054881418077  C 14.136374594110192 2.3043054881418077  16.045199750750825 2.3043054881418077  16.045199750750825 2.3043054881418077  C 17.480373870481635 2.3043054881418077  18.30188151174047 3.1036431364095822  18.30188151174047 4.509257947273285  C 18.30188151174047 5.9148727581369895  17.48037360967968 6.720983962682238  16.034260673551 6.720983962682238  C 16.034260673551 6.720983962682238  14.136374594110192 6.720983962682238  14.136374594110192 6.720983962682238  Z " stroke-width="0" stroke-dasharray="0" stroke="rgba(121, 121, 121, 1)" fill="none" transform="matrix(1 0 0 1 942 3901 )" class="stroke" mask="url(#Clip100)" />
    <path d="M 23.0077648640572 12.055545530228086  C 23.0077648640572 12.055545530228086  23.006669495846275 12.054417142534747  23.006669495846275 12.054417142534747  C 24.049139702650596 12.054417142534747  25.01175711047469 11.50797676156608  25.4514979599922 10.636382664691844  C 25.4514979599922 10.636382664691844  25.48650175518225 10.636382664691844  25.48650175518225 10.636382664691844  L 25.48650175518225 11.971999619276824  L 27.01793709409156 11.971999619276824  C 27.01793709409156 11.971999619276824  27.01793709409156 6.43195843743284  27.01793709409156 6.43195843743284  C 27.01793709409156 4.833283275485519  25.788413791928683 3.79346715207436  23.89052732128494 3.79346715207436  C 22.135939528014628 3.79346715207436  20.83640667130693 4.845702673288264  20.791557480065343 6.286316748761896  C 20.791557480065343 6.286316748761896  22.278145314795704 6.286316748761896  22.278145314795704 6.286316748761896  C 22.403941825622102 5.598750921660177  23.007763625247918 5.151663704290069  23.84567773069036 5.151663704290069  C 24.859706962699835 5.151663704290069  25.424151310200468 5.645039917791358  25.424151310200468 6.55163321198141  C 25.424151310200468 6.55163321198141  25.424151310200468 7.162426886291683  25.424151310200468 7.162426886291683  C 25.424151310200468 7.162426886291683  23.36218220238577 7.292262533609372  23.36218220238577 7.292262533609372  C 21.43585475694718 7.4153243891201885  20.39885441474521 8.23272603177488  20.39885441474521 9.662050039256693  C 20.39885441474521 11.102664114730326  21.470859725746028 12.055545530228086  23.0077648640572 12.055545530228086  Z " stroke-width="0" stroke-dasharray="0" stroke="rgba(121, 121, 121, 1)" fill="none" transform="matrix(1 0 0 1 942 3901 )" class="stroke" mask="url(#Clip100)" />
    <path d="M 23.450786015364006 10.736865158101327  C 23.450786015364006 10.736865158101327  23.457349878967026 10.736865158101327  23.457349878967026 10.736865158101327  C 22.57349264033276 10.736865158101327  22.010143139439144 10.295422705550676  22.010143139439144 9.620276007075248  C 22.010143139439144 8.920291118641352  22.55161539873996 8.508204074351704  23.582052855346237 8.442721619434453  C 23.582052855346237 8.442721619434453  25.423058028405173 8.325304696978376  25.423058028405173 8.325304696978376  C 25.423058028405173 8.325304696978376  25.423058028405173 8.95416118802858  25.423058028405173 8.95416118802858  C 25.423058028405173 9.996235432708687  24.574203476552654 10.736865158101327  23.450786015364006 10.736865158101327  Z " stroke-width="0" stroke-dasharray="0" stroke="rgba(121, 121, 121, 1)" fill="none" transform="matrix(1 0 0 1 942 3901 )" class="stroke" mask="url(#Clip100)" />
    <path d="M 29.058030133922248 14.99435375471005  C 29.058030133922248 14.99435375471005  29.063498629314342 15  29.063498629314342 15  C 30.67478787561219 15  31.43394233346871 14.353077462092418  32.09464744374442 12.40666790990298  C 32.09464744374442 12.40666790990298  35 3.9041094415471487  35 3.9041094415471487  L 33.319796966721256 3.9041094415471487  L 31.371591758085945 10.471547618176002  L 31.33658587648026 10.471547618176002  L 29.38838275426059 3.9041094415471487  L 27.656766266784242 3.9041094415471487  L 30.460387282855542 12.001354926596658  C 30.460387282855542 12.001354926596658  30.311619588486106 12.494729525039224  30.311619588486106 12.494729525039224  C 30.05455715863438 13.324550329967263  29.645443961603156 13.646318075263459  28.91582421674019 13.646318075263459  C 28.784558297714863 13.646318075263459  28.534060375320983 13.629383387555116  28.43123540664032 13.618093309048591  C 28.43123540664032 13.618093309048591  28.43123540664032 14.953710263633571  28.43123540664032 14.953710263633571  C 28.527497082222244 14.981935460951354  28.93879692434466 14.99435375471005  29.058030133922248 14.99435375471005  Z " stroke-width="0" stroke-dasharray="0" stroke="rgba(121, 121, 121, 1)" fill="none" transform="matrix(1 0 0 1 942 3901 )" class="stroke" mask="url(#Clip100)" />
  </g>
</svg>