<?xml version="1.0" encoding="utf-8"?>
<svg version="1.1" xmlns:xlink="http://www.w3.org/1999/xlink" width="17px" height="17px" xmlns="http://www.w3.org/2000/svg">
  <defs>
    <pattern id="BGPattern" patternUnits="userSpaceOnUse" alignment="0 0" imageRepeat="None" />
    <mask fill="white" id="Clip101">
      <path d="M 17 8.5  C 17 7.930075016617774  16.941350020468235 7.373750060796739  16.83467502593994 6.835275077819825  C 16.83467502593994 6.835275077819825  16.15 6.835275077819825  16.15 6.835275077819825  L 16.15 6.800000000000001  L 8.5 6.800000000000001  L 8.5 10.200000000000001  C 8.5 10.200000000000001  13.303775596618651 10.200000000000001  13.303775596618651 10.200000000000001  C 12.60295057594776 12.179225027561188  10.719775021076202 13.600000000000001  8.5 13.600000000000001  C 5.6835250616073605 13.600000000000001  3.4 11.316474938392638  3.4 8.5  C 3.4 5.683525061607361  5.6835250616073605 3.4000000000000004  8.5 3.4000000000000004  C 9.800075006484985 3.4000000000000004  10.982850205898284 3.890449815988541  11.883425188064574 4.691574811935425  C 11.883425188064574 4.691574811935425  14.287650012969971 2.2873499870300296  14.287650012969971 2.2873499870300296  C 12.769550001621246 0.8725249886512757  10.73890005350113 0  8.5 0  C 3.8058749675750736 0  0 3.805874967575073  0 8.5  C 0 13.194125032424928  3.8058749675750736 17  8.5 17  C 13.194125032424926 17  17 13.194125032424928  17 8.5  Z " fill-rule="evenodd" />
    </mask>
  </defs>
  <g transform="matrix(1 0 0 1 -1017 -3899 )">
    <path d="M 17 8.5  C 17 7.930075016617774  16.941350020468235 7.373750060796739  16.83467502593994 6.835275077819825  C 16.83467502593994 6.835275077819825  16.15 6.835275077819825  16.15 6.835275077819825  L 16.15 6.800000000000001  L 8.5 6.800000000000001  L 8.5 10.200000000000001  C 8.5 10.200000000000001  13.303775596618651 10.200000000000001  13.303775596618651 10.200000000000001  C 12.60295057594776 12.179225027561188  10.719775021076202 13.600000000000001  8.5 13.600000000000001  C 5.6835250616073605 13.600000000000001  3.4 11.316474938392638  3.4 8.5  C 3.4 5.683525061607361  5.6835250616073605 3.4000000000000004  8.5 3.4000000000000004  C 9.800075006484985 3.4000000000000004  10.982850205898284 3.890449815988541  11.883425188064574 4.691574811935425  C 11.883425188064574 4.691574811935425  14.287650012969971 2.2873499870300296  14.287650012969971 2.2873499870300296  C 12.769550001621246 0.8725249886512757  10.73890005350113 0  8.5 0  C 3.8058749675750736 0  0 3.805874967575073  0 8.5  C 0 13.194125032424928  3.8058749675750736 17  8.5 17  C 13.194125032424926 17  17 13.194125032424928  17 8.5  Z " fill-rule="nonzero" fill="rgba(255, 193, 7, 1)" stroke="none" transform="matrix(1 0 0 1 1017 3899 )" class="fill" />
    <path d="M 17 8.5  C 17 7.930075016617774  16.941350020468235 7.373750060796739  16.83467502593994 6.835275077819825  C 16.83467502593994 6.835275077819825  16.15 6.835275077819825  16.15 6.835275077819825  L 16.15 6.800000000000001  L 8.5 6.800000000000001  L 8.5 10.200000000000001  C 8.5 10.200000000000001  13.303775596618651 10.200000000000001  13.303775596618651 10.200000000000001  C 12.60295057594776 12.179225027561188  10.719775021076202 13.600000000000001  8.5 13.600000000000001  C 5.6835250616073605 13.600000000000001  3.4 11.316474938392638  3.4 8.5  C 3.4 5.683525061607361  5.6835250616073605 3.4000000000000004  8.5 3.4000000000000004  C 9.800075006484985 3.4000000000000004  10.982850205898284 3.890449815988541  11.883425188064574 4.691574811935425  C 11.883425188064574 4.691574811935425  14.287650012969971 2.2873499870300296  14.287650012969971 2.2873499870300296  C 12.769550001621246 0.8725249886512757  10.73890005350113 0  8.5 0  C 3.8058749675750736 0  0 3.805874967575073  0 8.5  C 0 13.194125032424928  3.8058749675750736 17  8.5 17  C 13.194125032424926 17  17 13.194125032424928  17 8.5  Z " stroke-width="0" stroke-dasharray="0" stroke="rgba(121, 121, 121, 1)" fill="none" transform="matrix(1 0 0 1 1017 3899 )" class="stroke" mask="url(#Clip101)" />
  </g>
</svg>