<?xml version="1.0" encoding="utf-8"?>
<svg version="1.1" xmlns:xlink="http://www.w3.org/1999/xlink" width="11px" height="13px" xmlns="http://www.w3.org/2000/svg">
  <defs>
    <pattern id="BGPattern" patternUnits="userSpaceOnUse" alignment="0 0" imageRepeat="None" />
    <mask fill="white" id="Clip110">
      <path d="M 11 3.2866630239210477  C 11.000087285772786 2.132536778833753  10.633402368861002 1.2962056422023662  9.900638301156945 0.7774901482681692  C 9.167612436747282 0.25958190808278925  8.211135134472471 0  7.030769705773649 0  C 7.030769705773649 0  2.4902503864708128 0  2.4902503864708128 0  C 2.1092480263275393 0  1.8997623319434662 0.18594072589602592  1.8619675942672462 0.5574641015841733  C 1.8619675942672462 0.5574641015841733  0.005834401277101766 12.53043682415751  0.005834401277101766 12.53043682415751  C -0.013455753665570091 12.648029078697256  0.015088272294605931 12.75557585928921  0.0914633198561696 12.853345166992513  C 0.16705279520860947 12.951293865605848  0.26271765563944693 13  0.37697472812342125 13  C 0.37697472812342125 13  2.7185018190690013 13  2.7185018190690013 13  C 2.946928684594715 13  3.099156273657811 12.872988327290168  3.1754440365745022 12.618608744905684  C 3.1754440365745022 12.618608744905684  3.6895558287244903 9.214711638782818  3.6895558287244903 9.214711638782818  C 3.708409555240164 9.05828075501167  3.7750966328380473 8.931091156287474  3.889440984764257 8.833142457674139  C 4.003698057248231 8.735373149970837  4.146322082633468 8.671419031482047  4.317838620928057 8.642088240774957  C 4.489093300085392 8.613026539106084  4.650660283718159 8.598406035587308  4.8033230889937775 8.598406035587308  C 4.955462186400162 8.598406035587308  5.13623006462924 8.608272291044353  5.345715917693749 8.627736454724147  C 5.555114470505473 8.647290315195539  5.688750482237175 8.656798616177792  5.745486229773282 8.656798616177792  C 7.382880031650196 8.656798616177792  8.667723739130462 8.182752303562836  9.600721331463463 7.233672445577275  C 10.533544364911991 6.284951433567797  11 4.96946109210777  11 3.2866630239210477  Z M 7.601880426066855 3.9321197515773827  C 7.601880426066855 4.753920064106006  7.392220180602268 5.311295651775102  6.973597633863288 5.604962346012405  C 6.554713248797604 5.898359948538322  5.926429374445494 6.045013070718747  5.088922401019732 6.045013070718747  C 5.088922401019732 6.045013070718747  4.175040296790211 6.074344858517234  4.175040296790211 6.074344858517234  C 4.175040296790211 6.074344858517234  4.660610004864371 2.934335298942025  4.660610004864371 2.934335298942025  C 4.698317457895719 2.719332518519045  4.822002616907611 2.6116965824518625  5.031750329109373 2.6116965824518625  C 5.031750329109373 2.6116965824518625  5.545601073733517 2.6116965824518625  5.545601073733517 2.6116965824518625  C 5.96431089991473 2.6116965824518625  6.297481566015754 2.631250432230587  6.545373141466632 2.6702684577183566  C 6.792479160316296 2.709645270372529  7.030767416613266 2.831633067339206  7.25919428213898 3.0370383004170205  C 7.487795706549164 3.242443533494835  7.601880426066855 3.540952830655494  7.601880426066855 3.9321197515773827  Z " fill-rule="evenodd" />
    </mask>
  </defs>
  <g transform="matrix(1 0 0 1 -1107 -3900 )">
    <path d="M 11 3.2866630239210477  C 11.000087285772786 2.132536778833753  10.633402368861002 1.2962056422023662  9.900638301156945 0.7774901482681692  C 9.167612436747282 0.25958190808278925  8.211135134472471 0  7.030769705773649 0  C 7.030769705773649 0  2.4902503864708128 0  2.4902503864708128 0  C 2.1092480263275393 0  1.8997623319434662 0.18594072589602592  1.8619675942672462 0.5574641015841733  C 1.8619675942672462 0.5574641015841733  0.005834401277101766 12.53043682415751  0.005834401277101766 12.53043682415751  C -0.013455753665570091 12.648029078697256  0.015088272294605931 12.75557585928921  0.0914633198561696 12.853345166992513  C 0.16705279520860947 12.951293865605848  0.26271765563944693 13  0.37697472812342125 13  C 0.37697472812342125 13  2.7185018190690013 13  2.7185018190690013 13  C 2.946928684594715 13  3.099156273657811 12.872988327290168  3.1754440365745022 12.618608744905684  C 3.1754440365745022 12.618608744905684  3.6895558287244903 9.214711638782818  3.6895558287244903 9.214711638782818  C 3.708409555240164 9.05828075501167  3.7750966328380473 8.931091156287474  3.889440984764257 8.833142457674139  C 4.003698057248231 8.735373149970837  4.146322082633468 8.671419031482047  4.317838620928057 8.642088240774957  C 4.489093300085392 8.613026539106084  4.650660283718159 8.598406035587308  4.8033230889937775 8.598406035587308  C 4.955462186400162 8.598406035587308  5.13623006462924 8.608272291044353  5.345715917693749 8.627736454724147  C 5.555114470505473 8.647290315195539  5.688750482237175 8.656798616177792  5.745486229773282 8.656798616177792  C 7.382880031650196 8.656798616177792  8.667723739130462 8.182752303562836  9.600721331463463 7.233672445577275  C 10.533544364911991 6.284951433567797  11 4.96946109210777  11 3.2866630239210477  Z M 7.601880426066855 3.9321197515773827  C 7.601880426066855 4.753920064106006  7.392220180602268 5.311295651775102  6.973597633863288 5.604962346012405  C 6.554713248797604 5.898359948538322  5.926429374445494 6.045013070718747  5.088922401019732 6.045013070718747  C 5.088922401019732 6.045013070718747  4.175040296790211 6.074344858517234  4.175040296790211 6.074344858517234  C 4.175040296790211 6.074344858517234  4.660610004864371 2.934335298942025  4.660610004864371 2.934335298942025  C 4.698317457895719 2.719332518519045  4.822002616907611 2.6116965824518625  5.031750329109373 2.6116965824518625  C 5.031750329109373 2.6116965824518625  5.545601073733517 2.6116965824518625  5.545601073733517 2.6116965824518625  C 5.96431089991473 2.6116965824518625  6.297481566015754 2.631250432230587  6.545373141466632 2.6702684577183566  C 6.792479160316296 2.709645270372529  7.030767416613266 2.831633067339206  7.25919428213898 3.0370383004170205  C 7.487795706549164 3.242443533494835  7.601880426066855 3.540952830655494  7.601880426066855 3.9321197515773827  Z " fill-rule="nonzero" fill="rgba(0, 156, 222, 1)" stroke="none" transform="matrix(1 0 0 1 1107 3900 )" class="fill" />
    <path d="M 11 3.2866630239210477  C 11.000087285772786 2.132536778833753  10.633402368861002 1.2962056422023662  9.900638301156945 0.7774901482681692  C 9.167612436747282 0.25958190808278925  8.211135134472471 0  7.030769705773649 0  C 7.030769705773649 0  2.4902503864708128 0  2.4902503864708128 0  C 2.1092480263275393 0  1.8997623319434662 0.18594072589602592  1.8619675942672462 0.5574641015841733  C 1.8619675942672462 0.5574641015841733  0.005834401277101766 12.53043682415751  0.005834401277101766 12.53043682415751  C -0.013455753665570091 12.648029078697256  0.015088272294605931 12.75557585928921  0.0914633198561696 12.853345166992513  C 0.16705279520860947 12.951293865605848  0.26271765563944693 13  0.37697472812342125 13  C 0.37697472812342125 13  2.7185018190690013 13  2.7185018190690013 13  C 2.946928684594715 13  3.099156273657811 12.872988327290168  3.1754440365745022 12.618608744905684  C 3.1754440365745022 12.618608744905684  3.6895558287244903 9.214711638782818  3.6895558287244903 9.214711638782818  C 3.708409555240164 9.05828075501167  3.7750966328380473 8.931091156287474  3.889440984764257 8.833142457674139  C 4.003698057248231 8.735373149970837  4.146322082633468 8.671419031482047  4.317838620928057 8.642088240774957  C 4.489093300085392 8.613026539106084  4.650660283718159 8.598406035587308  4.8033230889937775 8.598406035587308  C 4.955462186400162 8.598406035587308  5.13623006462924 8.608272291044353  5.345715917693749 8.627736454724147  C 5.555114470505473 8.647290315195539  5.688750482237175 8.656798616177792  5.745486229773282 8.656798616177792  C 7.382880031650196 8.656798616177792  8.667723739130462 8.182752303562836  9.600721331463463 7.233672445577275  C 10.533544364911991 6.284951433567797  11 4.96946109210777  11 3.2866630239210477  Z " stroke-width="0" stroke-dasharray="0" stroke="rgba(121, 121, 121, 1)" fill="none" transform="matrix(1 0 0 1 1107 3900 )" class="stroke" mask="url(#Clip110)" />
    <path d="M 7.601880426066855 3.9321197515773827  C 7.601880426066855 4.753920064106006  7.392220180602268 5.311295651775102  6.973597633863288 5.604962346012405  C 6.554713248797604 5.898359948538322  5.926429374445494 6.045013070718747  5.088922401019732 6.045013070718747  C 5.088922401019732 6.045013070718747  4.175040296790211 6.074344858517234  4.175040296790211 6.074344858517234  C 4.175040296790211 6.074344858517234  4.660610004864371 2.934335298942025  4.660610004864371 2.934335298942025  C 4.698317457895719 2.719332518519045  4.822002616907611 2.6116965824518625  5.031750329109373 2.6116965824518625  C 5.031750329109373 2.6116965824518625  5.545601073733517 2.6116965824518625  5.545601073733517 2.6116965824518625  C 5.96431089991473 2.6116965824518625  6.297481566015754 2.631250432230587  6.545373141466632 2.6702684577183566  C 6.792479160316296 2.709645270372529  7.030767416613266 2.831633067339206  7.25919428213898 3.0370383004170205  C 7.487795706549164 3.242443533494835  7.601880426066855 3.540952830655494  7.601880426066855 3.9321197515773827  Z " stroke-width="0" stroke-dasharray="0" stroke="rgba(121, 121, 121, 1)" fill="none" transform="matrix(1 0 0 1 1107 3900 )" class="stroke" mask="url(#Clip110)" />
  </g>
</svg>