<?xml version="1.0" encoding="utf-8"?>
<svg version="1.1" xmlns:xlink="http://www.w3.org/1999/xlink" width="11px" height="9px" xmlns="http://www.w3.org/2000/svg">
  <defs>
    <pattern id="BGPattern" patternUnits="userSpaceOnUse" alignment="0 0" imageRepeat="None" />
    <mask fill="white" id="Clip108">
      <path d="M 10.9060186936203 0.3483868609097441  C 10.827397824397682 0.2517510209248311  10.729640847568925 0.2032111129699861  10.612024025840846 0.2032111129699861  C 10.612024025840846 0.2032111129699861  8.37775120039152 0.2032111129699861  8.37775120039152 0.2032111129699861  C 8.103252045278818 0.2032111129699861  7.937116413333687 0.5226688115108762  7.878352930780035 1.161405983518064  C 7.368260727150559 0.3875206358947293  6.437928056340735 0  5.085469396754614 0  C 3.6744269196557973 0  2.4738165018646443 0.522668980765458  1.4844515123590143 1.5678268554213821  C 0.49463725046074697 2.612984730077306  0 3.8422724639194366  0 5.254983757578092  C 0 6.397132462547345  0.33793801507058696 7.306699687796758  1.0139876530445826 7.983860484877516  C 1.6901271369281106 8.661731177987816  2.596467693674705 9  3.7334602666309697 9  C 4.301597126625999 9  4.879706496974397 8.883664746185078  5.467610913795727 8.651614493126909  C 6.055605176526589 8.419386755482945  6.5157419619090415 8.109868616883151  6.849453855901168 7.722615360913957  C 6.849453855901168 7.742049014637672  6.829503985678982 7.829011795276578  6.790597887116489 7.983771118458347  C 6.7510628216644815 8.138885400233299  6.731747402488423 8.255220654048223  6.731747402488423 8.332156625331438  C 6.731747402488423 8.642207704295545  6.858795795356329 8.796612862264983  7.1139766660353665 8.796612862264983  C 7.1139766660353665 8.796612862264983  9.142483935316118 8.796612862264983  9.142483935316118 8.796612862264983  C 9.514293258450914 8.796612862264983  9.730211391685446 8.613102686416243  9.788885022973943 8.245105608841076  C 9.788885022973943 8.245105608841076  10.994253289387789 0.6677553622860471  10.994253289387789 0.6677553622860471  C 11.013571560432398 0.5515971276068214  10.984190301161526 0.4452889171949415  10.9060186936203 0.3483868609097441  Z M 7.525590040721732 4.151881238347762  C 7.525500188295497 4.848564408966008  7.275531265208019 5.4390282278278  6.775861958293862 5.922651107481624  C 6.276102805470173 6.406540224592555  5.673552905565378 6.6483524683787305  4.968031667015971 6.6483524683787305  C 4.399445534628305 6.6483524683787305  3.9393100131725705 6.493769846980317  3.5863697020788003 6.183896231445184  C 3.2335192368945638 5.874732533096417  3.057143104642133 5.4488791406817  3.057143104642133 4.9065115923591405  C 3.057143104642133 4.190838480803973  3.3020801491727987 3.5855536306085702  3.7921352582473773 3.0920808113146916  C 4.281561403110253 2.5985192603063254  4.889590318232521 2.351739606113746  5.614789224853725 2.351739606113746  C 6.162978836203386 2.351739606113746  6.618708094889371 2.5114672071316506  6.981622030305823 2.8306583085494474  C 7.3439070015105745 3.1501156262675285  7.525590040721732 3.590523706774636  7.525590040721732 4.151881238347762  Z " fill-rule="evenodd" />
    </mask>
  </defs>
  <g transform="matrix(1 0 0 1 -1117 -3904 )">
    <path d="M 10.9060186936203 0.3483868609097441  C 10.827397824397682 0.2517510209248311  10.729640847568925 0.2032111129699861  10.612024025840846 0.2032111129699861  C 10.612024025840846 0.2032111129699861  8.37775120039152 0.2032111129699861  8.37775120039152 0.2032111129699861  C 8.103252045278818 0.2032111129699861  7.937116413333687 0.5226688115108762  7.878352930780035 1.161405983518064  C 7.368260727150559 0.3875206358947293  6.437928056340735 0  5.085469396754614 0  C 3.6744269196557973 0  2.4738165018646443 0.522668980765458  1.4844515123590143 1.5678268554213821  C 0.49463725046074697 2.612984730077306  0 3.8422724639194366  0 5.254983757578092  C 0 6.397132462547345  0.33793801507058696 7.306699687796758  1.0139876530445826 7.983860484877516  C 1.6901271369281106 8.661731177987816  2.596467693674705 9  3.7334602666309697 9  C 4.301597126625999 9  4.879706496974397 8.883664746185078  5.467610913795727 8.651614493126909  C 6.055605176526589 8.419386755482945  6.5157419619090415 8.109868616883151  6.849453855901168 7.722615360913957  C 6.849453855901168 7.742049014637672  6.829503985678982 7.829011795276578  6.790597887116489 7.983771118458347  C 6.7510628216644815 8.138885400233299  6.731747402488423 8.255220654048223  6.731747402488423 8.332156625331438  C 6.731747402488423 8.642207704295545  6.858795795356329 8.796612862264983  7.1139766660353665 8.796612862264983  C 7.1139766660353665 8.796612862264983  9.142483935316118 8.796612862264983  9.142483935316118 8.796612862264983  C 9.514293258450914 8.796612862264983  9.730211391685446 8.613102686416243  9.788885022973943 8.245105608841076  C 9.788885022973943 8.245105608841076  10.994253289387789 0.6677553622860471  10.994253289387789 0.6677553622860471  C 11.013571560432398 0.5515971276068214  10.984190301161526 0.4452889171949415  10.9060186936203 0.3483868609097441  Z M 7.525590040721732 4.151881238347762  C 7.525500188295497 4.848564408966008  7.275531265208019 5.4390282278278  6.775861958293862 5.922651107481624  C 6.276102805470173 6.406540224592555  5.673552905565378 6.6483524683787305  4.968031667015971 6.6483524683787305  C 4.399445534628305 6.6483524683787305  3.9393100131725705 6.493769846980317  3.5863697020788003 6.183896231445184  C 3.2335192368945638 5.874732533096417  3.057143104642133 5.4488791406817  3.057143104642133 4.9065115923591405  C 3.057143104642133 4.190838480803973  3.3020801491727987 3.5855536306085702  3.7921352582473773 3.0920808113146916  C 4.281561403110253 2.5985192603063254  4.889590318232521 2.351739606113746  5.614789224853725 2.351739606113746  C 6.162978836203386 2.351739606113746  6.618708094889371 2.5114672071316506  6.981622030305823 2.8306583085494474  C 7.3439070015105745 3.1501156262675285  7.525590040721732 3.590523706774636  7.525590040721732 4.151881238347762  Z " fill-rule="nonzero" fill="rgba(0, 156, 222, 1)" stroke="none" transform="matrix(1 0 0 1 1117 3904 )" class="fill" />
    <path d="M 10.9060186936203 0.3483868609097441  C 10.827397824397682 0.2517510209248311  10.729640847568925 0.2032111129699861  10.612024025840846 0.2032111129699861  C 10.612024025840846 0.2032111129699861  8.37775120039152 0.2032111129699861  8.37775120039152 0.2032111129699861  C 8.103252045278818 0.2032111129699861  7.937116413333687 0.5226688115108762  7.878352930780035 1.161405983518064  C 7.368260727150559 0.3875206358947293  6.437928056340735 0  5.085469396754614 0  C 3.6744269196557973 0  2.4738165018646443 0.522668980765458  1.4844515123590143 1.5678268554213821  C 0.49463725046074697 2.612984730077306  0 3.8422724639194366  0 5.254983757578092  C 0 6.397132462547345  0.33793801507058696 7.306699687796758  1.0139876530445826 7.983860484877516  C 1.6901271369281106 8.661731177987816  2.596467693674705 9  3.7334602666309697 9  C 4.301597126625999 9  4.879706496974397 8.883664746185078  5.467610913795727 8.651614493126909  C 6.055605176526589 8.419386755482945  6.5157419619090415 8.109868616883151  6.849453855901168 7.722615360913957  C 6.849453855901168 7.742049014637672  6.829503985678982 7.829011795276578  6.790597887116489 7.983771118458347  C 6.7510628216644815 8.138885400233299  6.731747402488423 8.255220654048223  6.731747402488423 8.332156625331438  C 6.731747402488423 8.642207704295545  6.858795795356329 8.796612862264983  7.1139766660353665 8.796612862264983  C 7.1139766660353665 8.796612862264983  9.142483935316118 8.796612862264983  9.142483935316118 8.796612862264983  C 9.514293258450914 8.796612862264983  9.730211391685446 8.613102686416243  9.788885022973943 8.245105608841076  C 9.788885022973943 8.245105608841076  10.994253289387789 0.6677553622860471  10.994253289387789 0.6677553622860471  C 11.013571560432398 0.5515971276068214  10.984190301161526 0.4452889171949415  10.9060186936203 0.3483868609097441  Z " stroke-width="0" stroke-dasharray="0" stroke="rgba(121, 121, 121, 1)" fill="none" transform="matrix(1 0 0 1 1117 3904 )" class="stroke" mask="url(#Clip108)" />
    <path d="M 7.525590040721732 4.151881238347762  C 7.525500188295497 4.848564408966008  7.275531265208019 5.4390282278278  6.775861958293862 5.922651107481624  C 6.276102805470173 6.406540224592555  5.673552905565378 6.6483524683787305  4.968031667015971 6.6483524683787305  C 4.399445534628305 6.6483524683787305  3.9393100131725705 6.493769846980317  3.5863697020788003 6.183896231445184  C 3.2335192368945638 5.874732533096417  3.057143104642133 5.4488791406817  3.057143104642133 4.9065115923591405  C 3.057143104642133 4.190838480803973  3.3020801491727987 3.5855536306085702  3.7921352582473773 3.0920808113146916  C 4.281561403110253 2.5985192603063254  4.889590318232521 2.351739606113746  5.614789224853725 2.351739606113746  C 6.162978836203386 2.351739606113746  6.618708094889371 2.5114672071316506  6.981622030305823 2.8306583085494474  C 7.3439070015105745 3.1501156262675285  7.525590040721732 3.590523706774636  7.525590040721732 4.151881238347762  Z " stroke-width="0" stroke-dasharray="0" stroke="rgba(121, 121, 121, 1)" fill="none" transform="matrix(1 0 0 1 1117 3904 )" class="stroke" mask="url(#Clip108)" />
  </g>
</svg>