<?xml version="1.0" encoding="utf-8"?>
<svg version="1.1" xmlns:xlink="http://www.w3.org/1999/xlink" width="8px" height="8px" xmlns="http://www.w3.org/2000/svg">
  <defs>
    <pattern id="BGPattern" patternUnits="userSpaceOnUse" alignment="0 0" imageRepeat="None" />
    <mask fill="white" id="Clip104">
      <path d="M 8 1.6995747319028063  C 8 1.1297923196460085  7.944800019264221 0.5736065327987261  7.844400024414062 0.03526625348734022  C 7.844400024414062 0.03526625348734022  7.199999999999999 0.03526625348734022  7.199999999999999 0.03526625348734022  L 7.199999999999999 0  L 0 0  L 0 3.3991494638056126  C 0 3.3991494638056126  4.521200561523437 3.3991494638056126  4.521200561523437 3.3991494638056126  C 4.204400563240051 4.349636627759735  3.628799819946289 5.169256196170358  2.8863998413085934 5.766231808594913  C 2.8867998413275924 5.765806914891757  2.8871999450493604 5.765807381734261  2.8875999450683594 5.765382488031104  C 2.8875999450683594 5.765382488031104  5.363600158691406 7.990975158589139  5.363600158691406 7.990975158589139  C 5.188400161266326 8.16008284522389  8 5.948511561659822  8 1.6995747319028063  Z " fill-rule="evenodd" />
    </mask>
  </defs>
  <g transform="matrix(1 0 0 1 -1026 -3906 )">
    <path d="M 8 1.6995747319028063  C 8 1.1297923196460085  7.944800019264221 0.5736065327987261  7.844400024414062 0.03526625348734022  C 7.844400024414062 0.03526625348734022  7.199999999999999 0.03526625348734022  7.199999999999999 0.03526625348734022  L 7.199999999999999 0  L 0 0  L 0 3.3991494638056126  C 0 3.3991494638056126  4.521200561523437 3.3991494638056126  4.521200561523437 3.3991494638056126  C 4.204400563240051 4.349636627759735  3.628799819946289 5.169256196170358  2.8863998413085934 5.766231808594913  C 2.8867998413275924 5.765806914891757  2.8871999450493604 5.765807381734261  2.8875999450683594 5.765382488031104  C 2.8875999450683594 5.765382488031104  5.363600158691406 7.990975158589139  5.363600158691406 7.990975158589139  C 5.188400161266326 8.16008284522389  8 5.948511561659822  8 1.6995747319028063  Z " fill-rule="nonzero" fill="rgba(25, 118, 210, 1)" stroke="none" transform="matrix(1 0 0 1 1026 3906 )" class="fill" />
    <path d="M 8 1.6995747319028063  C 8 1.1297923196460085  7.944800019264221 0.5736065327987261  7.844400024414062 0.03526625348734022  C 7.844400024414062 0.03526625348734022  7.199999999999999 0.03526625348734022  7.199999999999999 0.03526625348734022  L 7.199999999999999 0  L 0 0  L 0 3.3991494638056126  C 0 3.3991494638056126  4.521200561523437 3.3991494638056126  4.521200561523437 3.3991494638056126  C 4.204400563240051 4.349636627759735  3.628799819946289 5.169256196170358  2.8863998413085934 5.766231808594913  C 2.8867998413275924 5.765806914891757  2.8871999450493604 5.765807381734261  2.8875999450683594 5.765382488031104  C 2.8875999450683594 5.765382488031104  5.363600158691406 7.990975158589139  5.363600158691406 7.990975158589139  C 5.188400161266326 8.16008284522389  8 5.948511561659822  8 1.6995747319028063  Z " stroke-width="0" stroke-dasharray="0" stroke="rgba(121, 121, 121, 1)" fill="none" transform="matrix(1 0 0 1 1026 3906 )" class="stroke" mask="url(#Clip104)" />
  </g>
</svg>