<?xml version="1.0" encoding="utf-8"?>
<svg version="1.1" xmlns:xlink="http://www.w3.org/1999/xlink" width="13px" height="7px" xmlns="http://www.w3.org/2000/svg">
  <defs>
    <pattern id="BGPattern" patternUnits="userSpaceOnUse" alignment="0 0" imageRepeat="None" />
    <mask fill="white" id="Clip102">
      <path d="M 7.346129316433107 0  C 4.156745016265946 0  1.3908405205102716 1.9573822568865302  0 4.825080515075125  C 0 4.825080515075125  2.7281232224445326 7  2.7281232224445326 7  C 3.4663066588286204 5.013281805406908  5.254055994009931 3.6105737700583656  7.346129316433107 3.6105737700583656  C 8.616153583472634 3.6105737700583656  9.77158938387986 4.131398840981359  10.651347917760333 4.982140281247221  C 10.651347917760333 4.982140281247221  13 2.42901349003352  13 2.42901349003352  C 11.51699029318419 0.926563481689638  9.533278046497836 0  7.346129316433107 0  Z " fill-rule="evenodd" />
    </mask>
  </defs>
  <g transform="matrix(1 0 0 1 -1018 -3899 )">
    <path d="M 7.346129316433107 0  C 4.156745016265946 0  1.3908405205102716 1.9573822568865302  0 4.825080515075125  C 0 4.825080515075125  2.7281232224445326 7  2.7281232224445326 7  C 3.4663066588286204 5.013281805406908  5.254055994009931 3.6105737700583656  7.346129316433107 3.6105737700583656  C 8.616153583472634 3.6105737700583656  9.77158938387986 4.131398840981359  10.651347917760333 4.982140281247221  C 10.651347917760333 4.982140281247221  13 2.42901349003352  13 2.42901349003352  C 11.51699029318419 0.926563481689638  9.533278046497836 0  7.346129316433107 0  Z " fill-rule="nonzero" fill="rgba(255, 61, 0, 1)" stroke="none" transform="matrix(1 0 0 1 1018 3899 )" class="fill" />
    <path d="M 7.346129316433107 0  C 4.156745016265946 0  1.3908405205102716 1.9573822568865302  0 4.825080515075125  C 0 4.825080515075125  2.7281232224445326 7  2.7281232224445326 7  C 3.4663066588286204 5.013281805406908  5.254055994009931 3.6105737700583656  7.346129316433107 3.6105737700583656  C 8.616153583472634 3.6105737700583656  9.77158938387986 4.131398840981359  10.651347917760333 4.982140281247221  C 10.651347917760333 4.982140281247221  13 2.42901349003352  13 2.42901349003352  C 11.51699029318419 0.926563481689638  9.533278046497836 0  7.346129316433107 0  Z " stroke-width="0" stroke-dasharray="0" stroke="rgba(121, 121, 121, 1)" fill="none" transform="matrix(1 0 0 1 1018 3899 )" class="stroke" mask="url(#Clip102)" />
  </g>
</svg>