<?xml version="1.0" encoding="utf-8"?>
<svg version="1.1" xmlns:xlink="http://www.w3.org/1999/xlink" width="11px" height="13px" xmlns="http://www.w3.org/2000/svg">
  <defs>
    <pattern id="BGPattern" patternUnits="userSpaceOnUse" alignment="0 0" imageRepeat="None" />
    <mask fill="white" id="Clip105">
      <path d="M 11 3.2866630239210477  C 11 2.132536778833753  10.633230780500313 1.2962056422023662  9.900477802972034 0.7774901482681692  C 9.167375712958616 0.25958190808278925  8.210737747766645 0  7.030564739805483 0  C 7.030564739805483 0  2.4615738197267696 0  2.4615738197267696 0  C 2.0997797861040914 0  1.8998981599174916 0.18594072589602592  1.861929425004911 0.5574641015841733  C 1.861929425004911 0.5574641015841733  0.005825998636305367 12.53043682415751  0.005825998636305367 12.53043682415751  C -0.01346386435535722 12.648029078697256  0.015165348754549111 12.75557585928921  0.09145195707764381 12.853345166992513  C 0.1673021435789607 12.951293865605848  0.2627040235338774 13  0.37695936676955244 13  C 0.37695936676955244 13  2.547200107880253 13  2.547200107880253 13  C 2.9278475891760145 13  3.137068067986202 12.814507724647386  3.17547322472056 12.442535898415828  C 3.17547322472056 12.442535898415828  3.6894040947881184 9.214711638782818  3.6894040947881184 9.214711638782818  C 3.7081702513335193 9.05828075501167  3.775117452960547 8.931091156287474  3.8893727961962217 8.833142457674139  C 4.0035408509054955 8.735373149970837  4.146338002317427 8.671419031482047  4.317677378110297 8.642088240774957  C 4.489016753903167 8.613026539106084  4.650580615932982 8.598406035587308  4.803153832579171 8.598406035587308  C 4.955290627403582 8.598406035587308  5.13605629001808 8.608272291044353  5.345800827747866 8.627736454724147  C 5.555021655129473 8.647290315195539  5.688392446883959 8.656798616177792  5.745563757562438 8.656798616177792  C 7.382670901965485 8.656798616177792  8.66767246689508 8.182752303562836  9.600655938574848 7.233672445577275  C 10.53320297802772 6.284951433567797  11 4.96946109210777  11 3.2866630239210477  Z M 7.2021662621157185 2.94913463735204  C 7.544670436648654 3.1742731271576163  7.658926757965324 3.6488582005994745  7.54467141472965 4.372530434297398  C 7.449182230640655 5.057364070841927  7.201991622632212 5.507102482094221  6.802228859299511 5.722374354228585  C 6.402378817845526 5.937915318074336  5.83127686601206 6.045103402387578  5.088922629214904 6.045103402387578  C 5.088922629214904 6.045103402387578  4.146512704231636 6.074433821524416  4.146512704231636 6.074433821524416  C 4.146512704231636 6.074433821524416  4.632075729273839 2.934424261949206  4.632075729273839 2.934424261949206  C 4.6699571782612965 2.719421481526226  4.7936398098111095 2.611785545459044  5.003209770488092 2.611785545459044  C 5.003209770488092 2.611785545459044  5.545944002157605 2.611785545459044  5.545944002157605 2.611785545459044  C 6.307064408506558 2.611785545459044  6.859487510529979 2.7245343309692336  7.2021662621157185 2.94913463735204  Z " fill-rule="evenodd" />
    </mask>
  </defs>
  <g transform="matrix(1 0 0 1 -1074 -3900 )">
    <path d="M 11 3.2866630239210477  C 11 2.132536778833753  10.633230780500313 1.2962056422023662  9.900477802972034 0.7774901482681692  C 9.167375712958616 0.25958190808278925  8.210737747766645 0  7.030564739805483 0  C 7.030564739805483 0  2.4615738197267696 0  2.4615738197267696 0  C 2.0997797861040914 0  1.8998981599174916 0.18594072589602592  1.861929425004911 0.5574641015841733  C 1.861929425004911 0.5574641015841733  0.005825998636305367 12.53043682415751  0.005825998636305367 12.53043682415751  C -0.01346386435535722 12.648029078697256  0.015165348754549111 12.75557585928921  0.09145195707764381 12.853345166992513  C 0.1673021435789607 12.951293865605848  0.2627040235338774 13  0.37695936676955244 13  C 0.37695936676955244 13  2.547200107880253 13  2.547200107880253 13  C 2.9278475891760145 13  3.137068067986202 12.814507724647386  3.17547322472056 12.442535898415828  C 3.17547322472056 12.442535898415828  3.6894040947881184 9.214711638782818  3.6894040947881184 9.214711638782818  C 3.7081702513335193 9.05828075501167  3.775117452960547 8.931091156287474  3.8893727961962217 8.833142457674139  C 4.0035408509054955 8.735373149970837  4.146338002317427 8.671419031482047  4.317677378110297 8.642088240774957  C 4.489016753903167 8.613026539106084  4.650580615932982 8.598406035587308  4.803153832579171 8.598406035587308  C 4.955290627403582 8.598406035587308  5.13605629001808 8.608272291044353  5.345800827747866 8.627736454724147  C 5.555021655129473 8.647290315195539  5.688392446883959 8.656798616177792  5.745563757562438 8.656798616177792  C 7.382670901965485 8.656798616177792  8.66767246689508 8.182752303562836  9.600655938574848 7.233672445577275  C 10.53320297802772 6.284951433567797  11 4.96946109210777  11 3.2866630239210477  Z M 7.2021662621157185 2.94913463735204  C 7.544670436648654 3.1742731271576163  7.658926757965324 3.6488582005994745  7.54467141472965 4.372530434297398  C 7.449182230640655 5.057364070841927  7.201991622632212 5.507102482094221  6.802228859299511 5.722374354228585  C 6.402378817845526 5.937915318074336  5.83127686601206 6.045103402387578  5.088922629214904 6.045103402387578  C 5.088922629214904 6.045103402387578  4.146512704231636 6.074433821524416  4.146512704231636 6.074433821524416  C 4.146512704231636 6.074433821524416  4.632075729273839 2.934424261949206  4.632075729273839 2.934424261949206  C 4.6699571782612965 2.719421481526226  4.7936398098111095 2.611785545459044  5.003209770488092 2.611785545459044  C 5.003209770488092 2.611785545459044  5.545944002157605 2.611785545459044  5.545944002157605 2.611785545459044  C 6.307064408506558 2.611785545459044  6.859487510529979 2.7245343309692336  7.2021662621157185 2.94913463735204  Z " fill-rule="nonzero" fill="rgba(0, 48, 135, 1)" stroke="none" transform="matrix(1 0 0 1 1074 3900 )" class="fill" />
    <path d="M 11 3.2866630239210477  C 11 2.132536778833753  10.633230780500313 1.2962056422023662  9.900477802972034 0.7774901482681692  C 9.167375712958616 0.25958190808278925  8.210737747766645 0  7.030564739805483 0  C 7.030564739805483 0  2.4615738197267696 0  2.4615738197267696 0  C 2.0997797861040914 0  1.8998981599174916 0.18594072589602592  1.861929425004911 0.5574641015841733  C 1.861929425004911 0.5574641015841733  0.005825998636305367 12.53043682415751  0.005825998636305367 12.53043682415751  C -0.01346386435535722 12.648029078697256  0.015165348754549111 12.75557585928921  0.09145195707764381 12.853345166992513  C 0.1673021435789607 12.951293865605848  0.2627040235338774 13  0.37695936676955244 13  C 0.37695936676955244 13  2.547200107880253 13  2.547200107880253 13  C 2.9278475891760145 13  3.137068067986202 12.814507724647386  3.17547322472056 12.442535898415828  C 3.17547322472056 12.442535898415828  3.6894040947881184 9.214711638782818  3.6894040947881184 9.214711638782818  C 3.7081702513335193 9.05828075501167  3.775117452960547 8.931091156287474  3.8893727961962217 8.833142457674139  C 4.0035408509054955 8.735373149970837  4.146338002317427 8.671419031482047  4.317677378110297 8.642088240774957  C 4.489016753903167 8.613026539106084  4.650580615932982 8.598406035587308  4.803153832579171 8.598406035587308  C 4.955290627403582 8.598406035587308  5.13605629001808 8.608272291044353  5.345800827747866 8.627736454724147  C 5.555021655129473 8.647290315195539  5.688392446883959 8.656798616177792  5.745563757562438 8.656798616177792  C 7.382670901965485 8.656798616177792  8.66767246689508 8.182752303562836  9.600655938574848 7.233672445577275  C 10.53320297802772 6.284951433567797  11 4.96946109210777  11 3.2866630239210477  Z " stroke-width="0" stroke-dasharray="0" stroke="rgba(121, 121, 121, 1)" fill="none" transform="matrix(1 0 0 1 1074 3900 )" class="stroke" mask="url(#Clip105)" />
    <path d="M 7.2021662621157185 2.94913463735204  C 7.544670436648654 3.1742731271576163  7.658926757965324 3.6488582005994745  7.54467141472965 4.372530434297398  C 7.449182230640655 5.057364070841927  7.201991622632212 5.507102482094221  6.802228859299511 5.722374354228585  C 6.402378817845526 5.937915318074336  5.83127686601206 6.045103402387578  5.088922629214904 6.045103402387578  C 5.088922629214904 6.045103402387578  4.146512704231636 6.074433821524416  4.146512704231636 6.074433821524416  C 4.146512704231636 6.074433821524416  4.632075729273839 2.934424261949206  4.632075729273839 2.934424261949206  C 4.6699571782612965 2.719421481526226  4.7936398098111095 2.611785545459044  5.003209770488092 2.611785545459044  C 5.003209770488092 2.611785545459044  5.545944002157605 2.611785545459044  5.545944002157605 2.611785545459044  C 6.307064408506558 2.611785545459044  6.859487510529979 2.7245343309692336  7.2021662621157185 2.94913463735204  Z " stroke-width="0" stroke-dasharray="0" stroke="rgba(121, 121, 121, 1)" fill="none" transform="matrix(1 0 0 1 1074 3900 )" class="stroke" mask="url(#Clip105)" />
  </g>
</svg>