<?xml version="1.0" encoding="utf-8"?>
<svg version="1.1" xmlns:xlink="http://www.w3.org/1999/xlink" width="20px" height="20px" xmlns="http://www.w3.org/2000/svg">
  <defs>
    <pattern id="BGPattern" patternUnits="userSpaceOnUse" alignment="0 0" imageRepeat="None" />
    <mask fill="white" id="Clip88">
      <path d="M 10.491071428571427 19.765625  C 10.357142857142858 19.921875  10.193452388048172 20  10 20  C 9.806547611951828 20  9.642857142857142 19.921875  9.508928571428571 19.765625  C 9.508928571428571 19.765625  2.5446428571428568 11.927083333333336  2.5446428571428568 11.927083333333336  C 2.470238097012043 11.857638886819284  2.367931551166943 11.744791666666668  2.2377232142857144 11.588541666666668  C 2.1075148774044856 11.432291666666668  1.9010416737624576 11.148003463943802  1.6183035714285716 10.735677083333336  C 1.3355654690946852 10.32335070272287  1.0825892857142858 9.900173594554266  0.859375 9.466145833333334  C 0.6361607142857142 9.032118072112402  0.4371279797383717 8.506944427887598  0.2622767857142857 7.890625  C 0.0874255916901997 7.2743055721124  0 6.675347238779068  0 6.09375  C 0 4.184027711550394  0.4724702664784024 2.690972189108531  1.4174107142857144 1.6145833333333335  C 2.3623511620930264 0.538194477558136  3.6681548186710904 0  5.334821428571429 0  C 5.7961309381893695 0  6.266741071428571 0.09331597636143368  6.7466517857142865 0.2799479166666667  C 7.2265625 0.46657985697189974  7.672991071428571 0.7183159639437993  8.0859375 1.03515625  C 8.498883928571429 1.351996536056201  8.854166673762458 1.649305547277133  9.151785714285715 1.9270833333333335  C 9.449404754808972 2.204861119389534  9.732142857142858 2.5  10 2.8125  C 10.267857142857142 2.5  10.55059524519103 2.204861119389534  10.848214285714286 1.9270833333333335  C 11.145833326237543 1.649305547277133  11.501116071428573 1.351996536056201  11.9140625 1.03515625  C 12.327008928571427 0.7183159639437993  12.773437500000002 0.46657985697189974  13.253348214285715 0.2799479166666667  C 13.733258928571427 0.09331597636143368  14.203869061810629 0  14.665178571428573 0  C 16.33184518132891 0  17.637648837906973 0.538194477558136  18.582589285714285 1.6145833333333335  C 19.527529733521597 2.690972189108531  20 4.184027711550394  20 6.09375  C 20 8.012152711550394  19.148065532956807 9.965277711550394  17.44419642857143 11.953125  C 17.44419642857143 11.953125  10.491071428571427 19.765625  10.491071428571427 19.765625  Z " fill-rule="evenodd" />
    </mask>
  </defs>
  <g transform="matrix(1 0 0 1 -23 -23 )">
    <path d="M 10.491071428571427 19.765625  C 10.357142857142858 19.921875  10.193452388048172 20  10 20  C 9.806547611951828 20  9.642857142857142 19.921875  9.508928571428571 19.765625  C 9.508928571428571 19.765625  2.5446428571428568 11.927083333333336  2.5446428571428568 11.927083333333336  C 2.470238097012043 11.857638886819284  2.367931551166943 11.744791666666668  2.2377232142857144 11.588541666666668  C 2.1075148774044856 11.432291666666668  1.9010416737624576 11.148003463943802  1.6183035714285716 10.735677083333336  C 1.3355654690946852 10.32335070272287  1.0825892857142858 9.900173594554266  0.859375 9.466145833333334  C 0.6361607142857142 9.032118072112402  0.4371279797383717 8.506944427887598  0.2622767857142857 7.890625  C 0.0874255916901997 7.2743055721124  0 6.675347238779068  0 6.09375  C 0 4.184027711550394  0.4724702664784024 2.690972189108531  1.4174107142857144 1.6145833333333335  C 2.3623511620930264 0.538194477558136  3.6681548186710904 0  5.334821428571429 0  C 5.7961309381893695 0  6.266741071428571 0.09331597636143368  6.7466517857142865 0.2799479166666667  C 7.2265625 0.46657985697189974  7.672991071428571 0.7183159639437993  8.0859375 1.03515625  C 8.498883928571429 1.351996536056201  8.854166673762458 1.649305547277133  9.151785714285715 1.9270833333333335  C 9.449404754808972 2.204861119389534  9.732142857142858 2.5  10 2.8125  C 10.267857142857142 2.5  10.55059524519103 2.204861119389534  10.848214285714286 1.9270833333333335  C 11.145833326237543 1.649305547277133  11.501116071428573 1.351996536056201  11.9140625 1.03515625  C 12.327008928571427 0.7183159639437993  12.773437500000002 0.46657985697189974  13.253348214285715 0.2799479166666667  C 13.733258928571427 0.09331597636143368  14.203869061810629 0  14.665178571428573 0  C 16.33184518132891 0  17.637648837906973 0.538194477558136  18.582589285714285 1.6145833333333335  C 19.527529733521597 2.690972189108531  20 4.184027711550394  20 6.09375  C 20 8.012152711550394  19.148065532956807 9.965277711550394  17.44419642857143 11.953125  C 17.44419642857143 11.953125  10.491071428571427 19.765625  10.491071428571427 19.765625  Z " fill-rule="nonzero" fill="rgba(255, 68, 68, 1)" stroke="none" transform="matrix(1 0 0 1 23 23 )" class="fill" />
    <path d="M 10.491071428571427 19.765625  C 10.357142857142858 19.921875  10.193452388048172 20  10 20  C 9.806547611951828 20  9.642857142857142 19.921875  9.508928571428571 19.765625  C 9.508928571428571 19.765625  2.5446428571428568 11.927083333333336  2.5446428571428568 11.927083333333336  C 2.470238097012043 11.857638886819284  2.367931551166943 11.744791666666668  2.2377232142857144 11.588541666666668  C 2.1075148774044856 11.432291666666668  1.9010416737624576 11.148003463943802  1.6183035714285716 10.735677083333336  C 1.3355654690946852 10.32335070272287  1.0825892857142858 9.900173594554266  0.859375 9.466145833333334  C 0.6361607142857142 9.032118072112402  0.4371279797383717 8.506944427887598  0.2622767857142857 7.890625  C 0.0874255916901997 7.2743055721124  0 6.675347238779068  0 6.09375  C 0 4.184027711550394  0.4724702664784024 2.690972189108531  1.4174107142857144 1.6145833333333335  C 2.3623511620930264 0.538194477558136  3.6681548186710904 0  5.334821428571429 0  C 5.7961309381893695 0  6.266741071428571 0.09331597636143368  6.7466517857142865 0.2799479166666667  C 7.2265625 0.46657985697189974  7.672991071428571 0.7183159639437993  8.0859375 1.03515625  C 8.498883928571429 1.351996536056201  8.854166673762458 1.649305547277133  9.151785714285715 1.9270833333333335  C 9.449404754808972 2.204861119389534  9.732142857142858 2.5  10 2.8125  C 10.267857142857142 2.5  10.55059524519103 2.204861119389534  10.848214285714286 1.9270833333333335  C 11.145833326237543 1.649305547277133  11.501116071428573 1.351996536056201  11.9140625 1.03515625  C 12.327008928571427 0.7183159639437993  12.773437500000002 0.46657985697189974  13.253348214285715 0.2799479166666667  C 13.733258928571427 0.09331597636143368  14.203869061810629 0  14.665178571428573 0  C 16.33184518132891 0  17.637648837906973 0.538194477558136  18.582589285714285 1.6145833333333335  C 19.527529733521597 2.690972189108531  20 4.184027711550394  20 6.09375  C 20 8.012152711550394  19.148065532956807 9.965277711550394  17.44419642857143 11.953125  C 17.44419642857143 11.953125  10.491071428571427 19.765625  10.491071428571427 19.765625  Z " stroke-width="0" stroke-dasharray="0" stroke="rgba(121, 121, 121, 1)" fill="none" transform="matrix(1 0 0 1 23 23 )" class="stroke" mask="url(#Clip88)" />
  </g>
</svg>